G04 #@! TF.GenerationSoftware,KiCad,Pcbnew,(6.0.7)*
G04 #@! TF.CreationDate,2022-08-30T19:15:33+09:00*
G04 #@! TF.ProjectId,keyboard-layouter-playground,6b657962-6f61-4726-942d-6c61796f7574,rev?*
G04 #@! TF.SameCoordinates,PX17eef3cPY7a5a53a*
G04 #@! TF.FileFunction,Legend,Top*
G04 #@! TF.FilePolarity,Positive*
%FSLAX46Y46*%
G04 Gerber Fmt 4.6, Leading zero omitted, Abs format (unit mm)*
G04 Created by KiCad (PCBNEW (6.0.7)) date 2022-08-30 19:15:33*
%MOMM*%
%LPD*%
G01*
G04 APERTURE LIST*
%ADD10C,0.300000*%
%ADD11C,0.200000*%
%ADD12R,1.524000X1.524000*%
%ADD13C,1.524000*%
G04 APERTURE END LIST*
D10*
X269836924Y26109155D02*
X268908847Y27302398D01*
X269262400Y26847829D02*
X269319221Y27005666D01*
X269521252Y27207696D01*
X269666461Y27251890D01*
X269761163Y27245577D01*
X269900059Y27182442D01*
X270165224Y26841516D01*
X270203105Y26677366D01*
X270196791Y26570037D01*
X270139970Y26412201D01*
X269937940Y26210171D01*
X269792730Y26165976D01*
X270076835Y27763280D02*
X270948092Y27220323D01*
X270581912Y28268356D02*
X270948092Y27220323D01*
X271068048Y26835202D01*
X271061734Y26727874D01*
X271004913Y26570037D01*
X272564336Y28836567D02*
X272419127Y28792373D01*
X272324425Y28798687D01*
X272185529Y28861821D01*
X271920364Y29202748D01*
X271882483Y29366897D01*
X271888797Y29474226D01*
X271945618Y29632062D01*
X272097141Y29783585D01*
X272242350Y29827779D01*
X272337052Y29821466D01*
X272475948Y29758331D01*
X272741113Y29417405D01*
X272778994Y29253255D01*
X272772680Y29145926D01*
X272715859Y28988090D01*
X272564336Y28836567D01*
X273372458Y29644689D02*
X272753740Y30440184D01*
X272842128Y30326542D02*
X272848442Y30433871D01*
X272905263Y30591707D01*
X273056786Y30743230D01*
X273201995Y30787424D01*
X273340891Y30724290D01*
X273827027Y30099258D01*
X273340891Y30724290D02*
X273303010Y30888440D01*
X273359831Y31046276D01*
X273511354Y31197799D01*
X273656564Y31241993D01*
X273795460Y31178858D01*
X274281595Y30553827D01*
X274938195Y31210426D02*
X274792985Y31166232D01*
X274698283Y31172545D01*
X274559387Y31235680D01*
X274294222Y31576606D01*
X274256342Y31740756D01*
X274262655Y31848084D01*
X274319476Y32005921D01*
X274470999Y32157444D01*
X274616208Y32201638D01*
X274710910Y32195324D01*
X274849806Y32132190D01*
X275114971Y31791263D01*
X275152852Y31627114D01*
X275146539Y31519785D01*
X275089718Y31361949D01*
X274938195Y31210426D01*
X275127598Y32814043D02*
X275746317Y32018548D01*
X275215987Y32700401D02*
X275222300Y32807729D01*
X275279121Y32965566D01*
X275430644Y33117089D01*
X275575853Y33161283D01*
X275714749Y33098148D01*
X276200885Y32473116D01*
X276857484Y33129716D02*
X276712275Y33085521D01*
X276617573Y33091835D01*
X276478677Y33154969D01*
X276213512Y33495896D01*
X276175631Y33660046D01*
X276181945Y33767374D01*
X276238766Y33925211D01*
X276390289Y34076734D01*
X276535498Y34120928D01*
X276630200Y34114614D01*
X276769096Y34051480D01*
X277034261Y33710553D01*
X277072142Y33546403D01*
X277065828Y33439075D01*
X277009007Y33281238D01*
X276857484Y33129716D01*
X277665606Y33937838D02*
X277046888Y34733333D01*
X277135276Y34619691D02*
X277141590Y34727019D01*
X277198411Y34884856D01*
X277349934Y35036378D01*
X277495143Y35080573D01*
X277634039Y35017438D01*
X278120175Y34392406D01*
X277634039Y35017438D02*
X277596159Y35181588D01*
X277652980Y35339424D01*
X277804502Y35490947D01*
X277949712Y35535141D01*
X278088608Y35472007D01*
X278574744Y34846975D01*
X279231343Y35503574D02*
X279086134Y35459380D01*
X278991432Y35465693D01*
X278852536Y35528828D01*
X278587371Y35869754D01*
X278549490Y36033904D01*
X278555803Y36141233D01*
X278612624Y36299069D01*
X278764147Y36450592D01*
X278909357Y36494786D01*
X279004059Y36488473D01*
X279142955Y36425338D01*
X279408120Y36084412D01*
X279446000Y35920262D01*
X279439687Y35812933D01*
X279382866Y35655097D01*
X279231343Y35503574D01*
X271380588Y34580871D02*
X271576305Y34675573D01*
X271828843Y34928111D01*
X271885664Y35085947D01*
X271891977Y35193276D01*
X271854097Y35357426D01*
X271765708Y35471068D01*
X271626812Y35534202D01*
X271532111Y35540516D01*
X271386901Y35496322D01*
X271140676Y35351112D01*
X270995467Y35306918D01*
X270900765Y35313232D01*
X270761869Y35376366D01*
X270673481Y35490008D01*
X270635600Y35654158D01*
X270641914Y35761487D01*
X270698735Y35919323D01*
X270951273Y36171861D01*
X271146990Y36266563D01*
X272485442Y35584710D02*
X271557364Y36777953D01*
X273091534Y36190802D01*
X272163456Y37384044D01*
X272668532Y37889121D02*
X273419833Y36923162D01*
X273558729Y36860028D01*
X273653431Y36853714D01*
X273798640Y36897908D01*
X274000671Y37099939D01*
X274057492Y37257775D01*
X274063805Y37365104D01*
X274025925Y37529254D01*
X273274624Y38495212D01*
X275225481Y38526779D02*
X275219167Y38419451D01*
X275111839Y38211107D01*
X275010823Y38110091D01*
X274815106Y38015390D01*
X274625703Y38028017D01*
X274486807Y38091151D01*
X274259522Y38267928D01*
X274126940Y38438391D01*
X274000671Y38716183D01*
X273962790Y38880333D01*
X273975417Y39094990D01*
X274082746Y39303334D01*
X274183761Y39404349D01*
X274379478Y39499051D01*
X274474180Y39492738D01*
X271093199Y32898462D02*
X272374830Y32058773D01*
X271800306Y33605569D01*
X273441804Y33226761D02*
X273384983Y33068925D01*
X273182952Y32866895D01*
X273037743Y32822700D01*
X272898847Y32885835D01*
X272545294Y33340404D01*
X272507413Y33504553D01*
X272564234Y33662390D01*
X272766265Y33864420D01*
X272911474Y33908614D01*
X273050370Y33845480D01*
X273138758Y33731838D01*
X272722070Y33113119D01*
X273991074Y33675017D02*
X273372356Y34470512D01*
X273549133Y34243227D02*
X273511252Y34407377D01*
X273517565Y34514706D01*
X273574387Y34672542D01*
X273675402Y34773557D01*
X274559285Y34445258D02*
X274653987Y34438944D01*
X274647674Y34331616D01*
X274552972Y34337929D01*
X274559285Y34445258D01*
X274647674Y34331616D01*
X276516456Y36200398D02*
X275910364Y35594306D01*
X276213410Y35897352D02*
X275285332Y37090595D01*
X275316900Y36819116D01*
X275304273Y36604459D01*
X275247452Y36446623D01*
X276882636Y36768609D02*
X276977338Y36762295D01*
X276971025Y36654967D01*
X276876323Y36661280D01*
X276882636Y36768609D01*
X276971025Y36654967D01*
X278031685Y37715627D02*
X277425593Y37109535D01*
X277728639Y37412581D02*
X276800561Y38605824D01*
X276832129Y38334345D01*
X276819502Y38119688D01*
X276762681Y37961851D01*
D11*
X11035670Y82457239D02*
X11178527Y82409620D01*
X11416623Y82409620D01*
X11511861Y82457239D01*
X11559480Y82504858D01*
X11607099Y82600096D01*
X11607099Y82695334D01*
X11559480Y82790572D01*
X11511861Y82838191D01*
X11416623Y82885810D01*
X11226146Y82933429D01*
X11130908Y82981048D01*
X11083289Y83028667D01*
X11035670Y83123905D01*
X11035670Y83219143D01*
X11083289Y83314381D01*
X11130908Y83362000D01*
X11226146Y83409620D01*
X11464242Y83409620D01*
X11607099Y83362000D01*
X11940432Y83409620D02*
X12178527Y82409620D01*
X12369004Y83123905D01*
X12559480Y82409620D01*
X12797575Y83409620D01*
X13130908Y83314381D02*
X13178527Y83362000D01*
X13273765Y83409620D01*
X13511861Y83409620D01*
X13607099Y83362000D01*
X13654718Y83314381D01*
X13702337Y83219143D01*
X13702337Y83123905D01*
X13654718Y82981048D01*
X13083289Y82409620D01*
X13702337Y82409620D01*
X30085670Y82457239D02*
X30228527Y82409620D01*
X30466623Y82409620D01*
X30561861Y82457239D01*
X30609480Y82504858D01*
X30657099Y82600096D01*
X30657099Y82695334D01*
X30609480Y82790572D01*
X30561861Y82838191D01*
X30466623Y82885810D01*
X30276146Y82933429D01*
X30180908Y82981048D01*
X30133289Y83028667D01*
X30085670Y83123905D01*
X30085670Y83219143D01*
X30133289Y83314381D01*
X30180908Y83362000D01*
X30276146Y83409620D01*
X30514242Y83409620D01*
X30657099Y83362000D01*
X30990432Y83409620D02*
X31228527Y82409620D01*
X31419004Y83123905D01*
X31609480Y82409620D01*
X31847575Y83409620D01*
X32133289Y83409620D02*
X32752337Y83409620D01*
X32419004Y83028667D01*
X32561861Y83028667D01*
X32657099Y82981048D01*
X32704718Y82933429D01*
X32752337Y82838191D01*
X32752337Y82600096D01*
X32704718Y82504858D01*
X32657099Y82457239D01*
X32561861Y82409620D01*
X32276146Y82409620D01*
X32180908Y82457239D01*
X32133289Y82504858D01*
X49135670Y82457239D02*
X49278527Y82409620D01*
X49516623Y82409620D01*
X49611861Y82457239D01*
X49659480Y82504858D01*
X49707099Y82600096D01*
X49707099Y82695334D01*
X49659480Y82790572D01*
X49611861Y82838191D01*
X49516623Y82885810D01*
X49326146Y82933429D01*
X49230908Y82981048D01*
X49183289Y83028667D01*
X49135670Y83123905D01*
X49135670Y83219143D01*
X49183289Y83314381D01*
X49230908Y83362000D01*
X49326146Y83409620D01*
X49564242Y83409620D01*
X49707099Y83362000D01*
X50040432Y83409620D02*
X50278527Y82409620D01*
X50469004Y83123905D01*
X50659480Y82409620D01*
X50897575Y83409620D01*
X51707099Y83076286D02*
X51707099Y82409620D01*
X51469004Y83457239D02*
X51230908Y82742953D01*
X51849956Y82742953D01*
X68185670Y82457239D02*
X68328527Y82409620D01*
X68566623Y82409620D01*
X68661861Y82457239D01*
X68709480Y82504858D01*
X68757099Y82600096D01*
X68757099Y82695334D01*
X68709480Y82790572D01*
X68661861Y82838191D01*
X68566623Y82885810D01*
X68376146Y82933429D01*
X68280908Y82981048D01*
X68233289Y83028667D01*
X68185670Y83123905D01*
X68185670Y83219143D01*
X68233289Y83314381D01*
X68280908Y83362000D01*
X68376146Y83409620D01*
X68614242Y83409620D01*
X68757099Y83362000D01*
X69090432Y83409620D02*
X69328527Y82409620D01*
X69519004Y83123905D01*
X69709480Y82409620D01*
X69947575Y83409620D01*
X70804718Y83409620D02*
X70328527Y83409620D01*
X70280908Y82933429D01*
X70328527Y82981048D01*
X70423765Y83028667D01*
X70661861Y83028667D01*
X70757099Y82981048D01*
X70804718Y82933429D01*
X70852337Y82838191D01*
X70852337Y82600096D01*
X70804718Y82504858D01*
X70757099Y82457239D01*
X70661861Y82409620D01*
X70423765Y82409620D01*
X70328527Y82457239D01*
X70280908Y82504858D01*
X87235670Y82457239D02*
X87378527Y82409620D01*
X87616623Y82409620D01*
X87711861Y82457239D01*
X87759480Y82504858D01*
X87807099Y82600096D01*
X87807099Y82695334D01*
X87759480Y82790572D01*
X87711861Y82838191D01*
X87616623Y82885810D01*
X87426146Y82933429D01*
X87330908Y82981048D01*
X87283289Y83028667D01*
X87235670Y83123905D01*
X87235670Y83219143D01*
X87283289Y83314381D01*
X87330908Y83362000D01*
X87426146Y83409620D01*
X87664242Y83409620D01*
X87807099Y83362000D01*
X88140432Y83409620D02*
X88378527Y82409620D01*
X88569004Y83123905D01*
X88759480Y82409620D01*
X88997575Y83409620D01*
X89807099Y83409620D02*
X89616623Y83409620D01*
X89521384Y83362000D01*
X89473765Y83314381D01*
X89378527Y83171524D01*
X89330908Y82981048D01*
X89330908Y82600096D01*
X89378527Y82504858D01*
X89426146Y82457239D01*
X89521384Y82409620D01*
X89711861Y82409620D01*
X89807099Y82457239D01*
X89854718Y82504858D01*
X89902337Y82600096D01*
X89902337Y82838191D01*
X89854718Y82933429D01*
X89807099Y82981048D01*
X89711861Y83028667D01*
X89521384Y83028667D01*
X89426146Y82981048D01*
X89378527Y82933429D01*
X89330908Y82838191D01*
X106285670Y82457239D02*
X106428527Y82409620D01*
X106666623Y82409620D01*
X106761861Y82457239D01*
X106809480Y82504858D01*
X106857099Y82600096D01*
X106857099Y82695334D01*
X106809480Y82790572D01*
X106761861Y82838191D01*
X106666623Y82885810D01*
X106476146Y82933429D01*
X106380908Y82981048D01*
X106333289Y83028667D01*
X106285670Y83123905D01*
X106285670Y83219143D01*
X106333289Y83314381D01*
X106380908Y83362000D01*
X106476146Y83409620D01*
X106714242Y83409620D01*
X106857099Y83362000D01*
X107190432Y83409620D02*
X107428527Y82409620D01*
X107619004Y83123905D01*
X107809480Y82409620D01*
X108047575Y83409620D01*
X108333289Y83409620D02*
X108999956Y83409620D01*
X108571384Y82409620D01*
X125335670Y82457239D02*
X125478527Y82409620D01*
X125716623Y82409620D01*
X125811861Y82457239D01*
X125859480Y82504858D01*
X125907099Y82600096D01*
X125907099Y82695334D01*
X125859480Y82790572D01*
X125811861Y82838191D01*
X125716623Y82885810D01*
X125526146Y82933429D01*
X125430908Y82981048D01*
X125383289Y83028667D01*
X125335670Y83123905D01*
X125335670Y83219143D01*
X125383289Y83314381D01*
X125430908Y83362000D01*
X125526146Y83409620D01*
X125764242Y83409620D01*
X125907099Y83362000D01*
X126240432Y83409620D02*
X126478527Y82409620D01*
X126669004Y83123905D01*
X126859480Y82409620D01*
X127097575Y83409620D01*
X127621384Y82981048D02*
X127526146Y83028667D01*
X127478527Y83076286D01*
X127430908Y83171524D01*
X127430908Y83219143D01*
X127478527Y83314381D01*
X127526146Y83362000D01*
X127621384Y83409620D01*
X127811861Y83409620D01*
X127907099Y83362000D01*
X127954718Y83314381D01*
X128002337Y83219143D01*
X128002337Y83171524D01*
X127954718Y83076286D01*
X127907099Y83028667D01*
X127811861Y82981048D01*
X127621384Y82981048D01*
X127526146Y82933429D01*
X127478527Y82885810D01*
X127430908Y82790572D01*
X127430908Y82600096D01*
X127478527Y82504858D01*
X127526146Y82457239D01*
X127621384Y82409620D01*
X127811861Y82409620D01*
X127907099Y82457239D01*
X127954718Y82504858D01*
X128002337Y82600096D01*
X128002337Y82790572D01*
X127954718Y82885810D01*
X127907099Y82933429D01*
X127811861Y82981048D01*
X144385670Y82457239D02*
X144528527Y82409620D01*
X144766623Y82409620D01*
X144861861Y82457239D01*
X144909480Y82504858D01*
X144957099Y82600096D01*
X144957099Y82695334D01*
X144909480Y82790572D01*
X144861861Y82838191D01*
X144766623Y82885810D01*
X144576146Y82933429D01*
X144480908Y82981048D01*
X144433289Y83028667D01*
X144385670Y83123905D01*
X144385670Y83219143D01*
X144433289Y83314381D01*
X144480908Y83362000D01*
X144576146Y83409620D01*
X144814242Y83409620D01*
X144957099Y83362000D01*
X145290432Y83409620D02*
X145528527Y82409620D01*
X145719004Y83123905D01*
X145909480Y82409620D01*
X146147575Y83409620D01*
X146576146Y82409620D02*
X146766623Y82409620D01*
X146861861Y82457239D01*
X146909480Y82504858D01*
X147004718Y82647715D01*
X147052337Y82838191D01*
X147052337Y83219143D01*
X147004718Y83314381D01*
X146957099Y83362000D01*
X146861861Y83409620D01*
X146671384Y83409620D01*
X146576146Y83362000D01*
X146528527Y83314381D01*
X146480908Y83219143D01*
X146480908Y82981048D01*
X146528527Y82885810D01*
X146576146Y82838191D01*
X146671384Y82790572D01*
X146861861Y82790572D01*
X146957099Y82838191D01*
X147004718Y82885810D01*
X147052337Y82981048D01*
X162959480Y82457239D02*
X163102337Y82409620D01*
X163340432Y82409620D01*
X163435670Y82457239D01*
X163483289Y82504858D01*
X163530908Y82600096D01*
X163530908Y82695334D01*
X163483289Y82790572D01*
X163435670Y82838191D01*
X163340432Y82885810D01*
X163149956Y82933429D01*
X163054718Y82981048D01*
X163007099Y83028667D01*
X162959480Y83123905D01*
X162959480Y83219143D01*
X163007099Y83314381D01*
X163054718Y83362000D01*
X163149956Y83409620D01*
X163388051Y83409620D01*
X163530908Y83362000D01*
X163864242Y83409620D02*
X164102337Y82409620D01*
X164292813Y83123905D01*
X164483289Y82409620D01*
X164721384Y83409620D01*
X165626146Y82409620D02*
X165054718Y82409620D01*
X165340432Y82409620D02*
X165340432Y83409620D01*
X165245194Y83266762D01*
X165149956Y83171524D01*
X165054718Y83123905D01*
X166245194Y83409620D02*
X166340432Y83409620D01*
X166435670Y83362000D01*
X166483289Y83314381D01*
X166530908Y83219143D01*
X166578527Y83028667D01*
X166578527Y82790572D01*
X166530908Y82600096D01*
X166483289Y82504858D01*
X166435670Y82457239D01*
X166340432Y82409620D01*
X166245194Y82409620D01*
X166149956Y82457239D01*
X166102337Y82504858D01*
X166054718Y82600096D01*
X166007099Y82790572D01*
X166007099Y83028667D01*
X166054718Y83219143D01*
X166102337Y83314381D01*
X166149956Y83362000D01*
X166245194Y83409620D01*
X182009480Y82457239D02*
X182152337Y82409620D01*
X182390432Y82409620D01*
X182485670Y82457239D01*
X182533289Y82504858D01*
X182580908Y82600096D01*
X182580908Y82695334D01*
X182533289Y82790572D01*
X182485670Y82838191D01*
X182390432Y82885810D01*
X182199956Y82933429D01*
X182104718Y82981048D01*
X182057099Y83028667D01*
X182009480Y83123905D01*
X182009480Y83219143D01*
X182057099Y83314381D01*
X182104718Y83362000D01*
X182199956Y83409620D01*
X182438051Y83409620D01*
X182580908Y83362000D01*
X182914242Y83409620D02*
X183152337Y82409620D01*
X183342813Y83123905D01*
X183533289Y82409620D01*
X183771384Y83409620D01*
X184676146Y82409620D02*
X184104718Y82409620D01*
X184390432Y82409620D02*
X184390432Y83409620D01*
X184295194Y83266762D01*
X184199956Y83171524D01*
X184104718Y83123905D01*
X185628527Y82409620D02*
X185057099Y82409620D01*
X185342813Y82409620D02*
X185342813Y83409620D01*
X185247575Y83266762D01*
X185152337Y83171524D01*
X185057099Y83123905D01*
X201059480Y82457239D02*
X201202337Y82409620D01*
X201440432Y82409620D01*
X201535670Y82457239D01*
X201583289Y82504858D01*
X201630908Y82600096D01*
X201630908Y82695334D01*
X201583289Y82790572D01*
X201535670Y82838191D01*
X201440432Y82885810D01*
X201249956Y82933429D01*
X201154718Y82981048D01*
X201107099Y83028667D01*
X201059480Y83123905D01*
X201059480Y83219143D01*
X201107099Y83314381D01*
X201154718Y83362000D01*
X201249956Y83409620D01*
X201488051Y83409620D01*
X201630908Y83362000D01*
X201964242Y83409620D02*
X202202337Y82409620D01*
X202392813Y83123905D01*
X202583289Y82409620D01*
X202821384Y83409620D01*
X203726146Y82409620D02*
X203154718Y82409620D01*
X203440432Y82409620D02*
X203440432Y83409620D01*
X203345194Y83266762D01*
X203249956Y83171524D01*
X203154718Y83123905D01*
X204107099Y83314381D02*
X204154718Y83362000D01*
X204249956Y83409620D01*
X204488051Y83409620D01*
X204583289Y83362000D01*
X204630908Y83314381D01*
X204678527Y83219143D01*
X204678527Y83123905D01*
X204630908Y82981048D01*
X204059480Y82409620D01*
X204678527Y82409620D01*
X220109480Y82457239D02*
X220252337Y82409620D01*
X220490432Y82409620D01*
X220585670Y82457239D01*
X220633289Y82504858D01*
X220680908Y82600096D01*
X220680908Y82695334D01*
X220633289Y82790572D01*
X220585670Y82838191D01*
X220490432Y82885810D01*
X220299956Y82933429D01*
X220204718Y82981048D01*
X220157099Y83028667D01*
X220109480Y83123905D01*
X220109480Y83219143D01*
X220157099Y83314381D01*
X220204718Y83362000D01*
X220299956Y83409620D01*
X220538051Y83409620D01*
X220680908Y83362000D01*
X221014242Y83409620D02*
X221252337Y82409620D01*
X221442813Y83123905D01*
X221633289Y82409620D01*
X221871384Y83409620D01*
X222776146Y82409620D02*
X222204718Y82409620D01*
X222490432Y82409620D02*
X222490432Y83409620D01*
X222395194Y83266762D01*
X222299956Y83171524D01*
X222204718Y83123905D01*
X223109480Y83409620D02*
X223728527Y83409620D01*
X223395194Y83028667D01*
X223538051Y83028667D01*
X223633289Y82981048D01*
X223680908Y82933429D01*
X223728527Y82838191D01*
X223728527Y82600096D01*
X223680908Y82504858D01*
X223633289Y82457239D01*
X223538051Y82409620D01*
X223252337Y82409620D01*
X223157099Y82457239D01*
X223109480Y82504858D01*
X239159480Y82457239D02*
X239302337Y82409620D01*
X239540432Y82409620D01*
X239635670Y82457239D01*
X239683289Y82504858D01*
X239730908Y82600096D01*
X239730908Y82695334D01*
X239683289Y82790572D01*
X239635670Y82838191D01*
X239540432Y82885810D01*
X239349956Y82933429D01*
X239254718Y82981048D01*
X239207099Y83028667D01*
X239159480Y83123905D01*
X239159480Y83219143D01*
X239207099Y83314381D01*
X239254718Y83362000D01*
X239349956Y83409620D01*
X239588051Y83409620D01*
X239730908Y83362000D01*
X240064242Y83409620D02*
X240302337Y82409620D01*
X240492813Y83123905D01*
X240683289Y82409620D01*
X240921384Y83409620D01*
X241826146Y82409620D02*
X241254718Y82409620D01*
X241540432Y82409620D02*
X241540432Y83409620D01*
X241445194Y83266762D01*
X241349956Y83171524D01*
X241254718Y83123905D01*
X242683289Y83076286D02*
X242683289Y82409620D01*
X242445194Y83457239D02*
X242207099Y82742953D01*
X242826146Y82742953D01*
X291546980Y82457239D02*
X291689837Y82409620D01*
X291927932Y82409620D01*
X292023170Y82457239D01*
X292070789Y82504858D01*
X292118408Y82600096D01*
X292118408Y82695334D01*
X292070789Y82790572D01*
X292023170Y82838191D01*
X291927932Y82885810D01*
X291737456Y82933429D01*
X291642218Y82981048D01*
X291594599Y83028667D01*
X291546980Y83123905D01*
X291546980Y83219143D01*
X291594599Y83314381D01*
X291642218Y83362000D01*
X291737456Y83409620D01*
X291975551Y83409620D01*
X292118408Y83362000D01*
X292451742Y83409620D02*
X292689837Y82409620D01*
X292880313Y83123905D01*
X293070789Y82409620D01*
X293308884Y83409620D01*
X294213646Y82409620D02*
X293642218Y82409620D01*
X293927932Y82409620D02*
X293927932Y83409620D01*
X293832694Y83266762D01*
X293737456Y83171524D01*
X293642218Y83123905D01*
X295070789Y83409620D02*
X294880313Y83409620D01*
X294785075Y83362000D01*
X294737456Y83314381D01*
X294642218Y83171524D01*
X294594599Y82981048D01*
X294594599Y82600096D01*
X294642218Y82504858D01*
X294689837Y82457239D01*
X294785075Y82409620D01*
X294975551Y82409620D01*
X295070789Y82457239D01*
X295118408Y82504858D01*
X295166027Y82600096D01*
X295166027Y82838191D01*
X295118408Y82933429D01*
X295070789Y82981048D01*
X294975551Y83028667D01*
X294785075Y83028667D01*
X294689837Y82981048D01*
X294642218Y82933429D01*
X294594599Y82838191D01*
X320121980Y82457239D02*
X320264837Y82409620D01*
X320502932Y82409620D01*
X320598170Y82457239D01*
X320645789Y82504858D01*
X320693408Y82600096D01*
X320693408Y82695334D01*
X320645789Y82790572D01*
X320598170Y82838191D01*
X320502932Y82885810D01*
X320312456Y82933429D01*
X320217218Y82981048D01*
X320169599Y83028667D01*
X320121980Y83123905D01*
X320121980Y83219143D01*
X320169599Y83314381D01*
X320217218Y83362000D01*
X320312456Y83409620D01*
X320550551Y83409620D01*
X320693408Y83362000D01*
X321026742Y83409620D02*
X321264837Y82409620D01*
X321455313Y83123905D01*
X321645789Y82409620D01*
X321883884Y83409620D01*
X322788646Y82409620D02*
X322217218Y82409620D01*
X322502932Y82409620D02*
X322502932Y83409620D01*
X322407694Y83266762D01*
X322312456Y83171524D01*
X322217218Y83123905D01*
X323121980Y83409620D02*
X323788646Y83409620D01*
X323360075Y82409620D01*
X39134480Y63407239D02*
X39277337Y63359620D01*
X39515432Y63359620D01*
X39610670Y63407239D01*
X39658289Y63454858D01*
X39705908Y63550096D01*
X39705908Y63645334D01*
X39658289Y63740572D01*
X39610670Y63788191D01*
X39515432Y63835810D01*
X39324956Y63883429D01*
X39229718Y63931048D01*
X39182099Y63978667D01*
X39134480Y64073905D01*
X39134480Y64169143D01*
X39182099Y64264381D01*
X39229718Y64312000D01*
X39324956Y64359620D01*
X39563051Y64359620D01*
X39705908Y64312000D01*
X40039242Y64359620D02*
X40277337Y63359620D01*
X40467813Y64073905D01*
X40658289Y63359620D01*
X40896384Y64359620D01*
X41801146Y63359620D02*
X41229718Y63359620D01*
X41515432Y63359620D02*
X41515432Y64359620D01*
X41420194Y64216762D01*
X41324956Y64121524D01*
X41229718Y64073905D01*
X42277337Y63359620D02*
X42467813Y63359620D01*
X42563051Y63407239D01*
X42610670Y63454858D01*
X42705908Y63597715D01*
X42753527Y63788191D01*
X42753527Y64169143D01*
X42705908Y64264381D01*
X42658289Y64312000D01*
X42563051Y64359620D01*
X42372575Y64359620D01*
X42277337Y64312000D01*
X42229718Y64264381D01*
X42182099Y64169143D01*
X42182099Y63931048D01*
X42229718Y63835810D01*
X42277337Y63788191D01*
X42372575Y63740572D01*
X42563051Y63740572D01*
X42658289Y63788191D01*
X42705908Y63835810D01*
X42753527Y63931048D01*
X58184480Y63407239D02*
X58327337Y63359620D01*
X58565432Y63359620D01*
X58660670Y63407239D01*
X58708289Y63454858D01*
X58755908Y63550096D01*
X58755908Y63645334D01*
X58708289Y63740572D01*
X58660670Y63788191D01*
X58565432Y63835810D01*
X58374956Y63883429D01*
X58279718Y63931048D01*
X58232099Y63978667D01*
X58184480Y64073905D01*
X58184480Y64169143D01*
X58232099Y64264381D01*
X58279718Y64312000D01*
X58374956Y64359620D01*
X58613051Y64359620D01*
X58755908Y64312000D01*
X59089242Y64359620D02*
X59327337Y63359620D01*
X59517813Y64073905D01*
X59708289Y63359620D01*
X59946384Y64359620D01*
X60279718Y64264381D02*
X60327337Y64312000D01*
X60422575Y64359620D01*
X60660670Y64359620D01*
X60755908Y64312000D01*
X60803527Y64264381D01*
X60851146Y64169143D01*
X60851146Y64073905D01*
X60803527Y63931048D01*
X60232099Y63359620D01*
X60851146Y63359620D01*
X61470194Y64359620D02*
X61565432Y64359620D01*
X61660670Y64312000D01*
X61708289Y64264381D01*
X61755908Y64169143D01*
X61803527Y63978667D01*
X61803527Y63740572D01*
X61755908Y63550096D01*
X61708289Y63454858D01*
X61660670Y63407239D01*
X61565432Y63359620D01*
X61470194Y63359620D01*
X61374956Y63407239D01*
X61327337Y63454858D01*
X61279718Y63550096D01*
X61232099Y63740572D01*
X61232099Y63978667D01*
X61279718Y64169143D01*
X61327337Y64264381D01*
X61374956Y64312000D01*
X61470194Y64359620D01*
X77234480Y63407239D02*
X77377337Y63359620D01*
X77615432Y63359620D01*
X77710670Y63407239D01*
X77758289Y63454858D01*
X77805908Y63550096D01*
X77805908Y63645334D01*
X77758289Y63740572D01*
X77710670Y63788191D01*
X77615432Y63835810D01*
X77424956Y63883429D01*
X77329718Y63931048D01*
X77282099Y63978667D01*
X77234480Y64073905D01*
X77234480Y64169143D01*
X77282099Y64264381D01*
X77329718Y64312000D01*
X77424956Y64359620D01*
X77663051Y64359620D01*
X77805908Y64312000D01*
X78139242Y64359620D02*
X78377337Y63359620D01*
X78567813Y64073905D01*
X78758289Y63359620D01*
X78996384Y64359620D01*
X79329718Y64264381D02*
X79377337Y64312000D01*
X79472575Y64359620D01*
X79710670Y64359620D01*
X79805908Y64312000D01*
X79853527Y64264381D01*
X79901146Y64169143D01*
X79901146Y64073905D01*
X79853527Y63931048D01*
X79282099Y63359620D01*
X79901146Y63359620D01*
X80853527Y63359620D02*
X80282099Y63359620D01*
X80567813Y63359620D02*
X80567813Y64359620D01*
X80472575Y64216762D01*
X80377337Y64121524D01*
X80282099Y64073905D01*
X96284480Y63407239D02*
X96427337Y63359620D01*
X96665432Y63359620D01*
X96760670Y63407239D01*
X96808289Y63454858D01*
X96855908Y63550096D01*
X96855908Y63645334D01*
X96808289Y63740572D01*
X96760670Y63788191D01*
X96665432Y63835810D01*
X96474956Y63883429D01*
X96379718Y63931048D01*
X96332099Y63978667D01*
X96284480Y64073905D01*
X96284480Y64169143D01*
X96332099Y64264381D01*
X96379718Y64312000D01*
X96474956Y64359620D01*
X96713051Y64359620D01*
X96855908Y64312000D01*
X97189242Y64359620D02*
X97427337Y63359620D01*
X97617813Y64073905D01*
X97808289Y63359620D01*
X98046384Y64359620D01*
X98379718Y64264381D02*
X98427337Y64312000D01*
X98522575Y64359620D01*
X98760670Y64359620D01*
X98855908Y64312000D01*
X98903527Y64264381D01*
X98951146Y64169143D01*
X98951146Y64073905D01*
X98903527Y63931048D01*
X98332099Y63359620D01*
X98951146Y63359620D01*
X99332099Y64264381D02*
X99379718Y64312000D01*
X99474956Y64359620D01*
X99713051Y64359620D01*
X99808289Y64312000D01*
X99855908Y64264381D01*
X99903527Y64169143D01*
X99903527Y64073905D01*
X99855908Y63931048D01*
X99284480Y63359620D01*
X99903527Y63359620D01*
X115334480Y63407239D02*
X115477337Y63359620D01*
X115715432Y63359620D01*
X115810670Y63407239D01*
X115858289Y63454858D01*
X115905908Y63550096D01*
X115905908Y63645334D01*
X115858289Y63740572D01*
X115810670Y63788191D01*
X115715432Y63835810D01*
X115524956Y63883429D01*
X115429718Y63931048D01*
X115382099Y63978667D01*
X115334480Y64073905D01*
X115334480Y64169143D01*
X115382099Y64264381D01*
X115429718Y64312000D01*
X115524956Y64359620D01*
X115763051Y64359620D01*
X115905908Y64312000D01*
X116239242Y64359620D02*
X116477337Y63359620D01*
X116667813Y64073905D01*
X116858289Y63359620D01*
X117096384Y64359620D01*
X117429718Y64264381D02*
X117477337Y64312000D01*
X117572575Y64359620D01*
X117810670Y64359620D01*
X117905908Y64312000D01*
X117953527Y64264381D01*
X118001146Y64169143D01*
X118001146Y64073905D01*
X117953527Y63931048D01*
X117382099Y63359620D01*
X118001146Y63359620D01*
X118334480Y64359620D02*
X118953527Y64359620D01*
X118620194Y63978667D01*
X118763051Y63978667D01*
X118858289Y63931048D01*
X118905908Y63883429D01*
X118953527Y63788191D01*
X118953527Y63550096D01*
X118905908Y63454858D01*
X118858289Y63407239D01*
X118763051Y63359620D01*
X118477337Y63359620D01*
X118382099Y63407239D01*
X118334480Y63454858D01*
X134384480Y63407239D02*
X134527337Y63359620D01*
X134765432Y63359620D01*
X134860670Y63407239D01*
X134908289Y63454858D01*
X134955908Y63550096D01*
X134955908Y63645334D01*
X134908289Y63740572D01*
X134860670Y63788191D01*
X134765432Y63835810D01*
X134574956Y63883429D01*
X134479718Y63931048D01*
X134432099Y63978667D01*
X134384480Y64073905D01*
X134384480Y64169143D01*
X134432099Y64264381D01*
X134479718Y64312000D01*
X134574956Y64359620D01*
X134813051Y64359620D01*
X134955908Y64312000D01*
X135289242Y64359620D02*
X135527337Y63359620D01*
X135717813Y64073905D01*
X135908289Y63359620D01*
X136146384Y64359620D01*
X136479718Y64264381D02*
X136527337Y64312000D01*
X136622575Y64359620D01*
X136860670Y64359620D01*
X136955908Y64312000D01*
X137003527Y64264381D01*
X137051146Y64169143D01*
X137051146Y64073905D01*
X137003527Y63931048D01*
X136432099Y63359620D01*
X137051146Y63359620D01*
X137908289Y64026286D02*
X137908289Y63359620D01*
X137670194Y64407239D02*
X137432099Y63692953D01*
X138051146Y63692953D01*
X153434480Y63407239D02*
X153577337Y63359620D01*
X153815432Y63359620D01*
X153910670Y63407239D01*
X153958289Y63454858D01*
X154005908Y63550096D01*
X154005908Y63645334D01*
X153958289Y63740572D01*
X153910670Y63788191D01*
X153815432Y63835810D01*
X153624956Y63883429D01*
X153529718Y63931048D01*
X153482099Y63978667D01*
X153434480Y64073905D01*
X153434480Y64169143D01*
X153482099Y64264381D01*
X153529718Y64312000D01*
X153624956Y64359620D01*
X153863051Y64359620D01*
X154005908Y64312000D01*
X154339242Y64359620D02*
X154577337Y63359620D01*
X154767813Y64073905D01*
X154958289Y63359620D01*
X155196384Y64359620D01*
X155529718Y64264381D02*
X155577337Y64312000D01*
X155672575Y64359620D01*
X155910670Y64359620D01*
X156005908Y64312000D01*
X156053527Y64264381D01*
X156101146Y64169143D01*
X156101146Y64073905D01*
X156053527Y63931048D01*
X155482099Y63359620D01*
X156101146Y63359620D01*
X157005908Y64359620D02*
X156529718Y64359620D01*
X156482099Y63883429D01*
X156529718Y63931048D01*
X156624956Y63978667D01*
X156863051Y63978667D01*
X156958289Y63931048D01*
X157005908Y63883429D01*
X157053527Y63788191D01*
X157053527Y63550096D01*
X157005908Y63454858D01*
X156958289Y63407239D01*
X156863051Y63359620D01*
X156624956Y63359620D01*
X156529718Y63407239D01*
X156482099Y63454858D01*
X172484480Y63407239D02*
X172627337Y63359620D01*
X172865432Y63359620D01*
X172960670Y63407239D01*
X173008289Y63454858D01*
X173055908Y63550096D01*
X173055908Y63645334D01*
X173008289Y63740572D01*
X172960670Y63788191D01*
X172865432Y63835810D01*
X172674956Y63883429D01*
X172579718Y63931048D01*
X172532099Y63978667D01*
X172484480Y64073905D01*
X172484480Y64169143D01*
X172532099Y64264381D01*
X172579718Y64312000D01*
X172674956Y64359620D01*
X172913051Y64359620D01*
X173055908Y64312000D01*
X173389242Y64359620D02*
X173627337Y63359620D01*
X173817813Y64073905D01*
X174008289Y63359620D01*
X174246384Y64359620D01*
X174579718Y64264381D02*
X174627337Y64312000D01*
X174722575Y64359620D01*
X174960670Y64359620D01*
X175055908Y64312000D01*
X175103527Y64264381D01*
X175151146Y64169143D01*
X175151146Y64073905D01*
X175103527Y63931048D01*
X174532099Y63359620D01*
X175151146Y63359620D01*
X176008289Y64359620D02*
X175817813Y64359620D01*
X175722575Y64312000D01*
X175674956Y64264381D01*
X175579718Y64121524D01*
X175532099Y63931048D01*
X175532099Y63550096D01*
X175579718Y63454858D01*
X175627337Y63407239D01*
X175722575Y63359620D01*
X175913051Y63359620D01*
X176008289Y63407239D01*
X176055908Y63454858D01*
X176103527Y63550096D01*
X176103527Y63788191D01*
X176055908Y63883429D01*
X176008289Y63931048D01*
X175913051Y63978667D01*
X175722575Y63978667D01*
X175627337Y63931048D01*
X175579718Y63883429D01*
X175532099Y63788191D01*
X191534480Y63407239D02*
X191677337Y63359620D01*
X191915432Y63359620D01*
X192010670Y63407239D01*
X192058289Y63454858D01*
X192105908Y63550096D01*
X192105908Y63645334D01*
X192058289Y63740572D01*
X192010670Y63788191D01*
X191915432Y63835810D01*
X191724956Y63883429D01*
X191629718Y63931048D01*
X191582099Y63978667D01*
X191534480Y64073905D01*
X191534480Y64169143D01*
X191582099Y64264381D01*
X191629718Y64312000D01*
X191724956Y64359620D01*
X191963051Y64359620D01*
X192105908Y64312000D01*
X192439242Y64359620D02*
X192677337Y63359620D01*
X192867813Y64073905D01*
X193058289Y63359620D01*
X193296384Y64359620D01*
X193629718Y64264381D02*
X193677337Y64312000D01*
X193772575Y64359620D01*
X194010670Y64359620D01*
X194105908Y64312000D01*
X194153527Y64264381D01*
X194201146Y64169143D01*
X194201146Y64073905D01*
X194153527Y63931048D01*
X193582099Y63359620D01*
X194201146Y63359620D01*
X194534480Y64359620D02*
X195201146Y64359620D01*
X194772575Y63359620D01*
X210584480Y63407239D02*
X210727337Y63359620D01*
X210965432Y63359620D01*
X211060670Y63407239D01*
X211108289Y63454858D01*
X211155908Y63550096D01*
X211155908Y63645334D01*
X211108289Y63740572D01*
X211060670Y63788191D01*
X210965432Y63835810D01*
X210774956Y63883429D01*
X210679718Y63931048D01*
X210632099Y63978667D01*
X210584480Y64073905D01*
X210584480Y64169143D01*
X210632099Y64264381D01*
X210679718Y64312000D01*
X210774956Y64359620D01*
X211013051Y64359620D01*
X211155908Y64312000D01*
X211489242Y64359620D02*
X211727337Y63359620D01*
X211917813Y64073905D01*
X212108289Y63359620D01*
X212346384Y64359620D01*
X212679718Y64264381D02*
X212727337Y64312000D01*
X212822575Y64359620D01*
X213060670Y64359620D01*
X213155908Y64312000D01*
X213203527Y64264381D01*
X213251146Y64169143D01*
X213251146Y64073905D01*
X213203527Y63931048D01*
X212632099Y63359620D01*
X213251146Y63359620D01*
X213822575Y63931048D02*
X213727337Y63978667D01*
X213679718Y64026286D01*
X213632099Y64121524D01*
X213632099Y64169143D01*
X213679718Y64264381D01*
X213727337Y64312000D01*
X213822575Y64359620D01*
X214013051Y64359620D01*
X214108289Y64312000D01*
X214155908Y64264381D01*
X214203527Y64169143D01*
X214203527Y64121524D01*
X214155908Y64026286D01*
X214108289Y63978667D01*
X214013051Y63931048D01*
X213822575Y63931048D01*
X213727337Y63883429D01*
X213679718Y63835810D01*
X213632099Y63740572D01*
X213632099Y63550096D01*
X213679718Y63454858D01*
X213727337Y63407239D01*
X213822575Y63359620D01*
X214013051Y63359620D01*
X214108289Y63407239D01*
X214155908Y63454858D01*
X214203527Y63550096D01*
X214203527Y63740572D01*
X214155908Y63835810D01*
X214108289Y63883429D01*
X214013051Y63931048D01*
X229634480Y63407239D02*
X229777337Y63359620D01*
X230015432Y63359620D01*
X230110670Y63407239D01*
X230158289Y63454858D01*
X230205908Y63550096D01*
X230205908Y63645334D01*
X230158289Y63740572D01*
X230110670Y63788191D01*
X230015432Y63835810D01*
X229824956Y63883429D01*
X229729718Y63931048D01*
X229682099Y63978667D01*
X229634480Y64073905D01*
X229634480Y64169143D01*
X229682099Y64264381D01*
X229729718Y64312000D01*
X229824956Y64359620D01*
X230063051Y64359620D01*
X230205908Y64312000D01*
X230539242Y64359620D02*
X230777337Y63359620D01*
X230967813Y64073905D01*
X231158289Y63359620D01*
X231396384Y64359620D01*
X231729718Y64264381D02*
X231777337Y64312000D01*
X231872575Y64359620D01*
X232110670Y64359620D01*
X232205908Y64312000D01*
X232253527Y64264381D01*
X232301146Y64169143D01*
X232301146Y64073905D01*
X232253527Y63931048D01*
X231682099Y63359620D01*
X232301146Y63359620D01*
X232777337Y63359620D02*
X232967813Y63359620D01*
X233063051Y63407239D01*
X233110670Y63454858D01*
X233205908Y63597715D01*
X233253527Y63788191D01*
X233253527Y64169143D01*
X233205908Y64264381D01*
X233158289Y64312000D01*
X233063051Y64359620D01*
X232872575Y64359620D01*
X232777337Y64312000D01*
X232729718Y64264381D01*
X232682099Y64169143D01*
X232682099Y63931048D01*
X232729718Y63835810D01*
X232777337Y63788191D01*
X232872575Y63740572D01*
X233063051Y63740572D01*
X233158289Y63788191D01*
X233205908Y63835810D01*
X233253527Y63931048D01*
X248684480Y63407239D02*
X248827337Y63359620D01*
X249065432Y63359620D01*
X249160670Y63407239D01*
X249208289Y63454858D01*
X249255908Y63550096D01*
X249255908Y63645334D01*
X249208289Y63740572D01*
X249160670Y63788191D01*
X249065432Y63835810D01*
X248874956Y63883429D01*
X248779718Y63931048D01*
X248732099Y63978667D01*
X248684480Y64073905D01*
X248684480Y64169143D01*
X248732099Y64264381D01*
X248779718Y64312000D01*
X248874956Y64359620D01*
X249113051Y64359620D01*
X249255908Y64312000D01*
X249589242Y64359620D02*
X249827337Y63359620D01*
X250017813Y64073905D01*
X250208289Y63359620D01*
X250446384Y64359620D01*
X250732099Y64359620D02*
X251351146Y64359620D01*
X251017813Y63978667D01*
X251160670Y63978667D01*
X251255908Y63931048D01*
X251303527Y63883429D01*
X251351146Y63788191D01*
X251351146Y63550096D01*
X251303527Y63454858D01*
X251255908Y63407239D01*
X251160670Y63359620D01*
X250874956Y63359620D01*
X250779718Y63407239D01*
X250732099Y63454858D01*
X251970194Y64359620D02*
X252065432Y64359620D01*
X252160670Y64312000D01*
X252208289Y64264381D01*
X252255908Y64169143D01*
X252303527Y63978667D01*
X252303527Y63740572D01*
X252255908Y63550096D01*
X252208289Y63454858D01*
X252160670Y63407239D01*
X252065432Y63359620D01*
X251970194Y63359620D01*
X251874956Y63407239D01*
X251827337Y63454858D01*
X251779718Y63550096D01*
X251732099Y63740572D01*
X251732099Y63978667D01*
X251779718Y64169143D01*
X251827337Y64264381D01*
X251874956Y64312000D01*
X251970194Y64359620D01*
X267734480Y63407239D02*
X267877337Y63359620D01*
X268115432Y63359620D01*
X268210670Y63407239D01*
X268258289Y63454858D01*
X268305908Y63550096D01*
X268305908Y63645334D01*
X268258289Y63740572D01*
X268210670Y63788191D01*
X268115432Y63835810D01*
X267924956Y63883429D01*
X267829718Y63931048D01*
X267782099Y63978667D01*
X267734480Y64073905D01*
X267734480Y64169143D01*
X267782099Y64264381D01*
X267829718Y64312000D01*
X267924956Y64359620D01*
X268163051Y64359620D01*
X268305908Y64312000D01*
X268639242Y64359620D02*
X268877337Y63359620D01*
X269067813Y64073905D01*
X269258289Y63359620D01*
X269496384Y64359620D01*
X269782099Y64359620D02*
X270401146Y64359620D01*
X270067813Y63978667D01*
X270210670Y63978667D01*
X270305908Y63931048D01*
X270353527Y63883429D01*
X270401146Y63788191D01*
X270401146Y63550096D01*
X270353527Y63454858D01*
X270305908Y63407239D01*
X270210670Y63359620D01*
X269924956Y63359620D01*
X269829718Y63407239D01*
X269782099Y63454858D01*
X271353527Y63359620D02*
X270782099Y63359620D01*
X271067813Y63359620D02*
X271067813Y64359620D01*
X270972575Y64216762D01*
X270877337Y64121524D01*
X270782099Y64073905D01*
X286784480Y63407239D02*
X286927337Y63359620D01*
X287165432Y63359620D01*
X287260670Y63407239D01*
X287308289Y63454858D01*
X287355908Y63550096D01*
X287355908Y63645334D01*
X287308289Y63740572D01*
X287260670Y63788191D01*
X287165432Y63835810D01*
X286974956Y63883429D01*
X286879718Y63931048D01*
X286832099Y63978667D01*
X286784480Y64073905D01*
X286784480Y64169143D01*
X286832099Y64264381D01*
X286879718Y64312000D01*
X286974956Y64359620D01*
X287213051Y64359620D01*
X287355908Y64312000D01*
X287689242Y64359620D02*
X287927337Y63359620D01*
X288117813Y64073905D01*
X288308289Y63359620D01*
X288546384Y64359620D01*
X288832099Y64359620D02*
X289451146Y64359620D01*
X289117813Y63978667D01*
X289260670Y63978667D01*
X289355908Y63931048D01*
X289403527Y63883429D01*
X289451146Y63788191D01*
X289451146Y63550096D01*
X289403527Y63454858D01*
X289355908Y63407239D01*
X289260670Y63359620D01*
X288974956Y63359620D01*
X288879718Y63407239D01*
X288832099Y63454858D01*
X289832099Y64264381D02*
X289879718Y64312000D01*
X289974956Y64359620D01*
X290213051Y64359620D01*
X290308289Y64312000D01*
X290355908Y64264381D01*
X290403527Y64169143D01*
X290403527Y64073905D01*
X290355908Y63931048D01*
X289784480Y63359620D01*
X290403527Y63359620D01*
X305834480Y63407239D02*
X305977337Y63359620D01*
X306215432Y63359620D01*
X306310670Y63407239D01*
X306358289Y63454858D01*
X306405908Y63550096D01*
X306405908Y63645334D01*
X306358289Y63740572D01*
X306310670Y63788191D01*
X306215432Y63835810D01*
X306024956Y63883429D01*
X305929718Y63931048D01*
X305882099Y63978667D01*
X305834480Y64073905D01*
X305834480Y64169143D01*
X305882099Y64264381D01*
X305929718Y64312000D01*
X306024956Y64359620D01*
X306263051Y64359620D01*
X306405908Y64312000D01*
X306739242Y64359620D02*
X306977337Y63359620D01*
X307167813Y64073905D01*
X307358289Y63359620D01*
X307596384Y64359620D01*
X307882099Y64359620D02*
X308501146Y64359620D01*
X308167813Y63978667D01*
X308310670Y63978667D01*
X308405908Y63931048D01*
X308453527Y63883429D01*
X308501146Y63788191D01*
X308501146Y63550096D01*
X308453527Y63454858D01*
X308405908Y63407239D01*
X308310670Y63359620D01*
X308024956Y63359620D01*
X307929718Y63407239D01*
X307882099Y63454858D01*
X308834480Y64359620D02*
X309453527Y64359620D01*
X309120194Y63978667D01*
X309263051Y63978667D01*
X309358289Y63931048D01*
X309405908Y63883429D01*
X309453527Y63788191D01*
X309453527Y63550096D01*
X309405908Y63454858D01*
X309358289Y63407239D01*
X309263051Y63359620D01*
X308977337Y63359620D01*
X308882099Y63407239D01*
X308834480Y63454858D01*
X324884480Y63407239D02*
X325027337Y63359620D01*
X325265432Y63359620D01*
X325360670Y63407239D01*
X325408289Y63454858D01*
X325455908Y63550096D01*
X325455908Y63645334D01*
X325408289Y63740572D01*
X325360670Y63788191D01*
X325265432Y63835810D01*
X325074956Y63883429D01*
X324979718Y63931048D01*
X324932099Y63978667D01*
X324884480Y64073905D01*
X324884480Y64169143D01*
X324932099Y64264381D01*
X324979718Y64312000D01*
X325074956Y64359620D01*
X325313051Y64359620D01*
X325455908Y64312000D01*
X325789242Y64359620D02*
X326027337Y63359620D01*
X326217813Y64073905D01*
X326408289Y63359620D01*
X326646384Y64359620D01*
X326932099Y64359620D02*
X327551146Y64359620D01*
X327217813Y63978667D01*
X327360670Y63978667D01*
X327455908Y63931048D01*
X327503527Y63883429D01*
X327551146Y63788191D01*
X327551146Y63550096D01*
X327503527Y63454858D01*
X327455908Y63407239D01*
X327360670Y63359620D01*
X327074956Y63359620D01*
X326979718Y63407239D01*
X326932099Y63454858D01*
X328408289Y64026286D02*
X328408289Y63359620D01*
X328170194Y64407239D02*
X327932099Y63692953D01*
X328551146Y63692953D01*
X43896980Y44357239D02*
X44039837Y44309620D01*
X44277932Y44309620D01*
X44373170Y44357239D01*
X44420789Y44404858D01*
X44468408Y44500096D01*
X44468408Y44595334D01*
X44420789Y44690572D01*
X44373170Y44738191D01*
X44277932Y44785810D01*
X44087456Y44833429D01*
X43992218Y44881048D01*
X43944599Y44928667D01*
X43896980Y45023905D01*
X43896980Y45119143D01*
X43944599Y45214381D01*
X43992218Y45262000D01*
X44087456Y45309620D01*
X44325551Y45309620D01*
X44468408Y45262000D01*
X44801742Y45309620D02*
X45039837Y44309620D01*
X45230313Y45023905D01*
X45420789Y44309620D01*
X45658884Y45309620D01*
X45944599Y45309620D02*
X46563646Y45309620D01*
X46230313Y44928667D01*
X46373170Y44928667D01*
X46468408Y44881048D01*
X46516027Y44833429D01*
X46563646Y44738191D01*
X46563646Y44500096D01*
X46516027Y44404858D01*
X46468408Y44357239D01*
X46373170Y44309620D01*
X46087456Y44309620D01*
X45992218Y44357239D01*
X45944599Y44404858D01*
X47420789Y45309620D02*
X47230313Y45309620D01*
X47135075Y45262000D01*
X47087456Y45214381D01*
X46992218Y45071524D01*
X46944599Y44881048D01*
X46944599Y44500096D01*
X46992218Y44404858D01*
X47039837Y44357239D01*
X47135075Y44309620D01*
X47325551Y44309620D01*
X47420789Y44357239D01*
X47468408Y44404858D01*
X47516027Y44500096D01*
X47516027Y44738191D01*
X47468408Y44833429D01*
X47420789Y44881048D01*
X47325551Y44928667D01*
X47135075Y44928667D01*
X47039837Y44881048D01*
X46992218Y44833429D01*
X46944599Y44738191D01*
X62946980Y44357239D02*
X63089837Y44309620D01*
X63327932Y44309620D01*
X63423170Y44357239D01*
X63470789Y44404858D01*
X63518408Y44500096D01*
X63518408Y44595334D01*
X63470789Y44690572D01*
X63423170Y44738191D01*
X63327932Y44785810D01*
X63137456Y44833429D01*
X63042218Y44881048D01*
X62994599Y44928667D01*
X62946980Y45023905D01*
X62946980Y45119143D01*
X62994599Y45214381D01*
X63042218Y45262000D01*
X63137456Y45309620D01*
X63375551Y45309620D01*
X63518408Y45262000D01*
X63851742Y45309620D02*
X64089837Y44309620D01*
X64280313Y45023905D01*
X64470789Y44309620D01*
X64708884Y45309620D01*
X64994599Y45309620D02*
X65613646Y45309620D01*
X65280313Y44928667D01*
X65423170Y44928667D01*
X65518408Y44881048D01*
X65566027Y44833429D01*
X65613646Y44738191D01*
X65613646Y44500096D01*
X65566027Y44404858D01*
X65518408Y44357239D01*
X65423170Y44309620D01*
X65137456Y44309620D01*
X65042218Y44357239D01*
X64994599Y44404858D01*
X65946980Y45309620D02*
X66613646Y45309620D01*
X66185075Y44309620D01*
X81996980Y44357239D02*
X82139837Y44309620D01*
X82377932Y44309620D01*
X82473170Y44357239D01*
X82520789Y44404858D01*
X82568408Y44500096D01*
X82568408Y44595334D01*
X82520789Y44690572D01*
X82473170Y44738191D01*
X82377932Y44785810D01*
X82187456Y44833429D01*
X82092218Y44881048D01*
X82044599Y44928667D01*
X81996980Y45023905D01*
X81996980Y45119143D01*
X82044599Y45214381D01*
X82092218Y45262000D01*
X82187456Y45309620D01*
X82425551Y45309620D01*
X82568408Y45262000D01*
X82901742Y45309620D02*
X83139837Y44309620D01*
X83330313Y45023905D01*
X83520789Y44309620D01*
X83758884Y45309620D01*
X84044599Y45309620D02*
X84663646Y45309620D01*
X84330313Y44928667D01*
X84473170Y44928667D01*
X84568408Y44881048D01*
X84616027Y44833429D01*
X84663646Y44738191D01*
X84663646Y44500096D01*
X84616027Y44404858D01*
X84568408Y44357239D01*
X84473170Y44309620D01*
X84187456Y44309620D01*
X84092218Y44357239D01*
X84044599Y44404858D01*
X85235075Y44881048D02*
X85139837Y44928667D01*
X85092218Y44976286D01*
X85044599Y45071524D01*
X85044599Y45119143D01*
X85092218Y45214381D01*
X85139837Y45262000D01*
X85235075Y45309620D01*
X85425551Y45309620D01*
X85520789Y45262000D01*
X85568408Y45214381D01*
X85616027Y45119143D01*
X85616027Y45071524D01*
X85568408Y44976286D01*
X85520789Y44928667D01*
X85425551Y44881048D01*
X85235075Y44881048D01*
X85139837Y44833429D01*
X85092218Y44785810D01*
X85044599Y44690572D01*
X85044599Y44500096D01*
X85092218Y44404858D01*
X85139837Y44357239D01*
X85235075Y44309620D01*
X85425551Y44309620D01*
X85520789Y44357239D01*
X85568408Y44404858D01*
X85616027Y44500096D01*
X85616027Y44690572D01*
X85568408Y44785810D01*
X85520789Y44833429D01*
X85425551Y44881048D01*
X101046980Y44357239D02*
X101189837Y44309620D01*
X101427932Y44309620D01*
X101523170Y44357239D01*
X101570789Y44404858D01*
X101618408Y44500096D01*
X101618408Y44595334D01*
X101570789Y44690572D01*
X101523170Y44738191D01*
X101427932Y44785810D01*
X101237456Y44833429D01*
X101142218Y44881048D01*
X101094599Y44928667D01*
X101046980Y45023905D01*
X101046980Y45119143D01*
X101094599Y45214381D01*
X101142218Y45262000D01*
X101237456Y45309620D01*
X101475551Y45309620D01*
X101618408Y45262000D01*
X101951742Y45309620D02*
X102189837Y44309620D01*
X102380313Y45023905D01*
X102570789Y44309620D01*
X102808884Y45309620D01*
X103094599Y45309620D02*
X103713646Y45309620D01*
X103380313Y44928667D01*
X103523170Y44928667D01*
X103618408Y44881048D01*
X103666027Y44833429D01*
X103713646Y44738191D01*
X103713646Y44500096D01*
X103666027Y44404858D01*
X103618408Y44357239D01*
X103523170Y44309620D01*
X103237456Y44309620D01*
X103142218Y44357239D01*
X103094599Y44404858D01*
X104189837Y44309620D02*
X104380313Y44309620D01*
X104475551Y44357239D01*
X104523170Y44404858D01*
X104618408Y44547715D01*
X104666027Y44738191D01*
X104666027Y45119143D01*
X104618408Y45214381D01*
X104570789Y45262000D01*
X104475551Y45309620D01*
X104285075Y45309620D01*
X104189837Y45262000D01*
X104142218Y45214381D01*
X104094599Y45119143D01*
X104094599Y44881048D01*
X104142218Y44785810D01*
X104189837Y44738191D01*
X104285075Y44690572D01*
X104475551Y44690572D01*
X104570789Y44738191D01*
X104618408Y44785810D01*
X104666027Y44881048D01*
X120096980Y44357239D02*
X120239837Y44309620D01*
X120477932Y44309620D01*
X120573170Y44357239D01*
X120620789Y44404858D01*
X120668408Y44500096D01*
X120668408Y44595334D01*
X120620789Y44690572D01*
X120573170Y44738191D01*
X120477932Y44785810D01*
X120287456Y44833429D01*
X120192218Y44881048D01*
X120144599Y44928667D01*
X120096980Y45023905D01*
X120096980Y45119143D01*
X120144599Y45214381D01*
X120192218Y45262000D01*
X120287456Y45309620D01*
X120525551Y45309620D01*
X120668408Y45262000D01*
X121001742Y45309620D02*
X121239837Y44309620D01*
X121430313Y45023905D01*
X121620789Y44309620D01*
X121858884Y45309620D01*
X122668408Y44976286D02*
X122668408Y44309620D01*
X122430313Y45357239D02*
X122192218Y44642953D01*
X122811265Y44642953D01*
X123382694Y45309620D02*
X123477932Y45309620D01*
X123573170Y45262000D01*
X123620789Y45214381D01*
X123668408Y45119143D01*
X123716027Y44928667D01*
X123716027Y44690572D01*
X123668408Y44500096D01*
X123620789Y44404858D01*
X123573170Y44357239D01*
X123477932Y44309620D01*
X123382694Y44309620D01*
X123287456Y44357239D01*
X123239837Y44404858D01*
X123192218Y44500096D01*
X123144599Y44690572D01*
X123144599Y44928667D01*
X123192218Y45119143D01*
X123239837Y45214381D01*
X123287456Y45262000D01*
X123382694Y45309620D01*
X139146980Y44357239D02*
X139289837Y44309620D01*
X139527932Y44309620D01*
X139623170Y44357239D01*
X139670789Y44404858D01*
X139718408Y44500096D01*
X139718408Y44595334D01*
X139670789Y44690572D01*
X139623170Y44738191D01*
X139527932Y44785810D01*
X139337456Y44833429D01*
X139242218Y44881048D01*
X139194599Y44928667D01*
X139146980Y45023905D01*
X139146980Y45119143D01*
X139194599Y45214381D01*
X139242218Y45262000D01*
X139337456Y45309620D01*
X139575551Y45309620D01*
X139718408Y45262000D01*
X140051742Y45309620D02*
X140289837Y44309620D01*
X140480313Y45023905D01*
X140670789Y44309620D01*
X140908884Y45309620D01*
X141718408Y44976286D02*
X141718408Y44309620D01*
X141480313Y45357239D02*
X141242218Y44642953D01*
X141861265Y44642953D01*
X142766027Y44309620D02*
X142194599Y44309620D01*
X142480313Y44309620D02*
X142480313Y45309620D01*
X142385075Y45166762D01*
X142289837Y45071524D01*
X142194599Y45023905D01*
X158196980Y44357239D02*
X158339837Y44309620D01*
X158577932Y44309620D01*
X158673170Y44357239D01*
X158720789Y44404858D01*
X158768408Y44500096D01*
X158768408Y44595334D01*
X158720789Y44690572D01*
X158673170Y44738191D01*
X158577932Y44785810D01*
X158387456Y44833429D01*
X158292218Y44881048D01*
X158244599Y44928667D01*
X158196980Y45023905D01*
X158196980Y45119143D01*
X158244599Y45214381D01*
X158292218Y45262000D01*
X158387456Y45309620D01*
X158625551Y45309620D01*
X158768408Y45262000D01*
X159101742Y45309620D02*
X159339837Y44309620D01*
X159530313Y45023905D01*
X159720789Y44309620D01*
X159958884Y45309620D01*
X160768408Y44976286D02*
X160768408Y44309620D01*
X160530313Y45357239D02*
X160292218Y44642953D01*
X160911265Y44642953D01*
X161244599Y45214381D02*
X161292218Y45262000D01*
X161387456Y45309620D01*
X161625551Y45309620D01*
X161720789Y45262000D01*
X161768408Y45214381D01*
X161816027Y45119143D01*
X161816027Y45023905D01*
X161768408Y44881048D01*
X161196980Y44309620D01*
X161816027Y44309620D01*
X177246980Y44357239D02*
X177389837Y44309620D01*
X177627932Y44309620D01*
X177723170Y44357239D01*
X177770789Y44404858D01*
X177818408Y44500096D01*
X177818408Y44595334D01*
X177770789Y44690572D01*
X177723170Y44738191D01*
X177627932Y44785810D01*
X177437456Y44833429D01*
X177342218Y44881048D01*
X177294599Y44928667D01*
X177246980Y45023905D01*
X177246980Y45119143D01*
X177294599Y45214381D01*
X177342218Y45262000D01*
X177437456Y45309620D01*
X177675551Y45309620D01*
X177818408Y45262000D01*
X178151742Y45309620D02*
X178389837Y44309620D01*
X178580313Y45023905D01*
X178770789Y44309620D01*
X179008884Y45309620D01*
X179818408Y44976286D02*
X179818408Y44309620D01*
X179580313Y45357239D02*
X179342218Y44642953D01*
X179961265Y44642953D01*
X180246980Y45309620D02*
X180866027Y45309620D01*
X180532694Y44928667D01*
X180675551Y44928667D01*
X180770789Y44881048D01*
X180818408Y44833429D01*
X180866027Y44738191D01*
X180866027Y44500096D01*
X180818408Y44404858D01*
X180770789Y44357239D01*
X180675551Y44309620D01*
X180389837Y44309620D01*
X180294599Y44357239D01*
X180246980Y44404858D01*
X196296980Y44357239D02*
X196439837Y44309620D01*
X196677932Y44309620D01*
X196773170Y44357239D01*
X196820789Y44404858D01*
X196868408Y44500096D01*
X196868408Y44595334D01*
X196820789Y44690572D01*
X196773170Y44738191D01*
X196677932Y44785810D01*
X196487456Y44833429D01*
X196392218Y44881048D01*
X196344599Y44928667D01*
X196296980Y45023905D01*
X196296980Y45119143D01*
X196344599Y45214381D01*
X196392218Y45262000D01*
X196487456Y45309620D01*
X196725551Y45309620D01*
X196868408Y45262000D01*
X197201742Y45309620D02*
X197439837Y44309620D01*
X197630313Y45023905D01*
X197820789Y44309620D01*
X198058884Y45309620D01*
X198868408Y44976286D02*
X198868408Y44309620D01*
X198630313Y45357239D02*
X198392218Y44642953D01*
X199011265Y44642953D01*
X199820789Y44976286D02*
X199820789Y44309620D01*
X199582694Y45357239D02*
X199344599Y44642953D01*
X199963646Y44642953D01*
X215346980Y44357239D02*
X215489837Y44309620D01*
X215727932Y44309620D01*
X215823170Y44357239D01*
X215870789Y44404858D01*
X215918408Y44500096D01*
X215918408Y44595334D01*
X215870789Y44690572D01*
X215823170Y44738191D01*
X215727932Y44785810D01*
X215537456Y44833429D01*
X215442218Y44881048D01*
X215394599Y44928667D01*
X215346980Y45023905D01*
X215346980Y45119143D01*
X215394599Y45214381D01*
X215442218Y45262000D01*
X215537456Y45309620D01*
X215775551Y45309620D01*
X215918408Y45262000D01*
X216251742Y45309620D02*
X216489837Y44309620D01*
X216680313Y45023905D01*
X216870789Y44309620D01*
X217108884Y45309620D01*
X217918408Y44976286D02*
X217918408Y44309620D01*
X217680313Y45357239D02*
X217442218Y44642953D01*
X218061265Y44642953D01*
X218918408Y45309620D02*
X218442218Y45309620D01*
X218394599Y44833429D01*
X218442218Y44881048D01*
X218537456Y44928667D01*
X218775551Y44928667D01*
X218870789Y44881048D01*
X218918408Y44833429D01*
X218966027Y44738191D01*
X218966027Y44500096D01*
X218918408Y44404858D01*
X218870789Y44357239D01*
X218775551Y44309620D01*
X218537456Y44309620D01*
X218442218Y44357239D01*
X218394599Y44404858D01*
X234396980Y44357239D02*
X234539837Y44309620D01*
X234777932Y44309620D01*
X234873170Y44357239D01*
X234920789Y44404858D01*
X234968408Y44500096D01*
X234968408Y44595334D01*
X234920789Y44690572D01*
X234873170Y44738191D01*
X234777932Y44785810D01*
X234587456Y44833429D01*
X234492218Y44881048D01*
X234444599Y44928667D01*
X234396980Y45023905D01*
X234396980Y45119143D01*
X234444599Y45214381D01*
X234492218Y45262000D01*
X234587456Y45309620D01*
X234825551Y45309620D01*
X234968408Y45262000D01*
X235301742Y45309620D02*
X235539837Y44309620D01*
X235730313Y45023905D01*
X235920789Y44309620D01*
X236158884Y45309620D01*
X236968408Y44976286D02*
X236968408Y44309620D01*
X236730313Y45357239D02*
X236492218Y44642953D01*
X237111265Y44642953D01*
X237920789Y45309620D02*
X237730313Y45309620D01*
X237635075Y45262000D01*
X237587456Y45214381D01*
X237492218Y45071524D01*
X237444599Y44881048D01*
X237444599Y44500096D01*
X237492218Y44404858D01*
X237539837Y44357239D01*
X237635075Y44309620D01*
X237825551Y44309620D01*
X237920789Y44357239D01*
X237968408Y44404858D01*
X238016027Y44500096D01*
X238016027Y44738191D01*
X237968408Y44833429D01*
X237920789Y44881048D01*
X237825551Y44928667D01*
X237635075Y44928667D01*
X237539837Y44881048D01*
X237492218Y44833429D01*
X237444599Y44738191D01*
X286784480Y44357239D02*
X286927337Y44309620D01*
X287165432Y44309620D01*
X287260670Y44357239D01*
X287308289Y44404858D01*
X287355908Y44500096D01*
X287355908Y44595334D01*
X287308289Y44690572D01*
X287260670Y44738191D01*
X287165432Y44785810D01*
X286974956Y44833429D01*
X286879718Y44881048D01*
X286832099Y44928667D01*
X286784480Y45023905D01*
X286784480Y45119143D01*
X286832099Y45214381D01*
X286879718Y45262000D01*
X286974956Y45309620D01*
X287213051Y45309620D01*
X287355908Y45262000D01*
X287689242Y45309620D02*
X287927337Y44309620D01*
X288117813Y45023905D01*
X288308289Y44309620D01*
X288546384Y45309620D01*
X289355908Y44976286D02*
X289355908Y44309620D01*
X289117813Y45357239D02*
X288879718Y44642953D01*
X289498765Y44642953D01*
X290022575Y44881048D02*
X289927337Y44928667D01*
X289879718Y44976286D01*
X289832099Y45071524D01*
X289832099Y45119143D01*
X289879718Y45214381D01*
X289927337Y45262000D01*
X290022575Y45309620D01*
X290213051Y45309620D01*
X290308289Y45262000D01*
X290355908Y45214381D01*
X290403527Y45119143D01*
X290403527Y45071524D01*
X290355908Y44976286D01*
X290308289Y44928667D01*
X290213051Y44881048D01*
X290022575Y44881048D01*
X289927337Y44833429D01*
X289879718Y44785810D01*
X289832099Y44690572D01*
X289832099Y44500096D01*
X289879718Y44404858D01*
X289927337Y44357239D01*
X290022575Y44309620D01*
X290213051Y44309620D01*
X290308289Y44357239D01*
X290355908Y44404858D01*
X290403527Y44500096D01*
X290403527Y44690572D01*
X290355908Y44785810D01*
X290308289Y44833429D01*
X290213051Y44881048D01*
X305834480Y44357239D02*
X305977337Y44309620D01*
X306215432Y44309620D01*
X306310670Y44357239D01*
X306358289Y44404858D01*
X306405908Y44500096D01*
X306405908Y44595334D01*
X306358289Y44690572D01*
X306310670Y44738191D01*
X306215432Y44785810D01*
X306024956Y44833429D01*
X305929718Y44881048D01*
X305882099Y44928667D01*
X305834480Y45023905D01*
X305834480Y45119143D01*
X305882099Y45214381D01*
X305929718Y45262000D01*
X306024956Y45309620D01*
X306263051Y45309620D01*
X306405908Y45262000D01*
X306739242Y45309620D02*
X306977337Y44309620D01*
X307167813Y45023905D01*
X307358289Y44309620D01*
X307596384Y45309620D01*
X308405908Y44976286D02*
X308405908Y44309620D01*
X308167813Y45357239D02*
X307929718Y44642953D01*
X308548765Y44642953D01*
X308977337Y44309620D02*
X309167813Y44309620D01*
X309263051Y44357239D01*
X309310670Y44404858D01*
X309405908Y44547715D01*
X309453527Y44738191D01*
X309453527Y45119143D01*
X309405908Y45214381D01*
X309358289Y45262000D01*
X309263051Y45309620D01*
X309072575Y45309620D01*
X308977337Y45262000D01*
X308929718Y45214381D01*
X308882099Y45119143D01*
X308882099Y44881048D01*
X308929718Y44785810D01*
X308977337Y44738191D01*
X309072575Y44690572D01*
X309263051Y44690572D01*
X309358289Y44738191D01*
X309405908Y44785810D01*
X309453527Y44881048D01*
X324884480Y44357239D02*
X325027337Y44309620D01*
X325265432Y44309620D01*
X325360670Y44357239D01*
X325408289Y44404858D01*
X325455908Y44500096D01*
X325455908Y44595334D01*
X325408289Y44690572D01*
X325360670Y44738191D01*
X325265432Y44785810D01*
X325074956Y44833429D01*
X324979718Y44881048D01*
X324932099Y44928667D01*
X324884480Y45023905D01*
X324884480Y45119143D01*
X324932099Y45214381D01*
X324979718Y45262000D01*
X325074956Y45309620D01*
X325313051Y45309620D01*
X325455908Y45262000D01*
X325789242Y45309620D02*
X326027337Y44309620D01*
X326217813Y45023905D01*
X326408289Y44309620D01*
X326646384Y45309620D01*
X327503527Y45309620D02*
X327027337Y45309620D01*
X326979718Y44833429D01*
X327027337Y44881048D01*
X327122575Y44928667D01*
X327360670Y44928667D01*
X327455908Y44881048D01*
X327503527Y44833429D01*
X327551146Y44738191D01*
X327551146Y44500096D01*
X327503527Y44404858D01*
X327455908Y44357239D01*
X327360670Y44309620D01*
X327122575Y44309620D01*
X327027337Y44357239D01*
X326979718Y44404858D01*
X328170194Y45309620D02*
X328265432Y45309620D01*
X328360670Y45262000D01*
X328408289Y45214381D01*
X328455908Y45119143D01*
X328503527Y44928667D01*
X328503527Y44690572D01*
X328455908Y44500096D01*
X328408289Y44404858D01*
X328360670Y44357239D01*
X328265432Y44309620D01*
X328170194Y44309620D01*
X328074956Y44357239D01*
X328027337Y44404858D01*
X327979718Y44500096D01*
X327932099Y44690572D01*
X327932099Y44928667D01*
X327979718Y45119143D01*
X328027337Y45214381D01*
X328074956Y45262000D01*
X328170194Y45309620D01*
X53421980Y25307239D02*
X53564837Y25259620D01*
X53802932Y25259620D01*
X53898170Y25307239D01*
X53945789Y25354858D01*
X53993408Y25450096D01*
X53993408Y25545334D01*
X53945789Y25640572D01*
X53898170Y25688191D01*
X53802932Y25735810D01*
X53612456Y25783429D01*
X53517218Y25831048D01*
X53469599Y25878667D01*
X53421980Y25973905D01*
X53421980Y26069143D01*
X53469599Y26164381D01*
X53517218Y26212000D01*
X53612456Y26259620D01*
X53850551Y26259620D01*
X53993408Y26212000D01*
X54326742Y26259620D02*
X54564837Y25259620D01*
X54755313Y25973905D01*
X54945789Y25259620D01*
X55183884Y26259620D01*
X56041027Y26259620D02*
X55564837Y26259620D01*
X55517218Y25783429D01*
X55564837Y25831048D01*
X55660075Y25878667D01*
X55898170Y25878667D01*
X55993408Y25831048D01*
X56041027Y25783429D01*
X56088646Y25688191D01*
X56088646Y25450096D01*
X56041027Y25354858D01*
X55993408Y25307239D01*
X55898170Y25259620D01*
X55660075Y25259620D01*
X55564837Y25307239D01*
X55517218Y25354858D01*
X56469599Y26164381D02*
X56517218Y26212000D01*
X56612456Y26259620D01*
X56850551Y26259620D01*
X56945789Y26212000D01*
X56993408Y26164381D01*
X57041027Y26069143D01*
X57041027Y25973905D01*
X56993408Y25831048D01*
X56421980Y25259620D01*
X57041027Y25259620D01*
X72471980Y25307239D02*
X72614837Y25259620D01*
X72852932Y25259620D01*
X72948170Y25307239D01*
X72995789Y25354858D01*
X73043408Y25450096D01*
X73043408Y25545334D01*
X72995789Y25640572D01*
X72948170Y25688191D01*
X72852932Y25735810D01*
X72662456Y25783429D01*
X72567218Y25831048D01*
X72519599Y25878667D01*
X72471980Y25973905D01*
X72471980Y26069143D01*
X72519599Y26164381D01*
X72567218Y26212000D01*
X72662456Y26259620D01*
X72900551Y26259620D01*
X73043408Y26212000D01*
X73376742Y26259620D02*
X73614837Y25259620D01*
X73805313Y25973905D01*
X73995789Y25259620D01*
X74233884Y26259620D01*
X75091027Y26259620D02*
X74614837Y26259620D01*
X74567218Y25783429D01*
X74614837Y25831048D01*
X74710075Y25878667D01*
X74948170Y25878667D01*
X75043408Y25831048D01*
X75091027Y25783429D01*
X75138646Y25688191D01*
X75138646Y25450096D01*
X75091027Y25354858D01*
X75043408Y25307239D01*
X74948170Y25259620D01*
X74710075Y25259620D01*
X74614837Y25307239D01*
X74567218Y25354858D01*
X75471980Y26259620D02*
X76091027Y26259620D01*
X75757694Y25878667D01*
X75900551Y25878667D01*
X75995789Y25831048D01*
X76043408Y25783429D01*
X76091027Y25688191D01*
X76091027Y25450096D01*
X76043408Y25354858D01*
X75995789Y25307239D01*
X75900551Y25259620D01*
X75614837Y25259620D01*
X75519599Y25307239D01*
X75471980Y25354858D01*
X91521980Y25307239D02*
X91664837Y25259620D01*
X91902932Y25259620D01*
X91998170Y25307239D01*
X92045789Y25354858D01*
X92093408Y25450096D01*
X92093408Y25545334D01*
X92045789Y25640572D01*
X91998170Y25688191D01*
X91902932Y25735810D01*
X91712456Y25783429D01*
X91617218Y25831048D01*
X91569599Y25878667D01*
X91521980Y25973905D01*
X91521980Y26069143D01*
X91569599Y26164381D01*
X91617218Y26212000D01*
X91712456Y26259620D01*
X91950551Y26259620D01*
X92093408Y26212000D01*
X92426742Y26259620D02*
X92664837Y25259620D01*
X92855313Y25973905D01*
X93045789Y25259620D01*
X93283884Y26259620D01*
X94141027Y26259620D02*
X93664837Y26259620D01*
X93617218Y25783429D01*
X93664837Y25831048D01*
X93760075Y25878667D01*
X93998170Y25878667D01*
X94093408Y25831048D01*
X94141027Y25783429D01*
X94188646Y25688191D01*
X94188646Y25450096D01*
X94141027Y25354858D01*
X94093408Y25307239D01*
X93998170Y25259620D01*
X93760075Y25259620D01*
X93664837Y25307239D01*
X93617218Y25354858D01*
X95045789Y25926286D02*
X95045789Y25259620D01*
X94807694Y26307239D02*
X94569599Y25592953D01*
X95188646Y25592953D01*
X110571980Y25307239D02*
X110714837Y25259620D01*
X110952932Y25259620D01*
X111048170Y25307239D01*
X111095789Y25354858D01*
X111143408Y25450096D01*
X111143408Y25545334D01*
X111095789Y25640572D01*
X111048170Y25688191D01*
X110952932Y25735810D01*
X110762456Y25783429D01*
X110667218Y25831048D01*
X110619599Y25878667D01*
X110571980Y25973905D01*
X110571980Y26069143D01*
X110619599Y26164381D01*
X110667218Y26212000D01*
X110762456Y26259620D01*
X111000551Y26259620D01*
X111143408Y26212000D01*
X111476742Y26259620D02*
X111714837Y25259620D01*
X111905313Y25973905D01*
X112095789Y25259620D01*
X112333884Y26259620D01*
X113191027Y26259620D02*
X112714837Y26259620D01*
X112667218Y25783429D01*
X112714837Y25831048D01*
X112810075Y25878667D01*
X113048170Y25878667D01*
X113143408Y25831048D01*
X113191027Y25783429D01*
X113238646Y25688191D01*
X113238646Y25450096D01*
X113191027Y25354858D01*
X113143408Y25307239D01*
X113048170Y25259620D01*
X112810075Y25259620D01*
X112714837Y25307239D01*
X112667218Y25354858D01*
X114143408Y26259620D02*
X113667218Y26259620D01*
X113619599Y25783429D01*
X113667218Y25831048D01*
X113762456Y25878667D01*
X114000551Y25878667D01*
X114095789Y25831048D01*
X114143408Y25783429D01*
X114191027Y25688191D01*
X114191027Y25450096D01*
X114143408Y25354858D01*
X114095789Y25307239D01*
X114000551Y25259620D01*
X113762456Y25259620D01*
X113667218Y25307239D01*
X113619599Y25354858D01*
X129621980Y25307239D02*
X129764837Y25259620D01*
X130002932Y25259620D01*
X130098170Y25307239D01*
X130145789Y25354858D01*
X130193408Y25450096D01*
X130193408Y25545334D01*
X130145789Y25640572D01*
X130098170Y25688191D01*
X130002932Y25735810D01*
X129812456Y25783429D01*
X129717218Y25831048D01*
X129669599Y25878667D01*
X129621980Y25973905D01*
X129621980Y26069143D01*
X129669599Y26164381D01*
X129717218Y26212000D01*
X129812456Y26259620D01*
X130050551Y26259620D01*
X130193408Y26212000D01*
X130526742Y26259620D02*
X130764837Y25259620D01*
X130955313Y25973905D01*
X131145789Y25259620D01*
X131383884Y26259620D01*
X132241027Y26259620D02*
X131764837Y26259620D01*
X131717218Y25783429D01*
X131764837Y25831048D01*
X131860075Y25878667D01*
X132098170Y25878667D01*
X132193408Y25831048D01*
X132241027Y25783429D01*
X132288646Y25688191D01*
X132288646Y25450096D01*
X132241027Y25354858D01*
X132193408Y25307239D01*
X132098170Y25259620D01*
X131860075Y25259620D01*
X131764837Y25307239D01*
X131717218Y25354858D01*
X133145789Y26259620D02*
X132955313Y26259620D01*
X132860075Y26212000D01*
X132812456Y26164381D01*
X132717218Y26021524D01*
X132669599Y25831048D01*
X132669599Y25450096D01*
X132717218Y25354858D01*
X132764837Y25307239D01*
X132860075Y25259620D01*
X133050551Y25259620D01*
X133145789Y25307239D01*
X133193408Y25354858D01*
X133241027Y25450096D01*
X133241027Y25688191D01*
X133193408Y25783429D01*
X133145789Y25831048D01*
X133050551Y25878667D01*
X132860075Y25878667D01*
X132764837Y25831048D01*
X132717218Y25783429D01*
X132669599Y25688191D01*
X148671980Y25307239D02*
X148814837Y25259620D01*
X149052932Y25259620D01*
X149148170Y25307239D01*
X149195789Y25354858D01*
X149243408Y25450096D01*
X149243408Y25545334D01*
X149195789Y25640572D01*
X149148170Y25688191D01*
X149052932Y25735810D01*
X148862456Y25783429D01*
X148767218Y25831048D01*
X148719599Y25878667D01*
X148671980Y25973905D01*
X148671980Y26069143D01*
X148719599Y26164381D01*
X148767218Y26212000D01*
X148862456Y26259620D01*
X149100551Y26259620D01*
X149243408Y26212000D01*
X149576742Y26259620D02*
X149814837Y25259620D01*
X150005313Y25973905D01*
X150195789Y25259620D01*
X150433884Y26259620D01*
X151291027Y26259620D02*
X150814837Y26259620D01*
X150767218Y25783429D01*
X150814837Y25831048D01*
X150910075Y25878667D01*
X151148170Y25878667D01*
X151243408Y25831048D01*
X151291027Y25783429D01*
X151338646Y25688191D01*
X151338646Y25450096D01*
X151291027Y25354858D01*
X151243408Y25307239D01*
X151148170Y25259620D01*
X150910075Y25259620D01*
X150814837Y25307239D01*
X150767218Y25354858D01*
X151671980Y26259620D02*
X152338646Y26259620D01*
X151910075Y25259620D01*
X167721980Y25307239D02*
X167864837Y25259620D01*
X168102932Y25259620D01*
X168198170Y25307239D01*
X168245789Y25354858D01*
X168293408Y25450096D01*
X168293408Y25545334D01*
X168245789Y25640572D01*
X168198170Y25688191D01*
X168102932Y25735810D01*
X167912456Y25783429D01*
X167817218Y25831048D01*
X167769599Y25878667D01*
X167721980Y25973905D01*
X167721980Y26069143D01*
X167769599Y26164381D01*
X167817218Y26212000D01*
X167912456Y26259620D01*
X168150551Y26259620D01*
X168293408Y26212000D01*
X168626742Y26259620D02*
X168864837Y25259620D01*
X169055313Y25973905D01*
X169245789Y25259620D01*
X169483884Y26259620D01*
X170341027Y26259620D02*
X169864837Y26259620D01*
X169817218Y25783429D01*
X169864837Y25831048D01*
X169960075Y25878667D01*
X170198170Y25878667D01*
X170293408Y25831048D01*
X170341027Y25783429D01*
X170388646Y25688191D01*
X170388646Y25450096D01*
X170341027Y25354858D01*
X170293408Y25307239D01*
X170198170Y25259620D01*
X169960075Y25259620D01*
X169864837Y25307239D01*
X169817218Y25354858D01*
X170960075Y25831048D02*
X170864837Y25878667D01*
X170817218Y25926286D01*
X170769599Y26021524D01*
X170769599Y26069143D01*
X170817218Y26164381D01*
X170864837Y26212000D01*
X170960075Y26259620D01*
X171150551Y26259620D01*
X171245789Y26212000D01*
X171293408Y26164381D01*
X171341027Y26069143D01*
X171341027Y26021524D01*
X171293408Y25926286D01*
X171245789Y25878667D01*
X171150551Y25831048D01*
X170960075Y25831048D01*
X170864837Y25783429D01*
X170817218Y25735810D01*
X170769599Y25640572D01*
X170769599Y25450096D01*
X170817218Y25354858D01*
X170864837Y25307239D01*
X170960075Y25259620D01*
X171150551Y25259620D01*
X171245789Y25307239D01*
X171293408Y25354858D01*
X171341027Y25450096D01*
X171341027Y25640572D01*
X171293408Y25735810D01*
X171245789Y25783429D01*
X171150551Y25831048D01*
X186771980Y25307239D02*
X186914837Y25259620D01*
X187152932Y25259620D01*
X187248170Y25307239D01*
X187295789Y25354858D01*
X187343408Y25450096D01*
X187343408Y25545334D01*
X187295789Y25640572D01*
X187248170Y25688191D01*
X187152932Y25735810D01*
X186962456Y25783429D01*
X186867218Y25831048D01*
X186819599Y25878667D01*
X186771980Y25973905D01*
X186771980Y26069143D01*
X186819599Y26164381D01*
X186867218Y26212000D01*
X186962456Y26259620D01*
X187200551Y26259620D01*
X187343408Y26212000D01*
X187676742Y26259620D02*
X187914837Y25259620D01*
X188105313Y25973905D01*
X188295789Y25259620D01*
X188533884Y26259620D01*
X189391027Y26259620D02*
X188914837Y26259620D01*
X188867218Y25783429D01*
X188914837Y25831048D01*
X189010075Y25878667D01*
X189248170Y25878667D01*
X189343408Y25831048D01*
X189391027Y25783429D01*
X189438646Y25688191D01*
X189438646Y25450096D01*
X189391027Y25354858D01*
X189343408Y25307239D01*
X189248170Y25259620D01*
X189010075Y25259620D01*
X188914837Y25307239D01*
X188867218Y25354858D01*
X189914837Y25259620D02*
X190105313Y25259620D01*
X190200551Y25307239D01*
X190248170Y25354858D01*
X190343408Y25497715D01*
X190391027Y25688191D01*
X190391027Y26069143D01*
X190343408Y26164381D01*
X190295789Y26212000D01*
X190200551Y26259620D01*
X190010075Y26259620D01*
X189914837Y26212000D01*
X189867218Y26164381D01*
X189819599Y26069143D01*
X189819599Y25831048D01*
X189867218Y25735810D01*
X189914837Y25688191D01*
X190010075Y25640572D01*
X190200551Y25640572D01*
X190295789Y25688191D01*
X190343408Y25735810D01*
X190391027Y25831048D01*
X205821980Y25307239D02*
X205964837Y25259620D01*
X206202932Y25259620D01*
X206298170Y25307239D01*
X206345789Y25354858D01*
X206393408Y25450096D01*
X206393408Y25545334D01*
X206345789Y25640572D01*
X206298170Y25688191D01*
X206202932Y25735810D01*
X206012456Y25783429D01*
X205917218Y25831048D01*
X205869599Y25878667D01*
X205821980Y25973905D01*
X205821980Y26069143D01*
X205869599Y26164381D01*
X205917218Y26212000D01*
X206012456Y26259620D01*
X206250551Y26259620D01*
X206393408Y26212000D01*
X206726742Y26259620D02*
X206964837Y25259620D01*
X207155313Y25973905D01*
X207345789Y25259620D01*
X207583884Y26259620D01*
X208393408Y26259620D02*
X208202932Y26259620D01*
X208107694Y26212000D01*
X208060075Y26164381D01*
X207964837Y26021524D01*
X207917218Y25831048D01*
X207917218Y25450096D01*
X207964837Y25354858D01*
X208012456Y25307239D01*
X208107694Y25259620D01*
X208298170Y25259620D01*
X208393408Y25307239D01*
X208441027Y25354858D01*
X208488646Y25450096D01*
X208488646Y25688191D01*
X208441027Y25783429D01*
X208393408Y25831048D01*
X208298170Y25878667D01*
X208107694Y25878667D01*
X208012456Y25831048D01*
X207964837Y25783429D01*
X207917218Y25688191D01*
X209107694Y26259620D02*
X209202932Y26259620D01*
X209298170Y26212000D01*
X209345789Y26164381D01*
X209393408Y26069143D01*
X209441027Y25878667D01*
X209441027Y25640572D01*
X209393408Y25450096D01*
X209345789Y25354858D01*
X209298170Y25307239D01*
X209202932Y25259620D01*
X209107694Y25259620D01*
X209012456Y25307239D01*
X208964837Y25354858D01*
X208917218Y25450096D01*
X208869599Y25640572D01*
X208869599Y25878667D01*
X208917218Y26069143D01*
X208964837Y26164381D01*
X209012456Y26212000D01*
X209107694Y26259620D01*
X224871980Y25307239D02*
X225014837Y25259620D01*
X225252932Y25259620D01*
X225348170Y25307239D01*
X225395789Y25354858D01*
X225443408Y25450096D01*
X225443408Y25545334D01*
X225395789Y25640572D01*
X225348170Y25688191D01*
X225252932Y25735810D01*
X225062456Y25783429D01*
X224967218Y25831048D01*
X224919599Y25878667D01*
X224871980Y25973905D01*
X224871980Y26069143D01*
X224919599Y26164381D01*
X224967218Y26212000D01*
X225062456Y26259620D01*
X225300551Y26259620D01*
X225443408Y26212000D01*
X225776742Y26259620D02*
X226014837Y25259620D01*
X226205313Y25973905D01*
X226395789Y25259620D01*
X226633884Y26259620D01*
X227443408Y26259620D02*
X227252932Y26259620D01*
X227157694Y26212000D01*
X227110075Y26164381D01*
X227014837Y26021524D01*
X226967218Y25831048D01*
X226967218Y25450096D01*
X227014837Y25354858D01*
X227062456Y25307239D01*
X227157694Y25259620D01*
X227348170Y25259620D01*
X227443408Y25307239D01*
X227491027Y25354858D01*
X227538646Y25450096D01*
X227538646Y25688191D01*
X227491027Y25783429D01*
X227443408Y25831048D01*
X227348170Y25878667D01*
X227157694Y25878667D01*
X227062456Y25831048D01*
X227014837Y25783429D01*
X226967218Y25688191D01*
X228491027Y25259620D02*
X227919599Y25259620D01*
X228205313Y25259620D02*
X228205313Y26259620D01*
X228110075Y26116762D01*
X228014837Y26021524D01*
X227919599Y25973905D01*
X286784480Y25307239D02*
X286927337Y25259620D01*
X287165432Y25259620D01*
X287260670Y25307239D01*
X287308289Y25354858D01*
X287355908Y25450096D01*
X287355908Y25545334D01*
X287308289Y25640572D01*
X287260670Y25688191D01*
X287165432Y25735810D01*
X286974956Y25783429D01*
X286879718Y25831048D01*
X286832099Y25878667D01*
X286784480Y25973905D01*
X286784480Y26069143D01*
X286832099Y26164381D01*
X286879718Y26212000D01*
X286974956Y26259620D01*
X287213051Y26259620D01*
X287355908Y26212000D01*
X287689242Y26259620D02*
X287927337Y25259620D01*
X288117813Y25973905D01*
X288308289Y25259620D01*
X288546384Y26259620D01*
X289355908Y26259620D02*
X289165432Y26259620D01*
X289070194Y26212000D01*
X289022575Y26164381D01*
X288927337Y26021524D01*
X288879718Y25831048D01*
X288879718Y25450096D01*
X288927337Y25354858D01*
X288974956Y25307239D01*
X289070194Y25259620D01*
X289260670Y25259620D01*
X289355908Y25307239D01*
X289403527Y25354858D01*
X289451146Y25450096D01*
X289451146Y25688191D01*
X289403527Y25783429D01*
X289355908Y25831048D01*
X289260670Y25878667D01*
X289070194Y25878667D01*
X288974956Y25831048D01*
X288927337Y25783429D01*
X288879718Y25688191D01*
X289784480Y26259620D02*
X290403527Y26259620D01*
X290070194Y25878667D01*
X290213051Y25878667D01*
X290308289Y25831048D01*
X290355908Y25783429D01*
X290403527Y25688191D01*
X290403527Y25450096D01*
X290355908Y25354858D01*
X290308289Y25307239D01*
X290213051Y25259620D01*
X289927337Y25259620D01*
X289832099Y25307239D01*
X289784480Y25354858D01*
X305834480Y25307239D02*
X305977337Y25259620D01*
X306215432Y25259620D01*
X306310670Y25307239D01*
X306358289Y25354858D01*
X306405908Y25450096D01*
X306405908Y25545334D01*
X306358289Y25640572D01*
X306310670Y25688191D01*
X306215432Y25735810D01*
X306024956Y25783429D01*
X305929718Y25831048D01*
X305882099Y25878667D01*
X305834480Y25973905D01*
X305834480Y26069143D01*
X305882099Y26164381D01*
X305929718Y26212000D01*
X306024956Y26259620D01*
X306263051Y26259620D01*
X306405908Y26212000D01*
X306739242Y26259620D02*
X306977337Y25259620D01*
X307167813Y25973905D01*
X307358289Y25259620D01*
X307596384Y26259620D01*
X308405908Y26259620D02*
X308215432Y26259620D01*
X308120194Y26212000D01*
X308072575Y26164381D01*
X307977337Y26021524D01*
X307929718Y25831048D01*
X307929718Y25450096D01*
X307977337Y25354858D01*
X308024956Y25307239D01*
X308120194Y25259620D01*
X308310670Y25259620D01*
X308405908Y25307239D01*
X308453527Y25354858D01*
X308501146Y25450096D01*
X308501146Y25688191D01*
X308453527Y25783429D01*
X308405908Y25831048D01*
X308310670Y25878667D01*
X308120194Y25878667D01*
X308024956Y25831048D01*
X307977337Y25783429D01*
X307929718Y25688191D01*
X309358289Y25926286D02*
X309358289Y25259620D01*
X309120194Y26307239D02*
X308882099Y25592953D01*
X309501146Y25592953D01*
X324884480Y25307239D02*
X325027337Y25259620D01*
X325265432Y25259620D01*
X325360670Y25307239D01*
X325408289Y25354858D01*
X325455908Y25450096D01*
X325455908Y25545334D01*
X325408289Y25640572D01*
X325360670Y25688191D01*
X325265432Y25735810D01*
X325074956Y25783429D01*
X324979718Y25831048D01*
X324932099Y25878667D01*
X324884480Y25973905D01*
X324884480Y26069143D01*
X324932099Y26164381D01*
X324979718Y26212000D01*
X325074956Y26259620D01*
X325313051Y26259620D01*
X325455908Y26212000D01*
X325789242Y26259620D02*
X326027337Y25259620D01*
X326217813Y25973905D01*
X326408289Y25259620D01*
X326646384Y26259620D01*
X327455908Y26259620D02*
X327265432Y26259620D01*
X327170194Y26212000D01*
X327122575Y26164381D01*
X327027337Y26021524D01*
X326979718Y25831048D01*
X326979718Y25450096D01*
X327027337Y25354858D01*
X327074956Y25307239D01*
X327170194Y25259620D01*
X327360670Y25259620D01*
X327455908Y25307239D01*
X327503527Y25354858D01*
X327551146Y25450096D01*
X327551146Y25688191D01*
X327503527Y25783429D01*
X327455908Y25831048D01*
X327360670Y25878667D01*
X327170194Y25878667D01*
X327074956Y25831048D01*
X327027337Y25783429D01*
X326979718Y25688191D01*
X328455908Y26259620D02*
X327979718Y26259620D01*
X327932099Y25783429D01*
X327979718Y25831048D01*
X328074956Y25878667D01*
X328313051Y25878667D01*
X328408289Y25831048D01*
X328455908Y25783429D01*
X328503527Y25688191D01*
X328503527Y25450096D01*
X328455908Y25354858D01*
X328408289Y25307239D01*
X328313051Y25259620D01*
X328074956Y25259620D01*
X327979718Y25307239D01*
X327932099Y25354858D01*
X246301960Y6257239D02*
X246444817Y6209620D01*
X246682912Y6209620D01*
X246778150Y6257239D01*
X246825769Y6304858D01*
X246873388Y6400096D01*
X246873388Y6495334D01*
X246825769Y6590572D01*
X246778150Y6638191D01*
X246682912Y6685810D01*
X246492436Y6733429D01*
X246397198Y6781048D01*
X246349579Y6828667D01*
X246301960Y6923905D01*
X246301960Y7019143D01*
X246349579Y7114381D01*
X246397198Y7162000D01*
X246492436Y7209620D01*
X246730531Y7209620D01*
X246873388Y7162000D01*
X247206722Y7209620D02*
X247444817Y6209620D01*
X247635293Y6923905D01*
X247825769Y6209620D01*
X248063864Y7209620D01*
X248349579Y7209620D02*
X249016245Y7209620D01*
X248587674Y6209620D01*
X249873388Y7209620D02*
X249397198Y7209620D01*
X249349579Y6733429D01*
X249397198Y6781048D01*
X249492436Y6828667D01*
X249730531Y6828667D01*
X249825769Y6781048D01*
X249873388Y6733429D01*
X249921007Y6638191D01*
X249921007Y6400096D01*
X249873388Y6304858D01*
X249825769Y6257239D01*
X249730531Y6209620D01*
X249492436Y6209620D01*
X249397198Y6257239D01*
X249349579Y6304858D01*
X286784480Y6257239D02*
X286927337Y6209620D01*
X287165432Y6209620D01*
X287260670Y6257239D01*
X287308289Y6304858D01*
X287355908Y6400096D01*
X287355908Y6495334D01*
X287308289Y6590572D01*
X287260670Y6638191D01*
X287165432Y6685810D01*
X286974956Y6733429D01*
X286879718Y6781048D01*
X286832099Y6828667D01*
X286784480Y6923905D01*
X286784480Y7019143D01*
X286832099Y7114381D01*
X286879718Y7162000D01*
X286974956Y7209620D01*
X287213051Y7209620D01*
X287355908Y7162000D01*
X287689242Y7209620D02*
X287927337Y6209620D01*
X288117813Y6923905D01*
X288308289Y6209620D01*
X288546384Y7209620D01*
X288832099Y7209620D02*
X289498765Y7209620D01*
X289070194Y6209620D01*
X289784480Y7209620D02*
X290451146Y7209620D01*
X290022575Y6209620D01*
X305834480Y6257239D02*
X305977337Y6209620D01*
X306215432Y6209620D01*
X306310670Y6257239D01*
X306358289Y6304858D01*
X306405908Y6400096D01*
X306405908Y6495334D01*
X306358289Y6590572D01*
X306310670Y6638191D01*
X306215432Y6685810D01*
X306024956Y6733429D01*
X305929718Y6781048D01*
X305882099Y6828667D01*
X305834480Y6923905D01*
X305834480Y7019143D01*
X305882099Y7114381D01*
X305929718Y7162000D01*
X306024956Y7209620D01*
X306263051Y7209620D01*
X306405908Y7162000D01*
X306739242Y7209620D02*
X306977337Y6209620D01*
X307167813Y6923905D01*
X307358289Y6209620D01*
X307596384Y7209620D01*
X307882099Y7209620D02*
X308548765Y7209620D01*
X308120194Y6209620D01*
X309072575Y6781048D02*
X308977337Y6828667D01*
X308929718Y6876286D01*
X308882099Y6971524D01*
X308882099Y7019143D01*
X308929718Y7114381D01*
X308977337Y7162000D01*
X309072575Y7209620D01*
X309263051Y7209620D01*
X309358289Y7162000D01*
X309405908Y7114381D01*
X309453527Y7019143D01*
X309453527Y6971524D01*
X309405908Y6876286D01*
X309358289Y6828667D01*
X309263051Y6781048D01*
X309072575Y6781048D01*
X308977337Y6733429D01*
X308929718Y6685810D01*
X308882099Y6590572D01*
X308882099Y6400096D01*
X308929718Y6304858D01*
X308977337Y6257239D01*
X309072575Y6209620D01*
X309263051Y6209620D01*
X309358289Y6257239D01*
X309405908Y6304858D01*
X309453527Y6400096D01*
X309453527Y6590572D01*
X309405908Y6685810D01*
X309358289Y6733429D01*
X309263051Y6781048D01*
X324884480Y6257239D02*
X325027337Y6209620D01*
X325265432Y6209620D01*
X325360670Y6257239D01*
X325408289Y6304858D01*
X325455908Y6400096D01*
X325455908Y6495334D01*
X325408289Y6590572D01*
X325360670Y6638191D01*
X325265432Y6685810D01*
X325074956Y6733429D01*
X324979718Y6781048D01*
X324932099Y6828667D01*
X324884480Y6923905D01*
X324884480Y7019143D01*
X324932099Y7114381D01*
X324979718Y7162000D01*
X325074956Y7209620D01*
X325313051Y7209620D01*
X325455908Y7162000D01*
X325789242Y7209620D02*
X326027337Y6209620D01*
X326217813Y6923905D01*
X326408289Y6209620D01*
X326646384Y7209620D01*
X326932099Y7209620D02*
X327598765Y7209620D01*
X327170194Y6209620D01*
X328027337Y6209620D02*
X328217813Y6209620D01*
X328313051Y6257239D01*
X328360670Y6304858D01*
X328455908Y6447715D01*
X328503527Y6638191D01*
X328503527Y7019143D01*
X328455908Y7114381D01*
X328408289Y7162000D01*
X328313051Y7209620D01*
X328122575Y7209620D01*
X328027337Y7162000D01*
X327979718Y7114381D01*
X327932099Y7019143D01*
X327932099Y6781048D01*
X327979718Y6685810D01*
X328027337Y6638191D01*
X328122575Y6590572D01*
X328313051Y6590572D01*
X328408289Y6638191D01*
X328455908Y6685810D01*
X328503527Y6781048D01*
X12940476Y6257239D02*
X13083333Y6209620D01*
X13321428Y6209620D01*
X13416666Y6257239D01*
X13464285Y6304858D01*
X13511904Y6400096D01*
X13511904Y6495334D01*
X13464285Y6590572D01*
X13416666Y6638191D01*
X13321428Y6685810D01*
X13130952Y6733429D01*
X13035714Y6781048D01*
X12988095Y6828667D01*
X12940476Y6923905D01*
X12940476Y7019143D01*
X12988095Y7114381D01*
X13035714Y7162000D01*
X13130952Y7209620D01*
X13369047Y7209620D01*
X13511904Y7162000D01*
X13845238Y7209620D02*
X14083333Y6209620D01*
X14273809Y6923905D01*
X14464285Y6209620D01*
X14702380Y7209620D01*
X15511904Y7209620D02*
X15321428Y7209620D01*
X15226190Y7162000D01*
X15178571Y7114381D01*
X15083333Y6971524D01*
X15035714Y6781048D01*
X15035714Y6400096D01*
X15083333Y6304858D01*
X15130952Y6257239D01*
X15226190Y6209620D01*
X15416666Y6209620D01*
X15511904Y6257239D01*
X15559523Y6304858D01*
X15607142Y6400096D01*
X15607142Y6638191D01*
X15559523Y6733429D01*
X15511904Y6781048D01*
X15416666Y6828667D01*
X15226190Y6828667D01*
X15130952Y6781048D01*
X15083333Y6733429D01*
X15035714Y6638191D01*
X16464285Y7209620D02*
X16273809Y7209620D01*
X16178571Y7162000D01*
X16130952Y7114381D01*
X16035714Y6971524D01*
X15988095Y6781048D01*
X15988095Y6400096D01*
X16035714Y6304858D01*
X16083333Y6257239D01*
X16178571Y6209620D01*
X16369047Y6209620D01*
X16464285Y6257239D01*
X16511904Y6304858D01*
X16559523Y6400096D01*
X16559523Y6638191D01*
X16511904Y6733429D01*
X16464285Y6781048D01*
X16369047Y6828667D01*
X16178571Y6828667D01*
X16083333Y6781048D01*
X16035714Y6733429D01*
X15988095Y6638191D01*
X36752976Y6257239D02*
X36895833Y6209620D01*
X37133928Y6209620D01*
X37229166Y6257239D01*
X37276785Y6304858D01*
X37324404Y6400096D01*
X37324404Y6495334D01*
X37276785Y6590572D01*
X37229166Y6638191D01*
X37133928Y6685810D01*
X36943452Y6733429D01*
X36848214Y6781048D01*
X36800595Y6828667D01*
X36752976Y6923905D01*
X36752976Y7019143D01*
X36800595Y7114381D01*
X36848214Y7162000D01*
X36943452Y7209620D01*
X37181547Y7209620D01*
X37324404Y7162000D01*
X37657738Y7209620D02*
X37895833Y6209620D01*
X38086309Y6923905D01*
X38276785Y6209620D01*
X38514880Y7209620D01*
X39324404Y7209620D02*
X39133928Y7209620D01*
X39038690Y7162000D01*
X38991071Y7114381D01*
X38895833Y6971524D01*
X38848214Y6781048D01*
X38848214Y6400096D01*
X38895833Y6304858D01*
X38943452Y6257239D01*
X39038690Y6209620D01*
X39229166Y6209620D01*
X39324404Y6257239D01*
X39372023Y6304858D01*
X39419642Y6400096D01*
X39419642Y6638191D01*
X39372023Y6733429D01*
X39324404Y6781048D01*
X39229166Y6828667D01*
X39038690Y6828667D01*
X38943452Y6781048D01*
X38895833Y6733429D01*
X38848214Y6638191D01*
X39752976Y7209620D02*
X40419642Y7209620D01*
X39991071Y6209620D01*
X60565480Y6257239D02*
X60708337Y6209620D01*
X60946432Y6209620D01*
X61041670Y6257239D01*
X61089289Y6304858D01*
X61136908Y6400096D01*
X61136908Y6495334D01*
X61089289Y6590572D01*
X61041670Y6638191D01*
X60946432Y6685810D01*
X60755956Y6733429D01*
X60660718Y6781048D01*
X60613099Y6828667D01*
X60565480Y6923905D01*
X60565480Y7019143D01*
X60613099Y7114381D01*
X60660718Y7162000D01*
X60755956Y7209620D01*
X60994051Y7209620D01*
X61136908Y7162000D01*
X61470242Y7209620D02*
X61708337Y6209620D01*
X61898813Y6923905D01*
X62089289Y6209620D01*
X62327384Y7209620D01*
X63136908Y7209620D02*
X62946432Y7209620D01*
X62851194Y7162000D01*
X62803575Y7114381D01*
X62708337Y6971524D01*
X62660718Y6781048D01*
X62660718Y6400096D01*
X62708337Y6304858D01*
X62755956Y6257239D01*
X62851194Y6209620D01*
X63041670Y6209620D01*
X63136908Y6257239D01*
X63184527Y6304858D01*
X63232146Y6400096D01*
X63232146Y6638191D01*
X63184527Y6733429D01*
X63136908Y6781048D01*
X63041670Y6828667D01*
X62851194Y6828667D01*
X62755956Y6781048D01*
X62708337Y6733429D01*
X62660718Y6638191D01*
X63803575Y6781048D02*
X63708337Y6828667D01*
X63660718Y6876286D01*
X63613099Y6971524D01*
X63613099Y7019143D01*
X63660718Y7114381D01*
X63708337Y7162000D01*
X63803575Y7209620D01*
X63994051Y7209620D01*
X64089289Y7162000D01*
X64136908Y7114381D01*
X64184527Y7019143D01*
X64184527Y6971524D01*
X64136908Y6876286D01*
X64089289Y6828667D01*
X63994051Y6781048D01*
X63803575Y6781048D01*
X63708337Y6733429D01*
X63660718Y6685810D01*
X63613099Y6590572D01*
X63613099Y6400096D01*
X63660718Y6304858D01*
X63708337Y6257239D01*
X63803575Y6209620D01*
X63994051Y6209620D01*
X64089289Y6257239D01*
X64136908Y6304858D01*
X64184527Y6400096D01*
X64184527Y6590572D01*
X64136908Y6685810D01*
X64089289Y6733429D01*
X63994051Y6781048D01*
X84377980Y6257239D02*
X84520837Y6209620D01*
X84758932Y6209620D01*
X84854170Y6257239D01*
X84901789Y6304858D01*
X84949408Y6400096D01*
X84949408Y6495334D01*
X84901789Y6590572D01*
X84854170Y6638191D01*
X84758932Y6685810D01*
X84568456Y6733429D01*
X84473218Y6781048D01*
X84425599Y6828667D01*
X84377980Y6923905D01*
X84377980Y7019143D01*
X84425599Y7114381D01*
X84473218Y7162000D01*
X84568456Y7209620D01*
X84806551Y7209620D01*
X84949408Y7162000D01*
X85282742Y7209620D02*
X85520837Y6209620D01*
X85711313Y6923905D01*
X85901789Y6209620D01*
X86139884Y7209620D01*
X86949408Y7209620D02*
X86758932Y7209620D01*
X86663694Y7162000D01*
X86616075Y7114381D01*
X86520837Y6971524D01*
X86473218Y6781048D01*
X86473218Y6400096D01*
X86520837Y6304858D01*
X86568456Y6257239D01*
X86663694Y6209620D01*
X86854170Y6209620D01*
X86949408Y6257239D01*
X86997027Y6304858D01*
X87044646Y6400096D01*
X87044646Y6638191D01*
X86997027Y6733429D01*
X86949408Y6781048D01*
X86854170Y6828667D01*
X86663694Y6828667D01*
X86568456Y6781048D01*
X86520837Y6733429D01*
X86473218Y6638191D01*
X87520837Y6209620D02*
X87711313Y6209620D01*
X87806551Y6257239D01*
X87854170Y6304858D01*
X87949408Y6447715D01*
X87997027Y6638191D01*
X87997027Y7019143D01*
X87949408Y7114381D01*
X87901789Y7162000D01*
X87806551Y7209620D01*
X87616075Y7209620D01*
X87520837Y7162000D01*
X87473218Y7114381D01*
X87425599Y7019143D01*
X87425599Y6781048D01*
X87473218Y6685810D01*
X87520837Y6638191D01*
X87616075Y6590572D01*
X87806551Y6590572D01*
X87901789Y6638191D01*
X87949408Y6685810D01*
X87997027Y6781048D01*
X174865480Y6257239D02*
X175008337Y6209620D01*
X175246432Y6209620D01*
X175341670Y6257239D01*
X175389289Y6304858D01*
X175436908Y6400096D01*
X175436908Y6495334D01*
X175389289Y6590572D01*
X175341670Y6638191D01*
X175246432Y6685810D01*
X175055956Y6733429D01*
X174960718Y6781048D01*
X174913099Y6828667D01*
X174865480Y6923905D01*
X174865480Y7019143D01*
X174913099Y7114381D01*
X174960718Y7162000D01*
X175055956Y7209620D01*
X175294051Y7209620D01*
X175436908Y7162000D01*
X175770242Y7209620D02*
X176008337Y6209620D01*
X176198813Y6923905D01*
X176389289Y6209620D01*
X176627384Y7209620D01*
X176913099Y7209620D02*
X177579765Y7209620D01*
X177151194Y6209620D01*
X177913099Y7114381D02*
X177960718Y7162000D01*
X178055956Y7209620D01*
X178294051Y7209620D01*
X178389289Y7162000D01*
X178436908Y7114381D01*
X178484527Y7019143D01*
X178484527Y6923905D01*
X178436908Y6781048D01*
X177865480Y6209620D01*
X178484527Y6209620D01*
X198677980Y6257239D02*
X198820837Y6209620D01*
X199058932Y6209620D01*
X199154170Y6257239D01*
X199201789Y6304858D01*
X199249408Y6400096D01*
X199249408Y6495334D01*
X199201789Y6590572D01*
X199154170Y6638191D01*
X199058932Y6685810D01*
X198868456Y6733429D01*
X198773218Y6781048D01*
X198725599Y6828667D01*
X198677980Y6923905D01*
X198677980Y7019143D01*
X198725599Y7114381D01*
X198773218Y7162000D01*
X198868456Y7209620D01*
X199106551Y7209620D01*
X199249408Y7162000D01*
X199582742Y7209620D02*
X199820837Y6209620D01*
X200011313Y6923905D01*
X200201789Y6209620D01*
X200439884Y7209620D01*
X200725599Y7209620D02*
X201392265Y7209620D01*
X200963694Y6209620D01*
X201677980Y7209620D02*
X202297027Y7209620D01*
X201963694Y6828667D01*
X202106551Y6828667D01*
X202201789Y6781048D01*
X202249408Y6733429D01*
X202297027Y6638191D01*
X202297027Y6400096D01*
X202249408Y6304858D01*
X202201789Y6257239D01*
X202106551Y6209620D01*
X201820837Y6209620D01*
X201725599Y6257239D01*
X201677980Y6304858D01*
X222490480Y6257239D02*
X222633337Y6209620D01*
X222871432Y6209620D01*
X222966670Y6257239D01*
X223014289Y6304858D01*
X223061908Y6400096D01*
X223061908Y6495334D01*
X223014289Y6590572D01*
X222966670Y6638191D01*
X222871432Y6685810D01*
X222680956Y6733429D01*
X222585718Y6781048D01*
X222538099Y6828667D01*
X222490480Y6923905D01*
X222490480Y7019143D01*
X222538099Y7114381D01*
X222585718Y7162000D01*
X222680956Y7209620D01*
X222919051Y7209620D01*
X223061908Y7162000D01*
X223395242Y7209620D02*
X223633337Y6209620D01*
X223823813Y6923905D01*
X224014289Y6209620D01*
X224252384Y7209620D01*
X224538099Y7209620D02*
X225204765Y7209620D01*
X224776194Y6209620D01*
X226014289Y6876286D02*
X226014289Y6209620D01*
X225776194Y7257239D02*
X225538099Y6542953D01*
X226157146Y6542953D01*
X267732956Y6257239D02*
X267875813Y6209620D01*
X268113908Y6209620D01*
X268209146Y6257239D01*
X268256765Y6304858D01*
X268304384Y6400096D01*
X268304384Y6495334D01*
X268256765Y6590572D01*
X268209146Y6638191D01*
X268113908Y6685810D01*
X267923432Y6733429D01*
X267828194Y6781048D01*
X267780575Y6828667D01*
X267732956Y6923905D01*
X267732956Y7019143D01*
X267780575Y7114381D01*
X267828194Y7162000D01*
X267923432Y7209620D01*
X268161527Y7209620D01*
X268304384Y7162000D01*
X268637718Y7209620D02*
X268875813Y6209620D01*
X269066289Y6923905D01*
X269256765Y6209620D01*
X269494860Y7209620D01*
X269780575Y7209620D02*
X270447241Y7209620D01*
X270018670Y6209620D01*
X271256765Y7209620D02*
X271066289Y7209620D01*
X270971051Y7162000D01*
X270923432Y7114381D01*
X270828194Y6971524D01*
X270780575Y6781048D01*
X270780575Y6400096D01*
X270828194Y6304858D01*
X270875813Y6257239D01*
X270971051Y6209620D01*
X271161527Y6209620D01*
X271256765Y6257239D01*
X271304384Y6304858D01*
X271352003Y6400096D01*
X271352003Y6638191D01*
X271304384Y6733429D01*
X271256765Y6781048D01*
X271161527Y6828667D01*
X270971051Y6828667D01*
X270875813Y6781048D01*
X270828194Y6733429D01*
X270780575Y6638191D01*
X262972480Y82457239D02*
X263115337Y82409620D01*
X263353432Y82409620D01*
X263448670Y82457239D01*
X263496289Y82504858D01*
X263543908Y82600096D01*
X263543908Y82695334D01*
X263496289Y82790572D01*
X263448670Y82838191D01*
X263353432Y82885810D01*
X263162956Y82933429D01*
X263067718Y82981048D01*
X263020099Y83028667D01*
X262972480Y83123905D01*
X262972480Y83219143D01*
X263020099Y83314381D01*
X263067718Y83362000D01*
X263162956Y83409620D01*
X263401051Y83409620D01*
X263543908Y83362000D01*
X263877242Y83409620D02*
X264115337Y82409620D01*
X264305813Y83123905D01*
X264496289Y82409620D01*
X264734384Y83409620D01*
X265639146Y82409620D02*
X265067718Y82409620D01*
X265353432Y82409620D02*
X265353432Y83409620D01*
X265258194Y83266762D01*
X265162956Y83171524D01*
X265067718Y83123905D01*
X266543908Y83409620D02*
X266067718Y83409620D01*
X266020099Y82933429D01*
X266067718Y82981048D01*
X266162956Y83028667D01*
X266401051Y83028667D01*
X266496289Y82981048D01*
X266543908Y82933429D01*
X266591527Y82838191D01*
X266591527Y82600096D01*
X266543908Y82504858D01*
X266496289Y82457239D01*
X266401051Y82409620D01*
X266162956Y82409620D01*
X266067718Y82457239D01*
X266020099Y82504858D01*
X15322480Y63407239D02*
X15465337Y63359620D01*
X15703432Y63359620D01*
X15798670Y63407239D01*
X15846289Y63454858D01*
X15893908Y63550096D01*
X15893908Y63645334D01*
X15846289Y63740572D01*
X15798670Y63788191D01*
X15703432Y63835810D01*
X15512956Y63883429D01*
X15417718Y63931048D01*
X15370099Y63978667D01*
X15322480Y64073905D01*
X15322480Y64169143D01*
X15370099Y64264381D01*
X15417718Y64312000D01*
X15512956Y64359620D01*
X15751051Y64359620D01*
X15893908Y64312000D01*
X16227242Y64359620D02*
X16465337Y63359620D01*
X16655813Y64073905D01*
X16846289Y63359620D01*
X17084384Y64359620D01*
X17989146Y63359620D02*
X17417718Y63359620D01*
X17703432Y63359620D02*
X17703432Y64359620D01*
X17608194Y64216762D01*
X17512956Y64121524D01*
X17417718Y64073905D01*
X18560575Y63931048D02*
X18465337Y63978667D01*
X18417718Y64026286D01*
X18370099Y64121524D01*
X18370099Y64169143D01*
X18417718Y64264381D01*
X18465337Y64312000D01*
X18560575Y64359620D01*
X18751051Y64359620D01*
X18846289Y64312000D01*
X18893908Y64264381D01*
X18941527Y64169143D01*
X18941527Y64121524D01*
X18893908Y64026286D01*
X18846289Y63978667D01*
X18751051Y63931048D01*
X18560575Y63931048D01*
X18465337Y63883429D01*
X18417718Y63835810D01*
X18370099Y63740572D01*
X18370099Y63550096D01*
X18417718Y63454858D01*
X18465337Y63407239D01*
X18560575Y63359620D01*
X18751051Y63359620D01*
X18846289Y63407239D01*
X18893908Y63454858D01*
X18941527Y63550096D01*
X18941527Y63740572D01*
X18893908Y63835810D01*
X18846289Y63883429D01*
X18751051Y63931048D01*
X20084980Y44357239D02*
X20227837Y44309620D01*
X20465932Y44309620D01*
X20561170Y44357239D01*
X20608789Y44404858D01*
X20656408Y44500096D01*
X20656408Y44595334D01*
X20608789Y44690572D01*
X20561170Y44738191D01*
X20465932Y44785810D01*
X20275456Y44833429D01*
X20180218Y44881048D01*
X20132599Y44928667D01*
X20084980Y45023905D01*
X20084980Y45119143D01*
X20132599Y45214381D01*
X20180218Y45262000D01*
X20275456Y45309620D01*
X20513551Y45309620D01*
X20656408Y45262000D01*
X20989742Y45309620D02*
X21227837Y44309620D01*
X21418313Y45023905D01*
X21608789Y44309620D01*
X21846884Y45309620D01*
X22132599Y45309620D02*
X22751646Y45309620D01*
X22418313Y44928667D01*
X22561170Y44928667D01*
X22656408Y44881048D01*
X22704027Y44833429D01*
X22751646Y44738191D01*
X22751646Y44500096D01*
X22704027Y44404858D01*
X22656408Y44357239D01*
X22561170Y44309620D01*
X22275456Y44309620D01*
X22180218Y44357239D01*
X22132599Y44404858D01*
X23656408Y45309620D02*
X23180218Y45309620D01*
X23132599Y44833429D01*
X23180218Y44881048D01*
X23275456Y44928667D01*
X23513551Y44928667D01*
X23608789Y44881048D01*
X23656408Y44833429D01*
X23704027Y44738191D01*
X23704027Y44500096D01*
X23656408Y44404858D01*
X23608789Y44357239D01*
X23513551Y44309620D01*
X23275456Y44309620D01*
X23180218Y44357239D01*
X23132599Y44404858D01*
X258209980Y44357239D02*
X258352837Y44309620D01*
X258590932Y44309620D01*
X258686170Y44357239D01*
X258733789Y44404858D01*
X258781408Y44500096D01*
X258781408Y44595334D01*
X258733789Y44690572D01*
X258686170Y44738191D01*
X258590932Y44785810D01*
X258400456Y44833429D01*
X258305218Y44881048D01*
X258257599Y44928667D01*
X258209980Y45023905D01*
X258209980Y45119143D01*
X258257599Y45214381D01*
X258305218Y45262000D01*
X258400456Y45309620D01*
X258638551Y45309620D01*
X258781408Y45262000D01*
X259114742Y45309620D02*
X259352837Y44309620D01*
X259543313Y45023905D01*
X259733789Y44309620D01*
X259971884Y45309620D01*
X260781408Y44976286D02*
X260781408Y44309620D01*
X260543313Y45357239D02*
X260305218Y44642953D01*
X260924265Y44642953D01*
X261209980Y45309620D02*
X261876646Y45309620D01*
X261448075Y44309620D01*
X27229500Y25307239D02*
X27372357Y25259620D01*
X27610452Y25259620D01*
X27705690Y25307239D01*
X27753309Y25354858D01*
X27800928Y25450096D01*
X27800928Y25545334D01*
X27753309Y25640572D01*
X27705690Y25688191D01*
X27610452Y25735810D01*
X27419976Y25783429D01*
X27324738Y25831048D01*
X27277119Y25878667D01*
X27229500Y25973905D01*
X27229500Y26069143D01*
X27277119Y26164381D01*
X27324738Y26212000D01*
X27419976Y26259620D01*
X27658071Y26259620D01*
X27800928Y26212000D01*
X28134262Y26259620D02*
X28372357Y25259620D01*
X28562833Y25973905D01*
X28753309Y25259620D01*
X28991404Y26259620D01*
X29848547Y26259620D02*
X29372357Y26259620D01*
X29324738Y25783429D01*
X29372357Y25831048D01*
X29467595Y25878667D01*
X29705690Y25878667D01*
X29800928Y25831048D01*
X29848547Y25783429D01*
X29896166Y25688191D01*
X29896166Y25450096D01*
X29848547Y25354858D01*
X29800928Y25307239D01*
X29705690Y25259620D01*
X29467595Y25259620D01*
X29372357Y25307239D01*
X29324738Y25354858D01*
X30848547Y25259620D02*
X30277119Y25259620D01*
X30562833Y25259620D02*
X30562833Y26259620D01*
X30467595Y26116762D01*
X30372357Y26021524D01*
X30277119Y25973905D01*
X251064960Y25307239D02*
X251207817Y25259620D01*
X251445912Y25259620D01*
X251541150Y25307239D01*
X251588769Y25354858D01*
X251636388Y25450096D01*
X251636388Y25545334D01*
X251588769Y25640572D01*
X251541150Y25688191D01*
X251445912Y25735810D01*
X251255436Y25783429D01*
X251160198Y25831048D01*
X251112579Y25878667D01*
X251064960Y25973905D01*
X251064960Y26069143D01*
X251112579Y26164381D01*
X251160198Y26212000D01*
X251255436Y26259620D01*
X251493531Y26259620D01*
X251636388Y26212000D01*
X251969722Y26259620D02*
X252207817Y25259620D01*
X252398293Y25973905D01*
X252588769Y25259620D01*
X252826864Y26259620D01*
X253636388Y26259620D02*
X253445912Y26259620D01*
X253350674Y26212000D01*
X253303055Y26164381D01*
X253207817Y26021524D01*
X253160198Y25831048D01*
X253160198Y25450096D01*
X253207817Y25354858D01*
X253255436Y25307239D01*
X253350674Y25259620D01*
X253541150Y25259620D01*
X253636388Y25307239D01*
X253684007Y25354858D01*
X253731626Y25450096D01*
X253731626Y25688191D01*
X253684007Y25783429D01*
X253636388Y25831048D01*
X253541150Y25878667D01*
X253350674Y25878667D01*
X253255436Y25831048D01*
X253207817Y25783429D01*
X253160198Y25688191D01*
X254112579Y26164381D02*
X254160198Y26212000D01*
X254255436Y26259620D01*
X254493531Y26259620D01*
X254588769Y26212000D01*
X254636388Y26164381D01*
X254684007Y26069143D01*
X254684007Y25973905D01*
X254636388Y25831048D01*
X254064960Y25259620D01*
X254684007Y25259620D01*
X112953480Y6257239D02*
X113096337Y6209620D01*
X113334432Y6209620D01*
X113429670Y6257239D01*
X113477289Y6304858D01*
X113524908Y6400096D01*
X113524908Y6495334D01*
X113477289Y6590572D01*
X113429670Y6638191D01*
X113334432Y6685810D01*
X113143956Y6733429D01*
X113048718Y6781048D01*
X113001099Y6828667D01*
X112953480Y6923905D01*
X112953480Y7019143D01*
X113001099Y7114381D01*
X113048718Y7162000D01*
X113143956Y7209620D01*
X113382051Y7209620D01*
X113524908Y7162000D01*
X113858242Y7209620D02*
X114096337Y6209620D01*
X114286813Y6923905D01*
X114477289Y6209620D01*
X114715384Y7209620D01*
X115001099Y7209620D02*
X115667765Y7209620D01*
X115239194Y6209620D01*
X116239194Y7209620D02*
X116334432Y7209620D01*
X116429670Y7162000D01*
X116477289Y7114381D01*
X116524908Y7019143D01*
X116572527Y6828667D01*
X116572527Y6590572D01*
X116524908Y6400096D01*
X116477289Y6304858D01*
X116429670Y6257239D01*
X116334432Y6209620D01*
X116239194Y6209620D01*
X116143956Y6257239D01*
X116096337Y6304858D01*
X116048718Y6400096D01*
X116001099Y6590572D01*
X116001099Y6828667D01*
X116048718Y7019143D01*
X116096337Y7114381D01*
X116143956Y7162000D01*
X116239194Y7209620D01*
X146290980Y6257239D02*
X146433837Y6209620D01*
X146671932Y6209620D01*
X146767170Y6257239D01*
X146814789Y6304858D01*
X146862408Y6400096D01*
X146862408Y6495334D01*
X146814789Y6590572D01*
X146767170Y6638191D01*
X146671932Y6685810D01*
X146481456Y6733429D01*
X146386218Y6781048D01*
X146338599Y6828667D01*
X146290980Y6923905D01*
X146290980Y7019143D01*
X146338599Y7114381D01*
X146386218Y7162000D01*
X146481456Y7209620D01*
X146719551Y7209620D01*
X146862408Y7162000D01*
X147195742Y7209620D02*
X147433837Y6209620D01*
X147624313Y6923905D01*
X147814789Y6209620D01*
X148052884Y7209620D01*
X148338599Y7209620D02*
X149005265Y7209620D01*
X148576694Y6209620D01*
X149910027Y6209620D02*
X149338599Y6209620D01*
X149624313Y6209620D02*
X149624313Y7209620D01*
X149529075Y7066762D01*
X149433837Y6971524D01*
X149338599Y6923905D01*
X4580904Y87283660D02*
X4080904Y86383660D01*
X3580904Y86283660D02*
X4580904Y86283660D01*
X4080904Y86383660D02*
X3580904Y87283660D01*
X3580904Y87283660D02*
X4580904Y87283660D01*
X22630904Y87283660D02*
X23630904Y87283660D01*
X23130904Y86383660D02*
X22630904Y87283660D01*
X22630904Y86283660D02*
X23630904Y86283660D01*
X23630904Y87283660D02*
X23130904Y86383660D01*
X41680904Y87283660D02*
X42680904Y87283660D01*
X42180904Y86383660D02*
X41680904Y87283660D01*
X41680904Y86283660D02*
X42680904Y86283660D01*
X42680904Y87283660D02*
X42180904Y86383660D01*
X60730904Y86283660D02*
X61730904Y86283660D01*
X61730904Y87283660D02*
X61230904Y86383660D01*
X60730904Y87283660D02*
X61730904Y87283660D01*
X61230904Y86383660D02*
X60730904Y87283660D01*
X79780904Y86283660D02*
X80780904Y86283660D01*
X80280904Y86383660D02*
X79780904Y87283660D01*
X80780904Y87283660D02*
X80280904Y86383660D01*
X79780904Y87283660D02*
X80780904Y87283660D01*
X99830904Y87283660D02*
X99330904Y86383660D01*
X99330904Y86383660D02*
X98830904Y87283660D01*
X98830904Y86283660D02*
X99830904Y86283660D01*
X98830904Y87283660D02*
X99830904Y87283660D01*
X117880904Y86283660D02*
X118880904Y86283660D01*
X118880904Y87283660D02*
X118380904Y86383660D01*
X117880904Y87283660D02*
X118880904Y87283660D01*
X118380904Y86383660D02*
X117880904Y87283660D01*
X137430904Y86383660D02*
X136930904Y87283660D01*
X137930904Y87283660D02*
X137430904Y86383660D01*
X136930904Y86283660D02*
X137930904Y86283660D01*
X136930904Y87283660D02*
X137930904Y87283660D01*
X155980904Y87283660D02*
X156980904Y87283660D01*
X156480904Y86383660D02*
X155980904Y87283660D01*
X155980904Y86283660D02*
X156980904Y86283660D01*
X156980904Y87283660D02*
X156480904Y86383660D01*
X175030904Y87283660D02*
X176030904Y87283660D01*
X175030904Y86283660D02*
X176030904Y86283660D01*
X176030904Y87283660D02*
X175530904Y86383660D01*
X175530904Y86383660D02*
X175030904Y87283660D01*
X195080904Y87283660D02*
X194580904Y86383660D01*
X194080904Y87283660D02*
X195080904Y87283660D01*
X194580904Y86383660D02*
X194080904Y87283660D01*
X194080904Y86283660D02*
X195080904Y86283660D01*
X213130904Y86283660D02*
X214130904Y86283660D01*
X214130904Y87283660D02*
X213630904Y86383660D01*
X213630904Y86383660D02*
X213130904Y87283660D01*
X213130904Y87283660D02*
X214130904Y87283660D01*
X232180904Y87283660D02*
X233180904Y87283660D01*
X233180904Y87283660D02*
X232680904Y86383660D01*
X232680904Y86383660D02*
X232180904Y87283660D01*
X232180904Y86283660D02*
X233180904Y86283660D01*
X284568404Y87283660D02*
X285568404Y87283660D01*
X285068404Y86383660D02*
X284568404Y87283660D01*
X284568404Y86283660D02*
X285568404Y86283660D01*
X285568404Y87283660D02*
X285068404Y86383660D01*
X314143404Y87283660D02*
X313643404Y86383660D01*
X313143404Y86283660D02*
X314143404Y86283660D01*
X313643404Y86383660D02*
X313143404Y87283660D01*
X313143404Y87283660D02*
X314143404Y87283660D01*
X32155904Y68233660D02*
X33155904Y68233660D01*
X32655904Y67333660D02*
X32155904Y68233660D01*
X33155904Y68233660D02*
X32655904Y67333660D01*
X32155904Y67233660D02*
X33155904Y67233660D01*
X51205904Y68233660D02*
X52205904Y68233660D01*
X51705904Y67333660D02*
X51205904Y68233660D01*
X51205904Y67233660D02*
X52205904Y67233660D01*
X52205904Y68233660D02*
X51705904Y67333660D01*
X70255904Y68233660D02*
X71255904Y68233660D01*
X71255904Y68233660D02*
X70755904Y67333660D01*
X70255904Y67233660D02*
X71255904Y67233660D01*
X70755904Y67333660D02*
X70255904Y68233660D01*
X89305904Y68233660D02*
X90305904Y68233660D01*
X89805904Y67333660D02*
X89305904Y68233660D01*
X90305904Y68233660D02*
X89805904Y67333660D01*
X89305904Y67233660D02*
X90305904Y67233660D01*
X108355904Y68233660D02*
X109355904Y68233660D01*
X108855904Y67333660D02*
X108355904Y68233660D01*
X109355904Y68233660D02*
X108855904Y67333660D01*
X108355904Y67233660D02*
X109355904Y67233660D01*
X128405904Y68233660D02*
X127905904Y67333660D01*
X127405904Y67233660D02*
X128405904Y67233660D01*
X127405904Y68233660D02*
X128405904Y68233660D01*
X127905904Y67333660D02*
X127405904Y68233660D01*
X147455904Y68233660D02*
X146955904Y67333660D01*
X146455904Y67233660D02*
X147455904Y67233660D01*
X146955904Y67333660D02*
X146455904Y68233660D01*
X146455904Y68233660D02*
X147455904Y68233660D01*
X166505904Y68233660D02*
X166005904Y67333660D01*
X165505904Y67233660D02*
X166505904Y67233660D01*
X166005904Y67333660D02*
X165505904Y68233660D01*
X165505904Y68233660D02*
X166505904Y68233660D01*
X184555904Y67233660D02*
X185555904Y67233660D01*
X185055904Y67333660D02*
X184555904Y68233660D01*
X185555904Y68233660D02*
X185055904Y67333660D01*
X184555904Y68233660D02*
X185555904Y68233660D01*
X203605904Y67233660D02*
X204605904Y67233660D01*
X204605904Y68233660D02*
X204105904Y67333660D01*
X204105904Y67333660D02*
X203605904Y68233660D01*
X203605904Y68233660D02*
X204605904Y68233660D01*
X222655904Y68233660D02*
X223655904Y68233660D01*
X222655904Y67233660D02*
X223655904Y67233660D01*
X223155904Y67333660D02*
X222655904Y68233660D01*
X223655904Y68233660D02*
X223155904Y67333660D01*
X242705904Y68233660D02*
X242205904Y67333660D01*
X241705904Y68233660D02*
X242705904Y68233660D01*
X242205904Y67333660D02*
X241705904Y68233660D01*
X241705904Y67233660D02*
X242705904Y67233660D01*
X260755904Y68233660D02*
X261755904Y68233660D01*
X261755904Y68233660D02*
X261255904Y67333660D01*
X260755904Y67233660D02*
X261755904Y67233660D01*
X261255904Y67333660D02*
X260755904Y68233660D01*
X279805904Y67233660D02*
X280805904Y67233660D01*
X280305904Y67333660D02*
X279805904Y68233660D01*
X279805904Y68233660D02*
X280805904Y68233660D01*
X280805904Y68233660D02*
X280305904Y67333660D01*
X298855904Y67233660D02*
X299855904Y67233660D01*
X298855904Y68233660D02*
X299855904Y68233660D01*
X299355904Y67333660D02*
X298855904Y68233660D01*
X299855904Y68233660D02*
X299355904Y67333660D01*
X36918404Y49183660D02*
X37918404Y49183660D01*
X37918404Y49183660D02*
X37418404Y48283660D01*
X37418404Y48283660D02*
X36918404Y49183660D01*
X36918404Y48183660D02*
X37918404Y48183660D01*
X55968404Y48183660D02*
X56968404Y48183660D01*
X55968404Y49183660D02*
X56968404Y49183660D01*
X56968404Y49183660D02*
X56468404Y48283660D01*
X56468404Y48283660D02*
X55968404Y49183660D01*
X75518404Y48283660D02*
X75018404Y49183660D01*
X75018404Y48183660D02*
X76018404Y48183660D01*
X75018404Y49183660D02*
X76018404Y49183660D01*
X76018404Y49183660D02*
X75518404Y48283660D01*
X94068404Y49183660D02*
X95068404Y49183660D01*
X94068404Y48183660D02*
X95068404Y48183660D01*
X94568404Y48283660D02*
X94068404Y49183660D01*
X95068404Y49183660D02*
X94568404Y48283660D01*
X113664585Y48283660D02*
X113164585Y49183660D01*
X114164585Y49183660D02*
X113664585Y48283660D01*
X113164585Y48183660D02*
X114164585Y48183660D01*
X113164585Y49183660D02*
X114164585Y49183660D01*
X132668404Y48283660D02*
X132168404Y49183660D01*
X132168404Y49183660D02*
X133168404Y49183660D01*
X133168404Y49183660D02*
X132668404Y48283660D01*
X132168404Y48183660D02*
X133168404Y48183660D01*
X151218404Y49183660D02*
X152218404Y49183660D01*
X151718404Y48283660D02*
X151218404Y49183660D01*
X152218404Y49183660D02*
X151718404Y48283660D01*
X151218404Y48183660D02*
X152218404Y48183660D01*
X170768404Y48283660D02*
X170268404Y49183660D01*
X170268404Y48183660D02*
X171268404Y48183660D01*
X170268404Y49183660D02*
X171268404Y49183660D01*
X171268404Y49183660D02*
X170768404Y48283660D01*
X190318404Y49183660D02*
X189818404Y48283660D01*
X189318404Y49183660D02*
X190318404Y49183660D01*
X189318404Y48183660D02*
X190318404Y48183660D01*
X189818404Y48283660D02*
X189318404Y49183660D01*
X208868404Y48283660D02*
X208368404Y49183660D01*
X208368404Y48183660D02*
X209368404Y48183660D01*
X209368404Y49183660D02*
X208868404Y48283660D01*
X208368404Y49183660D02*
X209368404Y49183660D01*
X227918404Y48283660D02*
X227418404Y49183660D01*
X227418404Y48183660D02*
X228418404Y48183660D01*
X228418404Y49183660D02*
X227918404Y48283660D01*
X227418404Y49183660D02*
X228418404Y49183660D01*
X279805904Y48183660D02*
X280805904Y48183660D01*
X280805904Y49183660D02*
X280305904Y48283660D01*
X279805904Y49183660D02*
X280805904Y49183660D01*
X280305904Y48283660D02*
X279805904Y49183660D01*
X299855904Y49183660D02*
X299355904Y48283660D01*
X298855904Y48183660D02*
X299855904Y48183660D01*
X299355904Y48283660D02*
X298855904Y49183660D01*
X298855904Y49183660D02*
X299855904Y49183660D01*
X317905904Y48183660D02*
X318905904Y48183660D01*
X318905904Y49183660D02*
X318405904Y48283660D01*
X317905904Y49183660D02*
X318905904Y49183660D01*
X318405904Y48283660D02*
X317905904Y49183660D01*
X46443404Y29133660D02*
X47443404Y29133660D01*
X46943404Y29233660D02*
X46443404Y30133660D01*
X47443404Y30133660D02*
X46943404Y29233660D01*
X46443404Y30133660D02*
X47443404Y30133660D01*
X65993404Y29233660D02*
X65493404Y30133660D01*
X65493404Y29133660D02*
X66493404Y29133660D01*
X65493404Y30133660D02*
X66493404Y30133660D01*
X66493404Y30133660D02*
X65993404Y29233660D01*
X84543404Y30133660D02*
X85543404Y30133660D01*
X84543404Y29133660D02*
X85543404Y29133660D01*
X85543404Y30133660D02*
X85043404Y29233660D01*
X85043404Y29233660D02*
X84543404Y30133660D01*
X104093404Y29233660D02*
X103593404Y30133660D01*
X103593404Y29133660D02*
X104593404Y29133660D01*
X103593404Y30133660D02*
X104593404Y30133660D01*
X104593404Y30133660D02*
X104093404Y29233660D01*
X122643404Y30133660D02*
X123643404Y30133660D01*
X123643404Y30133660D02*
X123143404Y29233660D01*
X123143404Y29233660D02*
X122643404Y30133660D01*
X122643404Y29133660D02*
X123643404Y29133660D01*
X142693404Y30133660D02*
X142193404Y29233660D01*
X141693404Y30133660D02*
X142693404Y30133660D01*
X142193404Y29233660D02*
X141693404Y30133660D01*
X141693404Y29133660D02*
X142693404Y29133660D01*
X161743404Y30133660D02*
X161243404Y29233660D01*
X161243404Y29233660D02*
X160743404Y30133660D01*
X160743404Y29133660D02*
X161743404Y29133660D01*
X160743404Y30133660D02*
X161743404Y30133660D01*
X180793404Y30133660D02*
X180293404Y29233660D01*
X179793404Y29133660D02*
X180793404Y29133660D01*
X179793404Y30133660D02*
X180793404Y30133660D01*
X180293404Y29233660D02*
X179793404Y30133660D01*
X199843404Y30133660D02*
X199343404Y29233660D01*
X199343404Y29233660D02*
X198843404Y30133660D01*
X198843404Y29133660D02*
X199843404Y29133660D01*
X198843404Y30133660D02*
X199843404Y30133660D01*
X218893404Y30133660D02*
X218393404Y29233660D01*
X217893404Y30133660D02*
X218893404Y30133660D01*
X218393404Y29233660D02*
X217893404Y30133660D01*
X217893404Y29133660D02*
X218893404Y29133660D01*
X279805904Y29133660D02*
X280805904Y29133660D01*
X280305904Y29233660D02*
X279805904Y30133660D01*
X279805904Y30133660D02*
X280805904Y30133660D01*
X280805904Y30133660D02*
X280305904Y29233660D01*
X298855904Y30133660D02*
X299855904Y30133660D01*
X299355904Y29233660D02*
X298855904Y30133660D01*
X299855904Y30133660D02*
X299355904Y29233660D01*
X298855904Y29133660D02*
X299855904Y29133660D01*
X317905904Y30133660D02*
X318905904Y30133660D01*
X318405904Y29233660D02*
X317905904Y30133660D01*
X317905904Y29133660D02*
X318905904Y29133660D01*
X318905904Y30133660D02*
X318405904Y29233660D01*
X240323384Y19496500D02*
X239323384Y19496500D01*
X239323384Y18496500D02*
X239823384Y19396500D01*
X239823384Y19396500D02*
X240323384Y18496500D01*
X240323384Y18496500D02*
X239323384Y18496500D01*
X280805904Y19496500D02*
X279805904Y19496500D01*
X280805904Y18496500D02*
X279805904Y18496500D01*
X279805904Y18496500D02*
X280305904Y19396500D01*
X280305904Y19396500D02*
X280805904Y18496500D01*
X299855904Y19496500D02*
X298855904Y19496500D01*
X299355904Y19396500D02*
X299855904Y18496500D01*
X299855904Y18496500D02*
X298855904Y18496500D01*
X298855904Y18496500D02*
X299355904Y19396500D01*
X318905904Y19496500D02*
X317905904Y19496500D01*
X318405904Y19396500D02*
X318905904Y18496500D01*
X318905904Y18496500D02*
X317905904Y18496500D01*
X317905904Y18496500D02*
X318405904Y19396500D01*
X29774404Y18496500D02*
X30274404Y19396500D01*
X30274404Y19396500D02*
X30774404Y18496500D01*
X30774404Y18496500D02*
X29774404Y18496500D01*
X30774404Y19496500D02*
X29774404Y19496500D01*
X77399404Y18496500D02*
X77899404Y19396500D01*
X77899404Y19396500D02*
X78399404Y18496500D01*
X78399404Y19496500D02*
X77399404Y19496500D01*
X78399404Y18496500D02*
X77399404Y18496500D01*
X167886904Y18496500D02*
X168386904Y19396500D01*
X168386904Y19396500D02*
X168886904Y18496500D01*
X168886904Y19496500D02*
X167886904Y19496500D01*
X168886904Y18496500D02*
X167886904Y18496500D01*
X192699404Y18496500D02*
X191699404Y18496500D01*
X191699404Y18496500D02*
X192199404Y19396500D01*
X192699404Y19496500D02*
X191699404Y19496500D01*
X192199404Y19396500D02*
X192699404Y18496500D01*
X216011904Y19396500D02*
X216511904Y18496500D01*
X216511904Y19496500D02*
X215511904Y19496500D01*
X215511904Y18496500D02*
X216011904Y19396500D01*
X216511904Y18496500D02*
X215511904Y18496500D01*
X261754464Y19495965D02*
X260754464Y19495965D01*
X260754464Y18495965D02*
X261254464Y19395965D01*
X261254464Y19395965D02*
X261754464Y18495965D01*
X261754464Y18495965D02*
X260754464Y18495965D01*
X256993904Y87283660D02*
X256493904Y86383660D01*
X255993904Y86283660D02*
X256993904Y86283660D01*
X255993904Y87283660D02*
X256993904Y87283660D01*
X256493904Y86383660D02*
X255993904Y87283660D01*
X24919944Y67233660D02*
X25919944Y67233660D01*
X25419944Y67333660D02*
X24919944Y68233660D01*
X25919944Y68233660D02*
X25419944Y67333660D01*
X24919944Y68233660D02*
X25919944Y68233660D01*
X14106404Y49183660D02*
X13606404Y48283660D01*
X13606404Y48283660D02*
X13106404Y49183660D01*
X13106404Y48183660D02*
X14106404Y48183660D01*
X13106404Y49183660D02*
X14106404Y49183660D01*
X251231404Y48183660D02*
X252231404Y48183660D01*
X252231404Y49183660D02*
X251731404Y48283660D01*
X251731404Y48283660D02*
X251231404Y49183660D01*
X251231404Y49183660D02*
X252231404Y49183660D01*
X20251424Y30133660D02*
X21251424Y30133660D01*
X20751424Y29233660D02*
X20251424Y30133660D01*
X21251424Y30133660D02*
X20751424Y29233660D01*
X20251424Y29133660D02*
X21251424Y29133660D01*
X244086384Y29133660D02*
X245086384Y29133660D01*
X244586384Y29233660D02*
X244086384Y30133660D01*
X245086384Y30133660D02*
X244586384Y29233660D01*
X244086384Y30133660D02*
X245086384Y30133660D01*
X122865144Y19496500D02*
X121865144Y19496500D01*
X122365144Y19396500D02*
X122865144Y18496500D01*
X121865144Y18496500D02*
X122365144Y19396500D01*
X122865144Y18496500D02*
X121865144Y18496500D01*
X140312404Y18496500D02*
X139312404Y18496500D01*
X139312404Y18496500D02*
X139812404Y19396500D01*
X140312404Y19496500D02*
X139312404Y19496500D01*
X139812404Y19396500D02*
X140312404Y18496500D01*
X54086904Y19396500D02*
X54586904Y18496500D01*
X54586904Y19496500D02*
X53586904Y19496500D01*
X53586904Y18496500D02*
X54086904Y19396500D01*
X54586904Y18496500D02*
X53586904Y18496500D01*
X23537385Y19497510D02*
X22537385Y19497510D01*
X23537385Y18497510D02*
X22537385Y18497510D01*
X23037385Y19397510D02*
X23537385Y18497510D01*
X22537385Y18497510D02*
X23037385Y19397510D01*
X6019004Y82735000D02*
X6019004Y82100000D01*
X18719004Y82735000D02*
X18719004Y82100000D01*
X6019004Y94800000D02*
X6654004Y94800000D01*
X18084004Y94800000D02*
X18719004Y94800000D01*
X18719004Y94800000D02*
X18719004Y94165000D01*
X18719004Y82100000D02*
X18084004Y82100000D01*
X6019004Y94165000D02*
X6019004Y94800000D01*
X6019004Y82100000D02*
X6654004Y82100000D01*
X25069004Y82100000D02*
X25704004Y82100000D01*
X25069004Y94800000D02*
X25704004Y94800000D01*
X25069004Y94165000D02*
X25069004Y94800000D01*
X37769004Y94800000D02*
X37769004Y94165000D01*
X25069004Y82735000D02*
X25069004Y82100000D01*
X37134004Y94800000D02*
X37769004Y94800000D01*
X37769004Y82100000D02*
X37134004Y82100000D01*
X37769004Y82735000D02*
X37769004Y82100000D01*
X44119004Y94165000D02*
X44119004Y94800000D01*
X56819004Y82735000D02*
X56819004Y82100000D01*
X44119004Y94800000D02*
X44754004Y94800000D01*
X44119004Y82735000D02*
X44119004Y82100000D01*
X56819004Y94800000D02*
X56819004Y94165000D01*
X56819004Y82100000D02*
X56184004Y82100000D01*
X56184004Y94800000D02*
X56819004Y94800000D01*
X44119004Y82100000D02*
X44754004Y82100000D01*
X75869004Y94800000D02*
X75869004Y94165000D01*
X75869004Y82735000D02*
X75869004Y82100000D01*
X63169004Y94800000D02*
X63804004Y94800000D01*
X63169004Y82735000D02*
X63169004Y82100000D01*
X63169004Y94165000D02*
X63169004Y94800000D01*
X75869004Y82100000D02*
X75234004Y82100000D01*
X63169004Y82100000D02*
X63804004Y82100000D01*
X75234004Y94800000D02*
X75869004Y94800000D01*
X82219004Y94165000D02*
X82219004Y94800000D01*
X94919004Y82735000D02*
X94919004Y82100000D01*
X82219004Y82735000D02*
X82219004Y82100000D01*
X82219004Y94800000D02*
X82854004Y94800000D01*
X94919004Y94800000D02*
X94919004Y94165000D01*
X82219004Y82100000D02*
X82854004Y82100000D01*
X94284004Y94800000D02*
X94919004Y94800000D01*
X94919004Y82100000D02*
X94284004Y82100000D01*
X101269004Y94165000D02*
X101269004Y94800000D01*
X113334004Y94800000D02*
X113969004Y94800000D01*
X113969004Y94800000D02*
X113969004Y94165000D01*
X101269004Y82100000D02*
X101904004Y82100000D01*
X101269004Y82735000D02*
X101269004Y82100000D01*
X101269004Y94800000D02*
X101904004Y94800000D01*
X113969004Y82100000D02*
X113334004Y82100000D01*
X113969004Y82735000D02*
X113969004Y82100000D01*
X133019004Y82735000D02*
X133019004Y82100000D01*
X120319004Y94800000D02*
X120954004Y94800000D01*
X120319004Y94165000D02*
X120319004Y94800000D01*
X120319004Y82735000D02*
X120319004Y82100000D01*
X132384004Y94800000D02*
X133019004Y94800000D01*
X133019004Y94800000D02*
X133019004Y94165000D01*
X133019004Y82100000D02*
X132384004Y82100000D01*
X120319004Y82100000D02*
X120954004Y82100000D01*
X151434004Y94800000D02*
X152069004Y94800000D01*
X152069004Y94800000D02*
X152069004Y94165000D01*
X139369004Y82735000D02*
X139369004Y82100000D01*
X139369004Y82100000D02*
X140004004Y82100000D01*
X139369004Y94165000D02*
X139369004Y94800000D01*
X139369004Y94800000D02*
X140004004Y94800000D01*
X152069004Y82100000D02*
X151434004Y82100000D01*
X152069004Y82735000D02*
X152069004Y82100000D01*
X158419004Y94800000D02*
X159054004Y94800000D01*
X158419004Y82100000D02*
X159054004Y82100000D01*
X170484004Y94800000D02*
X171119004Y94800000D01*
X158419004Y82735000D02*
X158419004Y82100000D01*
X171119004Y82100000D02*
X170484004Y82100000D01*
X171119004Y94800000D02*
X171119004Y94165000D01*
X171119004Y82735000D02*
X171119004Y82100000D01*
X158419004Y94165000D02*
X158419004Y94800000D01*
X189534004Y94800000D02*
X190169004Y94800000D01*
X190169004Y82100000D02*
X189534004Y82100000D01*
X177469004Y82735000D02*
X177469004Y82100000D01*
X190169004Y82735000D02*
X190169004Y82100000D01*
X177469004Y94800000D02*
X178104004Y94800000D01*
X190169004Y94800000D02*
X190169004Y94165000D01*
X177469004Y94165000D02*
X177469004Y94800000D01*
X177469004Y82100000D02*
X178104004Y82100000D01*
X196519004Y82100000D02*
X197154004Y82100000D01*
X196519004Y94165000D02*
X196519004Y94800000D01*
X196519004Y82735000D02*
X196519004Y82100000D01*
X209219004Y94800000D02*
X209219004Y94165000D01*
X208584004Y94800000D02*
X209219004Y94800000D01*
X209219004Y82735000D02*
X209219004Y82100000D01*
X196519004Y94800000D02*
X197154004Y94800000D01*
X209219004Y82100000D02*
X208584004Y82100000D01*
X227634004Y94800000D02*
X228269004Y94800000D01*
X228269004Y82100000D02*
X227634004Y82100000D01*
X228269004Y94800000D02*
X228269004Y94165000D01*
X228269004Y82735000D02*
X228269004Y82100000D01*
X215569004Y82735000D02*
X215569004Y82100000D01*
X215569004Y82100000D02*
X216204004Y82100000D01*
X215569004Y94800000D02*
X216204004Y94800000D01*
X215569004Y94165000D02*
X215569004Y94800000D01*
X234619004Y82735000D02*
X234619004Y82100000D01*
X234619004Y94165000D02*
X234619004Y94800000D01*
X247319004Y82100000D02*
X246684004Y82100000D01*
X247319004Y94800000D02*
X247319004Y94165000D01*
X246684004Y94800000D02*
X247319004Y94800000D01*
X234619004Y94800000D02*
X235254004Y94800000D01*
X234619004Y82100000D02*
X235254004Y82100000D01*
X247319004Y82735000D02*
X247319004Y82100000D01*
X299706504Y82100000D02*
X299071504Y82100000D01*
X299071504Y94800000D02*
X299706504Y94800000D01*
X287006504Y82100000D02*
X287006504Y82735000D01*
X287641504Y82100000D02*
X287006504Y82100000D01*
X299706504Y94800000D02*
X299706504Y94165000D01*
X299706504Y82735000D02*
X299706504Y82100000D01*
X287006504Y94800000D02*
X287641504Y94800000D01*
X287006504Y94165000D02*
X287006504Y94800000D01*
X316216504Y82100000D02*
X315581504Y82100000D01*
X327646504Y94800000D02*
X328281504Y94800000D01*
X315581504Y94165000D02*
X315581504Y94800000D01*
X328281504Y82735000D02*
X328281504Y82100000D01*
X328281504Y94800000D02*
X328281504Y94165000D01*
X315581504Y82100000D02*
X315581504Y82735000D01*
X315581504Y94800000D02*
X316216504Y94800000D01*
X328281504Y82100000D02*
X327646504Y82100000D01*
X46659004Y75750000D02*
X47294004Y75750000D01*
X34594004Y63685000D02*
X34594004Y63050000D01*
X34594004Y75750000D02*
X35229004Y75750000D01*
X34594004Y63050000D02*
X35229004Y63050000D01*
X34594004Y75115000D02*
X34594004Y75750000D01*
X47294004Y63050000D02*
X46659004Y63050000D01*
X47294004Y63685000D02*
X47294004Y63050000D01*
X47294004Y75750000D02*
X47294004Y75115000D01*
X66344004Y63050000D02*
X65709004Y63050000D01*
X65709004Y75750000D02*
X66344004Y75750000D01*
X53644004Y63050000D02*
X54279004Y63050000D01*
X66344004Y75750000D02*
X66344004Y75115000D01*
X53644004Y63685000D02*
X53644004Y63050000D01*
X66344004Y63685000D02*
X66344004Y63050000D01*
X53644004Y75750000D02*
X54279004Y75750000D01*
X53644004Y75115000D02*
X53644004Y75750000D01*
X85394004Y63050000D02*
X84759004Y63050000D01*
X72694004Y75115000D02*
X72694004Y75750000D01*
X72694004Y63685000D02*
X72694004Y63050000D01*
X72694004Y63050000D02*
X73329004Y63050000D01*
X84759004Y75750000D02*
X85394004Y75750000D01*
X85394004Y75750000D02*
X85394004Y75115000D01*
X72694004Y75750000D02*
X73329004Y75750000D01*
X85394004Y63685000D02*
X85394004Y63050000D01*
X104444004Y75750000D02*
X104444004Y75115000D01*
X103809004Y75750000D02*
X104444004Y75750000D01*
X91744004Y63685000D02*
X91744004Y63050000D01*
X104444004Y63685000D02*
X104444004Y63050000D01*
X104444004Y63050000D02*
X103809004Y63050000D01*
X91744004Y75750000D02*
X92379004Y75750000D01*
X91744004Y75115000D02*
X91744004Y75750000D01*
X91744004Y63050000D02*
X92379004Y63050000D01*
X110794004Y63050000D02*
X111429004Y63050000D01*
X122859004Y75750000D02*
X123494004Y75750000D01*
X123494004Y75750000D02*
X123494004Y75115000D01*
X123494004Y63685000D02*
X123494004Y63050000D01*
X123494004Y63050000D02*
X122859004Y63050000D01*
X110794004Y63685000D02*
X110794004Y63050000D01*
X110794004Y75115000D02*
X110794004Y75750000D01*
X110794004Y75750000D02*
X111429004Y75750000D01*
X142544004Y63685000D02*
X142544004Y63050000D01*
X142544004Y75750000D02*
X142544004Y75115000D01*
X141909004Y75750000D02*
X142544004Y75750000D01*
X129844004Y63050000D02*
X130479004Y63050000D01*
X129844004Y75115000D02*
X129844004Y75750000D01*
X129844004Y75750000D02*
X130479004Y75750000D01*
X142544004Y63050000D02*
X141909004Y63050000D01*
X129844004Y63685000D02*
X129844004Y63050000D01*
X160959004Y75750000D02*
X161594004Y75750000D01*
X148894004Y75115000D02*
X148894004Y75750000D01*
X148894004Y63685000D02*
X148894004Y63050000D01*
X161594004Y63050000D02*
X160959004Y63050000D01*
X161594004Y63685000D02*
X161594004Y63050000D01*
X148894004Y63050000D02*
X149529004Y63050000D01*
X148894004Y75750000D02*
X149529004Y75750000D01*
X161594004Y75750000D02*
X161594004Y75115000D01*
X180644004Y63685000D02*
X180644004Y63050000D01*
X167944004Y63050000D02*
X168579004Y63050000D01*
X167944004Y63685000D02*
X167944004Y63050000D01*
X180644004Y63050000D02*
X180009004Y63050000D01*
X167944004Y75115000D02*
X167944004Y75750000D01*
X180009004Y75750000D02*
X180644004Y75750000D01*
X167944004Y75750000D02*
X168579004Y75750000D01*
X180644004Y75750000D02*
X180644004Y75115000D01*
X199694004Y63685000D02*
X199694004Y63050000D01*
X186994004Y63685000D02*
X186994004Y63050000D01*
X199694004Y75750000D02*
X199694004Y75115000D01*
X186994004Y63050000D02*
X187629004Y63050000D01*
X186994004Y75750000D02*
X187629004Y75750000D01*
X199694004Y63050000D02*
X199059004Y63050000D01*
X199059004Y75750000D02*
X199694004Y75750000D01*
X186994004Y75115000D02*
X186994004Y75750000D01*
X206044004Y75115000D02*
X206044004Y75750000D01*
X218109004Y75750000D02*
X218744004Y75750000D01*
X218744004Y75750000D02*
X218744004Y75115000D01*
X206044004Y63050000D02*
X206679004Y63050000D01*
X218744004Y63685000D02*
X218744004Y63050000D01*
X218744004Y63050000D02*
X218109004Y63050000D01*
X206044004Y75750000D02*
X206679004Y75750000D01*
X206044004Y63685000D02*
X206044004Y63050000D01*
X225094004Y63050000D02*
X225729004Y63050000D01*
X237794004Y63685000D02*
X237794004Y63050000D01*
X225094004Y75115000D02*
X225094004Y75750000D01*
X237794004Y75750000D02*
X237794004Y75115000D01*
X237159004Y75750000D02*
X237794004Y75750000D01*
X237794004Y63050000D02*
X237159004Y63050000D01*
X225094004Y75750000D02*
X225729004Y75750000D01*
X225094004Y63685000D02*
X225094004Y63050000D01*
X256844004Y63685000D02*
X256844004Y63050000D01*
X244144004Y63050000D02*
X244779004Y63050000D01*
X256844004Y75750000D02*
X256844004Y75115000D01*
X244144004Y75750000D02*
X244779004Y75750000D01*
X256844004Y63050000D02*
X256209004Y63050000D01*
X244144004Y63685000D02*
X244144004Y63050000D01*
X244144004Y75115000D02*
X244144004Y75750000D01*
X256209004Y75750000D02*
X256844004Y75750000D01*
X275894004Y75750000D02*
X275894004Y75115000D01*
X263194004Y63685000D02*
X263194004Y63050000D01*
X263194004Y75750000D02*
X263829004Y75750000D01*
X275259004Y75750000D02*
X275894004Y75750000D01*
X263194004Y63050000D02*
X263829004Y63050000D01*
X275894004Y63050000D02*
X275259004Y63050000D01*
X275894004Y63685000D02*
X275894004Y63050000D01*
X263194004Y75115000D02*
X263194004Y75750000D01*
X294944004Y75750000D02*
X294944004Y75115000D01*
X282244004Y63050000D02*
X282879004Y63050000D01*
X282244004Y63685000D02*
X282244004Y63050000D01*
X294944004Y63685000D02*
X294944004Y63050000D01*
X282244004Y75115000D02*
X282244004Y75750000D01*
X282244004Y75750000D02*
X282879004Y75750000D01*
X294309004Y75750000D02*
X294944004Y75750000D01*
X294944004Y63050000D02*
X294309004Y63050000D01*
X301294004Y63685000D02*
X301294004Y63050000D01*
X313359004Y75750000D02*
X313994004Y75750000D01*
X313994004Y75750000D02*
X313994004Y75115000D01*
X313994004Y63050000D02*
X313359004Y63050000D01*
X313994004Y63685000D02*
X313994004Y63050000D01*
X301294004Y63050000D02*
X301929004Y63050000D01*
X301294004Y75115000D02*
X301294004Y75750000D01*
X301294004Y75750000D02*
X301929004Y75750000D01*
X332409004Y75750000D02*
X333044004Y75750000D01*
X333044004Y63685000D02*
X333044004Y63050000D01*
X320344004Y63050000D02*
X320979004Y63050000D01*
X320344004Y75115000D02*
X320344004Y75750000D01*
X320344004Y63685000D02*
X320344004Y63050000D01*
X333044004Y63050000D02*
X332409004Y63050000D01*
X320344004Y75750000D02*
X320979004Y75750000D01*
X333044004Y75750000D02*
X333044004Y75115000D01*
X39356504Y44635000D02*
X39356504Y44000000D01*
X39356504Y56700000D02*
X39991504Y56700000D01*
X52056504Y44000000D02*
X51421504Y44000000D01*
X52056504Y44635000D02*
X52056504Y44000000D01*
X39356504Y56065000D02*
X39356504Y56700000D01*
X52056504Y56700000D02*
X52056504Y56065000D01*
X51421504Y56700000D02*
X52056504Y56700000D01*
X39356504Y44000000D02*
X39991504Y44000000D01*
X58406504Y44000000D02*
X59041504Y44000000D01*
X70471504Y56700000D02*
X71106504Y56700000D01*
X71106504Y56700000D02*
X71106504Y56065000D01*
X58406504Y44635000D02*
X58406504Y44000000D01*
X58406504Y56700000D02*
X59041504Y56700000D01*
X71106504Y44635000D02*
X71106504Y44000000D01*
X71106504Y44000000D02*
X70471504Y44000000D01*
X58406504Y56065000D02*
X58406504Y56700000D01*
X77456504Y44635000D02*
X77456504Y44000000D01*
X89521504Y56700000D02*
X90156504Y56700000D01*
X77456504Y56700000D02*
X78091504Y56700000D01*
X77456504Y44000000D02*
X78091504Y44000000D01*
X90156504Y44635000D02*
X90156504Y44000000D01*
X90156504Y56700000D02*
X90156504Y56065000D01*
X77456504Y56065000D02*
X77456504Y56700000D01*
X90156504Y44000000D02*
X89521504Y44000000D01*
X96506504Y44635000D02*
X96506504Y44000000D01*
X96506504Y56065000D02*
X96506504Y56700000D01*
X109206504Y44635000D02*
X109206504Y44000000D01*
X109206504Y56700000D02*
X109206504Y56065000D01*
X96506504Y44000000D02*
X97141504Y44000000D01*
X96506504Y56700000D02*
X97141504Y56700000D01*
X109206504Y44000000D02*
X108571504Y44000000D01*
X108571504Y56700000D02*
X109206504Y56700000D01*
X115556504Y56065000D02*
X115556504Y56700000D01*
X128256504Y44635000D02*
X128256504Y44000000D01*
X127621504Y56700000D02*
X128256504Y56700000D01*
X128256504Y56700000D02*
X128256504Y56065000D01*
X115556504Y44000000D02*
X116191504Y44000000D01*
X128256504Y44000000D02*
X127621504Y44000000D01*
X115556504Y44635000D02*
X115556504Y44000000D01*
X115556504Y56700000D02*
X116191504Y56700000D01*
X134606504Y44000000D02*
X135241504Y44000000D01*
X147306504Y56700000D02*
X147306504Y56065000D01*
X134606504Y44635000D02*
X134606504Y44000000D01*
X147306504Y44000000D02*
X146671504Y44000000D01*
X147306504Y44635000D02*
X147306504Y44000000D01*
X134606504Y56065000D02*
X134606504Y56700000D01*
X146671504Y56700000D02*
X147306504Y56700000D01*
X134606504Y56700000D02*
X135241504Y56700000D01*
X153656504Y44000000D02*
X154291504Y44000000D01*
X153656504Y56065000D02*
X153656504Y56700000D01*
X153656504Y44635000D02*
X153656504Y44000000D01*
X166356504Y44000000D02*
X165721504Y44000000D01*
X165721504Y56700000D02*
X166356504Y56700000D01*
X166356504Y44635000D02*
X166356504Y44000000D01*
X166356504Y56700000D02*
X166356504Y56065000D01*
X153656504Y56700000D02*
X154291504Y56700000D01*
X184771504Y56700000D02*
X185406504Y56700000D01*
X185406504Y44635000D02*
X185406504Y44000000D01*
X172706504Y56700000D02*
X173341504Y56700000D01*
X172706504Y56065000D02*
X172706504Y56700000D01*
X172706504Y44635000D02*
X172706504Y44000000D01*
X172706504Y44000000D02*
X173341504Y44000000D01*
X185406504Y44000000D02*
X184771504Y44000000D01*
X185406504Y56700000D02*
X185406504Y56065000D01*
X191756504Y56065000D02*
X191756504Y56700000D01*
X191756504Y44000000D02*
X192391504Y44000000D01*
X191756504Y44635000D02*
X191756504Y44000000D01*
X204456504Y44635000D02*
X204456504Y44000000D01*
X204456504Y44000000D02*
X203821504Y44000000D01*
X191756504Y56700000D02*
X192391504Y56700000D01*
X204456504Y56700000D02*
X204456504Y56065000D01*
X203821504Y56700000D02*
X204456504Y56700000D01*
X223506504Y44000000D02*
X222871504Y44000000D01*
X210806504Y56065000D02*
X210806504Y56700000D01*
X223506504Y56700000D02*
X223506504Y56065000D01*
X210806504Y44635000D02*
X210806504Y44000000D01*
X210806504Y56700000D02*
X211441504Y56700000D01*
X222871504Y56700000D02*
X223506504Y56700000D01*
X223506504Y44635000D02*
X223506504Y44000000D01*
X210806504Y44000000D02*
X211441504Y44000000D01*
X229856504Y56065000D02*
X229856504Y56700000D01*
X229856504Y56700000D02*
X230491504Y56700000D01*
X242556504Y44000000D02*
X241921504Y44000000D01*
X229856504Y44000000D02*
X230491504Y44000000D01*
X241921504Y56700000D02*
X242556504Y56700000D01*
X242556504Y44635000D02*
X242556504Y44000000D01*
X242556504Y56700000D02*
X242556504Y56065000D01*
X229856504Y44635000D02*
X229856504Y44000000D01*
X294309004Y56700000D02*
X294944004Y56700000D01*
X294944004Y56700000D02*
X294944004Y56065000D01*
X282244004Y56065000D02*
X282244004Y56700000D01*
X282244004Y44635000D02*
X282244004Y44000000D01*
X294944004Y44000000D02*
X294309004Y44000000D01*
X282244004Y44000000D02*
X282879004Y44000000D01*
X282244004Y56700000D02*
X282879004Y56700000D01*
X294944004Y44635000D02*
X294944004Y44000000D01*
X313359004Y56700000D02*
X313994004Y56700000D01*
X313994004Y44635000D02*
X313994004Y44000000D01*
X313994004Y44000000D02*
X313359004Y44000000D01*
X301294004Y44635000D02*
X301294004Y44000000D01*
X301294004Y56700000D02*
X301929004Y56700000D01*
X313994004Y56700000D02*
X313994004Y56065000D01*
X301294004Y56065000D02*
X301294004Y56700000D01*
X301294004Y44000000D02*
X301929004Y44000000D01*
X320344004Y44000000D02*
X320979004Y44000000D01*
X320344004Y56065000D02*
X320344004Y56700000D01*
X320344004Y56700000D02*
X320979004Y56700000D01*
X320344004Y44635000D02*
X320344004Y44000000D01*
X332409004Y56700000D02*
X333044004Y56700000D01*
X333044004Y44635000D02*
X333044004Y44000000D01*
X333044004Y44000000D02*
X332409004Y44000000D01*
X333044004Y56700000D02*
X333044004Y56065000D01*
X61581504Y25585000D02*
X61581504Y24950000D01*
X48881504Y37650000D02*
X49516504Y37650000D01*
X48881504Y37015000D02*
X48881504Y37650000D01*
X48881504Y25585000D02*
X48881504Y24950000D01*
X61581504Y37650000D02*
X61581504Y37015000D01*
X60946504Y37650000D02*
X61581504Y37650000D01*
X48881504Y24950000D02*
X49516504Y24950000D01*
X61581504Y24950000D02*
X60946504Y24950000D01*
X79996504Y37650000D02*
X80631504Y37650000D01*
X80631504Y25585000D02*
X80631504Y24950000D01*
X67931504Y25585000D02*
X67931504Y24950000D01*
X67931504Y24950000D02*
X68566504Y24950000D01*
X80631504Y37650000D02*
X80631504Y37015000D01*
X67931504Y37650000D02*
X68566504Y37650000D01*
X67931504Y37015000D02*
X67931504Y37650000D01*
X80631504Y24950000D02*
X79996504Y24950000D01*
X86981504Y37650000D02*
X87616504Y37650000D01*
X86981504Y25585000D02*
X86981504Y24950000D01*
X99681504Y24950000D02*
X99046504Y24950000D01*
X86981504Y24950000D02*
X87616504Y24950000D01*
X99681504Y25585000D02*
X99681504Y24950000D01*
X86981504Y37015000D02*
X86981504Y37650000D01*
X99681504Y37650000D02*
X99681504Y37015000D01*
X99046504Y37650000D02*
X99681504Y37650000D01*
X106031504Y25585000D02*
X106031504Y24950000D01*
X118731504Y37650000D02*
X118731504Y37015000D01*
X106031504Y37650000D02*
X106666504Y37650000D01*
X118731504Y25585000D02*
X118731504Y24950000D01*
X118731504Y24950000D02*
X118096504Y24950000D01*
X118096504Y37650000D02*
X118731504Y37650000D01*
X106031504Y37015000D02*
X106031504Y37650000D01*
X106031504Y24950000D02*
X106666504Y24950000D01*
X137781504Y24950000D02*
X137146504Y24950000D01*
X125081504Y37015000D02*
X125081504Y37650000D01*
X125081504Y24950000D02*
X125716504Y24950000D01*
X137781504Y25585000D02*
X137781504Y24950000D01*
X137146504Y37650000D02*
X137781504Y37650000D01*
X137781504Y37650000D02*
X137781504Y37015000D01*
X125081504Y25585000D02*
X125081504Y24950000D01*
X125081504Y37650000D02*
X125716504Y37650000D01*
X144131504Y24950000D02*
X144766504Y24950000D01*
X156831504Y25585000D02*
X156831504Y24950000D01*
X156196504Y37650000D02*
X156831504Y37650000D01*
X144131504Y37650000D02*
X144766504Y37650000D01*
X144131504Y25585000D02*
X144131504Y24950000D01*
X144131504Y37015000D02*
X144131504Y37650000D01*
X156831504Y24950000D02*
X156196504Y24950000D01*
X156831504Y37650000D02*
X156831504Y37015000D01*
X175246504Y37650000D02*
X175881504Y37650000D01*
X163181504Y25585000D02*
X163181504Y24950000D01*
X163181504Y24950000D02*
X163816504Y24950000D01*
X175881504Y37650000D02*
X175881504Y37015000D01*
X163181504Y37015000D02*
X163181504Y37650000D01*
X163181504Y37650000D02*
X163816504Y37650000D01*
X175881504Y24950000D02*
X175246504Y24950000D01*
X175881504Y25585000D02*
X175881504Y24950000D01*
X182231504Y24950000D02*
X182866504Y24950000D01*
X194931504Y24950000D02*
X194296504Y24950000D01*
X194296504Y37650000D02*
X194931504Y37650000D01*
X194931504Y37650000D02*
X194931504Y37015000D01*
X194931504Y25585000D02*
X194931504Y24950000D01*
X182231504Y37650000D02*
X182866504Y37650000D01*
X182231504Y25585000D02*
X182231504Y24950000D01*
X182231504Y37015000D02*
X182231504Y37650000D01*
X201281504Y25585000D02*
X201281504Y24950000D01*
X213346504Y37650000D02*
X213981504Y37650000D01*
X213981504Y24950000D02*
X213346504Y24950000D01*
X213981504Y25585000D02*
X213981504Y24950000D01*
X201281504Y37015000D02*
X201281504Y37650000D01*
X201281504Y24950000D02*
X201916504Y24950000D01*
X201281504Y37650000D02*
X201916504Y37650000D01*
X213981504Y37650000D02*
X213981504Y37015000D01*
X233031504Y25585000D02*
X233031504Y24950000D01*
X220331504Y24950000D02*
X220966504Y24950000D01*
X233031504Y37650000D02*
X233031504Y37015000D01*
X232396504Y37650000D02*
X233031504Y37650000D01*
X220331504Y37650000D02*
X220966504Y37650000D01*
X233031504Y24950000D02*
X232396504Y24950000D01*
X220331504Y37015000D02*
X220331504Y37650000D01*
X220331504Y25585000D02*
X220331504Y24950000D01*
X282244004Y25585000D02*
X282244004Y24950000D01*
X282244004Y24950000D02*
X282879004Y24950000D01*
X294944004Y37650000D02*
X294944004Y37015000D01*
X282244004Y37015000D02*
X282244004Y37650000D01*
X294944004Y25585000D02*
X294944004Y24950000D01*
X294944004Y24950000D02*
X294309004Y24950000D01*
X294309004Y37650000D02*
X294944004Y37650000D01*
X282244004Y37650000D02*
X282879004Y37650000D01*
X313994004Y24950000D02*
X313359004Y24950000D01*
X313359004Y37650000D02*
X313994004Y37650000D01*
X313994004Y37650000D02*
X313994004Y37015000D01*
X301294004Y37650000D02*
X301929004Y37650000D01*
X301294004Y37015000D02*
X301294004Y37650000D01*
X301294004Y24950000D02*
X301929004Y24950000D01*
X313994004Y25585000D02*
X313994004Y24950000D01*
X301294004Y25585000D02*
X301294004Y24950000D01*
X320344004Y37015000D02*
X320344004Y37650000D01*
X320344004Y25585000D02*
X320344004Y24950000D01*
X333044004Y37650000D02*
X333044004Y37015000D01*
X320344004Y24950000D02*
X320979004Y24950000D01*
X320344004Y37650000D02*
X320979004Y37650000D01*
X332409004Y37650000D02*
X333044004Y37650000D01*
X333044004Y25585000D02*
X333044004Y24950000D01*
X333044004Y24950000D02*
X332409004Y24950000D01*
X241761484Y17965000D02*
X241761484Y18600000D01*
X254461484Y5900000D02*
X254461484Y6535000D01*
X254461484Y18600000D02*
X253826484Y18600000D01*
X241761484Y18600000D02*
X242396484Y18600000D01*
X254461484Y17965000D02*
X254461484Y18600000D01*
X241761484Y5900000D02*
X242396484Y5900000D01*
X253826484Y5900000D02*
X254461484Y5900000D01*
X241761484Y6535000D02*
X241761484Y5900000D01*
X282244004Y18600000D02*
X282879004Y18600000D01*
X282244004Y6535000D02*
X282244004Y5900000D01*
X294944004Y6535000D02*
X294944004Y5900000D01*
X282244004Y5900000D02*
X282879004Y5900000D01*
X294944004Y18600000D02*
X294944004Y17965000D01*
X282244004Y17965000D02*
X282244004Y18600000D01*
X294944004Y5900000D02*
X294309004Y5900000D01*
X294309004Y18600000D02*
X294944004Y18600000D01*
X313994004Y18600000D02*
X313994004Y17965000D01*
X301294004Y5900000D02*
X301929004Y5900000D01*
X313994004Y6535000D02*
X313994004Y5900000D01*
X301294004Y17965000D02*
X301294004Y18600000D01*
X301294004Y18600000D02*
X301929004Y18600000D01*
X301294004Y6535000D02*
X301294004Y5900000D01*
X313994004Y5900000D02*
X313359004Y5900000D01*
X313359004Y18600000D02*
X313994004Y18600000D01*
X320344004Y6535000D02*
X320344004Y5900000D01*
X333044004Y5900000D02*
X332409004Y5900000D01*
X333044004Y6535000D02*
X333044004Y5900000D01*
X320344004Y18600000D02*
X320979004Y18600000D01*
X320344004Y17965000D02*
X320344004Y18600000D01*
X332409004Y18600000D02*
X333044004Y18600000D01*
X320344004Y5900000D02*
X320979004Y5900000D01*
X333044004Y18600000D02*
X333044004Y17965000D01*
X21100000Y18600000D02*
X20465000Y18600000D01*
X8400000Y5900000D02*
X9035000Y5900000D01*
X21100000Y17965000D02*
X21100000Y18600000D01*
X8400000Y18600000D02*
X9035000Y18600000D01*
X8400000Y17965000D02*
X8400000Y18600000D01*
X21100000Y5900000D02*
X21100000Y6535000D01*
X20465000Y5900000D02*
X21100000Y5900000D01*
X8400000Y6535000D02*
X8400000Y5900000D01*
X32212500Y6535000D02*
X32212500Y5900000D01*
X44912500Y5900000D02*
X44912500Y6535000D01*
X32212500Y17965000D02*
X32212500Y18600000D01*
X44912500Y18600000D02*
X44277500Y18600000D01*
X32212500Y18600000D02*
X32847500Y18600000D01*
X44912500Y17965000D02*
X44912500Y18600000D01*
X44277500Y5900000D02*
X44912500Y5900000D01*
X32212500Y5900000D02*
X32847500Y5900000D01*
X56025004Y6535000D02*
X56025004Y5900000D01*
X68725004Y5900000D02*
X68725004Y6535000D01*
X56025004Y5900000D02*
X56660004Y5900000D01*
X68725004Y17965000D02*
X68725004Y18600000D01*
X68090004Y5900000D02*
X68725004Y5900000D01*
X56025004Y17965000D02*
X56025004Y18600000D01*
X68725004Y18600000D02*
X68090004Y18600000D01*
X56025004Y18600000D02*
X56660004Y18600000D01*
X92537504Y18600000D02*
X91902504Y18600000D01*
X91902504Y5900000D02*
X92537504Y5900000D01*
X79837504Y17965000D02*
X79837504Y18600000D01*
X92537504Y17965000D02*
X92537504Y18600000D01*
X79837504Y5900000D02*
X80472504Y5900000D01*
X79837504Y6535000D02*
X79837504Y5900000D01*
X79837504Y18600000D02*
X80472504Y18600000D01*
X92537504Y5900000D02*
X92537504Y6535000D01*
X170325004Y18600000D02*
X170960004Y18600000D01*
X183025004Y17965000D02*
X183025004Y18600000D01*
X170325004Y5900000D02*
X170960004Y5900000D01*
X183025004Y18600000D02*
X182390004Y18600000D01*
X170325004Y17965000D02*
X170325004Y18600000D01*
X182390004Y5900000D02*
X183025004Y5900000D01*
X183025004Y5900000D02*
X183025004Y6535000D01*
X170325004Y6535000D02*
X170325004Y5900000D01*
X206837504Y18600000D02*
X206202504Y18600000D01*
X194137504Y18600000D02*
X194772504Y18600000D01*
X206837504Y5900000D02*
X206837504Y6535000D01*
X194137504Y17965000D02*
X194137504Y18600000D01*
X206837504Y17965000D02*
X206837504Y18600000D01*
X194137504Y6535000D02*
X194137504Y5900000D01*
X206202504Y5900000D02*
X206837504Y5900000D01*
X194137504Y5900000D02*
X194772504Y5900000D01*
X230650004Y5900000D02*
X230650004Y6535000D01*
X217950004Y17965000D02*
X217950004Y18600000D01*
X230015004Y5900000D02*
X230650004Y5900000D01*
X230650004Y18600000D02*
X230015004Y18600000D01*
X217950004Y6535000D02*
X217950004Y5900000D01*
X230650004Y17965000D02*
X230650004Y18600000D01*
X217950004Y5900000D02*
X218585004Y5900000D01*
X217950004Y18600000D02*
X218585004Y18600000D01*
X263192480Y17965000D02*
X263192480Y18600000D01*
X263192480Y5900000D02*
X263827480Y5900000D01*
X275892480Y6535000D02*
X275892480Y5900000D01*
X263192480Y18600000D02*
X263827480Y18600000D01*
X275892480Y5900000D02*
X275257480Y5900000D01*
X275257480Y18600000D02*
X275892480Y18600000D01*
X275892480Y18600000D02*
X275892480Y17965000D01*
X263192480Y6535000D02*
X263192480Y5900000D01*
X270497004Y94800000D02*
X271132004Y94800000D01*
X258432004Y82100000D02*
X258432004Y82735000D01*
X258432004Y94165000D02*
X258432004Y94800000D01*
X271132004Y82735000D02*
X271132004Y82100000D01*
X259067004Y82100000D02*
X258432004Y82100000D01*
X271132004Y94800000D02*
X271132004Y94165000D01*
X271132004Y82100000D02*
X270497004Y82100000D01*
X258432004Y94800000D02*
X259067004Y94800000D01*
X10782004Y63050000D02*
X10782004Y63685000D01*
X23482004Y63685000D02*
X23482004Y63050000D01*
X22847004Y75750000D02*
X23482004Y75750000D01*
X10782004Y75115000D02*
X10782004Y75750000D01*
X23482004Y63050000D02*
X22847004Y63050000D01*
X11417004Y63050000D02*
X10782004Y63050000D01*
X10782004Y75750000D02*
X11417004Y75750000D01*
X23482004Y75750000D02*
X23482004Y75115000D01*
X16179504Y44000000D02*
X15544504Y44000000D01*
X28244504Y56700000D02*
X28244504Y56065000D01*
X15544504Y56700000D02*
X16179504Y56700000D01*
X15544504Y44000000D02*
X15544504Y44635000D01*
X27609504Y56700000D02*
X28244504Y56700000D01*
X15544504Y56065000D02*
X15544504Y56700000D01*
X28244504Y44000000D02*
X27609504Y44000000D01*
X28244504Y44635000D02*
X28244504Y44000000D01*
X254304504Y44000000D02*
X253669504Y44000000D01*
X253669504Y56700000D02*
X254304504Y56700000D01*
X266369504Y44635000D02*
X266369504Y44000000D01*
X266369504Y44000000D02*
X265734504Y44000000D01*
X265734504Y56700000D02*
X266369504Y56700000D01*
X253669504Y44000000D02*
X253669504Y44635000D01*
X253669504Y56065000D02*
X253669504Y56700000D01*
X266369504Y56700000D02*
X266369504Y56065000D01*
X22689024Y24950000D02*
X22689024Y25585000D01*
X35389024Y37650000D02*
X35389024Y37015000D01*
X22689024Y37015000D02*
X22689024Y37650000D01*
X35389024Y24950000D02*
X34754024Y24950000D01*
X23324024Y24950000D02*
X22689024Y24950000D01*
X22689024Y37650000D02*
X23324024Y37650000D01*
X34754024Y37650000D02*
X35389024Y37650000D01*
X35389024Y25585000D02*
X35389024Y24950000D01*
X258589484Y37650000D02*
X259224484Y37650000D01*
X259224484Y25585000D02*
X259224484Y24950000D01*
X259224484Y24950000D02*
X258589484Y24950000D01*
X246524484Y37650000D02*
X247159484Y37650000D01*
X246524484Y24950000D02*
X246524484Y25585000D01*
X247159484Y24950000D02*
X246524484Y24950000D01*
X246524484Y37015000D02*
X246524484Y37650000D01*
X259224484Y37650000D02*
X259224484Y37015000D01*
X121113004Y18600000D02*
X121113004Y17965000D01*
X108413004Y5900000D02*
X108413004Y6535000D01*
X108413004Y18600000D02*
X109048004Y18600000D01*
X109048004Y5900000D02*
X108413004Y5900000D01*
X121113004Y6535000D02*
X121113004Y5900000D01*
X121113004Y5900000D02*
X120478004Y5900000D01*
X108413004Y17965000D02*
X108413004Y18600000D01*
X120478004Y18600000D02*
X121113004Y18600000D01*
X154450504Y6535000D02*
X154450504Y5900000D01*
X141750504Y18600000D02*
X142385504Y18600000D01*
X154450504Y5900000D02*
X153815504Y5900000D01*
X141750504Y17965000D02*
X141750504Y18600000D01*
X154450504Y18600000D02*
X154450504Y17965000D01*
X153815504Y18600000D02*
X154450504Y18600000D01*
X142385504Y5900000D02*
X141750504Y5900000D01*
X141750504Y5900000D02*
X141750504Y6535000D01*
X318358984Y67333280D02*
X317858984Y68233280D01*
X317858984Y68233280D02*
X318858984Y68233280D01*
X318858984Y68233280D02*
X318358984Y67333280D01*
X317858984Y67233280D02*
X318858984Y67233280D01*
D12*
X332885000Y77020000D03*
D13*
X330345000Y77020000D03*
X327805000Y77020000D03*
X325265000Y77020000D03*
X322725000Y77020000D03*
X320185000Y77020000D03*
X317645000Y77020000D03*
X315105000Y77020000D03*
X312565000Y77020000D03*
X310025000Y77020000D03*
X307485000Y77020000D03*
X304945000Y77020000D03*
X304945000Y61780000D03*
X307485000Y61780000D03*
X310025000Y61780000D03*
X312565000Y61780000D03*
X315105000Y61780000D03*
X317645000Y61780000D03*
X320185000Y61780000D03*
X322725000Y61780000D03*
X325265000Y61780000D03*
X327805000Y61780000D03*
X330345000Y61780000D03*
X332885000Y61780000D03*
M02*
