M48
; DRILL file {KiCad (6.0.7)} date Tue Aug 30 19:15:42 2022
; FORMAT={3:3/ absolute / metric / suppress leading zeros}
; #@! TF.CreationDate,2022-08-30T19:15:42+09:00
; #@! TF.GenerationSoftware,Kicad,Pcbnew,(6.0.7)
; #@! TF.FileFunction,MixedPlating,1,2
FMAT,2
METRIC,TZ
; #@! TA.AperFunction,Plated,PTH,ViaDrill
T1C0.400
; #@! TA.AperFunction,Plated,PTH,ComponentDrill
T2C0.813
; #@! TA.AperFunction,Plated,PTH,ComponentDrill
T3C1.500
; #@! TA.AperFunction,Plated,PTH,ComponentDrill
T4C2.300
; #@! TA.AperFunction,NonPlated,NPTH,ComponentDrill
T5C1.700
; #@! TA.AperFunction,NonPlated,NPTH,ComponentDrill
T6C4.000
%
G90
G05
T1
X4034Y19394
X7321Y96546
X164769Y96546
X164769Y14869
X262560Y57970
X268115Y27966
X273258Y83784
X273354Y64734
X273830Y46064
X273830Y20822
X282402Y61780
X283831Y47016
X283831Y60351
X292880Y27014
X301452Y59081
X302643Y27966
X302881Y57684
X312370Y21537
X321693Y23204
X331456Y96546
X335028Y19394
T2
X4081Y89784
X4081Y83784
X4324Y71875
X4324Y66875
X13606Y51684
X13606Y45684
X20751Y32634
X20751Y26634
X23037Y21998
X23037Y15998
X23131Y89784
X23131Y83784
X25420Y70734
X25420Y64734
X30274Y21996
X30274Y15997
X32656Y70734
X32656Y64734
X37418Y51684
X37418Y45684
X42181Y89784
X42181Y83784
X46943Y32634
X46943Y26634
X51706Y70734
X51706Y64734
X54087Y21996
X54087Y15997
X56468Y51684
X56468Y45684
X61231Y89784
X61231Y83784
X65993Y32634
X65993Y26634
X70756Y70734
X70756Y64734
X75518Y51684
X75518Y45684
X77899Y21996
X77899Y15997
X80281Y89784
X80281Y83784
X85043Y32634
X85043Y26634
X89806Y70734
X89806Y64734
X94568Y51684
X94568Y45684
X99331Y89784
X99331Y83784
X104093Y32634
X104093Y26634
X108856Y70734
X108856Y64734
X113665Y51684
X113665Y45684
X118381Y89784
X118381Y83784
X122365Y21996
X122365Y15997
X123143Y32634
X123143Y26634
X127906Y70734
X127906Y64734
X132668Y51684
X132668Y45684
X137431Y89784
X137431Y83784
X139812Y21996
X139812Y15997
X142193Y32634
X142193Y26634
X146956Y70734
X146956Y64734
X151718Y51684
X151718Y45684
X156481Y89784
X156481Y83784
X161243Y32634
X161243Y26634
X166006Y70734
X166006Y64734
X168387Y21996
X168387Y15997
X170768Y51684
X170768Y45684
X175531Y89784
X175531Y83784
X180293Y32634
X180293Y26634
X185056Y70734
X185056Y64734
X189818Y51684
X189818Y45684
X192199Y21996
X192199Y15997
X194581Y89784
X194581Y83784
X199343Y32634
X199343Y26634
X204106Y70734
X204106Y64734
X208868Y51684
X208868Y45684
X213631Y89784
X213631Y83784
X216012Y21996
X216012Y15997
X218393Y32634
X218393Y26634
X223156Y70734
X223156Y64734
X227918Y51684
X227918Y45684
X232681Y89784
X232681Y83784
X239823Y21996
X239823Y15997
X242206Y70734
X242206Y64734
X244586Y32634
X244586Y26634
X251731Y51684
X251731Y45684
X256494Y89784
X256494Y83784
X261254Y21996
X261254Y15996
X261256Y70734
X261256Y64734
X280306Y70734
X280306Y64734
X280306Y51684
X280306Y45684
X280306Y32634
X280306Y26634
X280306Y21996
X280306Y15997
X285068Y89784
X285068Y83784
X299356Y70734
X299356Y64734
X299356Y51684
X299356Y45684
X299356Y32634
X299356Y26634
X299356Y21996
X299356Y15997
X304945Y77020
X304945Y61780
X307485Y77020
X307485Y61780
X310025Y77020
X310025Y61780
X312565Y77020
X312565Y61780
X313643Y89784
X313643Y83784
X315105Y77020
X315105Y61780
X317645Y77020
X317645Y61780
X318359Y70733
X318359Y64733
X318406Y51684
X318406Y45684
X318406Y32634
X318406Y26634
X318406Y21996
X318406Y15997
X320185Y77020
X320185Y61780
X322725Y77020
X322725Y61780
X325265Y77020
X325265Y61780
X327805Y77020
X327805Y61780
X330345Y77020
X330345Y61780
X332885Y77020
X332885Y61780
T3
X6814Y72885
X6814Y65875
X8559Y90990
X10940Y14790
X13322Y71940
X14909Y93530
X17290Y17330
X18085Y52890
X19672Y74480
X24435Y55430
X25229Y33840
X27609Y90990
X31579Y36380
X33959Y93530
X34753Y14790
X37134Y71940
X41103Y17330
X41897Y52890
X43484Y74480
X46659Y90990
X48247Y55430
X51422Y33840
X53009Y93530
X56184Y71940
X57772Y36380
X58565Y14790
X60947Y52890
X62534Y74480
X64915Y17330
X65709Y90990
X67297Y55430
X70472Y33840
X72059Y93530
X75234Y71940
X76822Y36380
X79997Y52890
X81584Y74480
X82378Y14790
X84759Y90990
X86347Y55430
X88728Y17330
X89522Y33840
X91109Y93530
X94284Y71940
X95872Y36380
X99047Y52890
X100634Y74480
X103809Y90990
X105397Y55430
X108572Y33840
X110159Y93530
X110953Y14790
X113334Y71940
X114922Y36380
X117303Y17330
X118097Y52890
X119684Y74480
X122859Y90990
X124447Y55430
X127622Y33840
X129209Y93530
X132384Y71940
X133972Y36380
X137147Y52890
X138734Y74480
X141909Y90990
X143497Y55430
X144291Y14790
X146672Y33840
X148259Y93530
X150641Y17330
X151434Y71940
X153022Y36380
X156197Y52890
X157784Y74480
X160959Y90990
X162547Y55430
X165722Y33840
X167309Y93530
X170484Y71940
X172072Y36380
X172865Y14790
X175247Y52890
X176834Y74480
X179215Y17330
X180009Y90990
X181597Y55430
X184772Y33840
X186359Y93530
X189534Y71940
X191122Y36380
X194297Y52890
X195884Y74480
X196678Y14790
X199059Y90990
X200647Y55430
X203028Y17330
X203822Y33840
X205409Y93530
X208584Y71940
X210172Y36380
X213347Y52890
X214934Y74480
X218109Y90990
X219697Y55430
X220490Y14790
X222872Y33840
X224459Y93530
X226840Y17330
X227634Y71940
X229222Y36380
X232397Y52890
X233984Y74480
X237159Y90990
X238747Y55430
X243509Y93530
X244301Y14790
X246684Y71940
X249064Y33840
X250651Y17330
X253034Y74480
X255414Y36380
X256210Y52890
X260972Y90990
X262560Y55430
X265732Y14790
X265734Y71940
X267322Y93530
X272082Y17330
X272084Y74480
X284784Y71940
X284784Y52890
X284784Y33840
X284784Y14790
X289547Y90990
X291134Y74480
X291134Y55430
X291134Y36380
X291134Y17330
X295897Y93530
X303834Y71940
X303834Y52890
X303834Y33840
X303834Y14790
X310184Y74480
X310184Y55430
X310184Y36380
X310184Y17330
X318122Y90990
X322884Y71940
X322884Y52890
X322884Y33840
X322884Y14790
X324472Y93530
X329234Y74480
X329234Y55430
X329234Y36380
X329234Y17330
T4
X3000Y16000
X3000Y98000
X3000Y50500
X3000Y3000
X86250Y98000
X86250Y3000
X103500Y16000
X112272Y59000
X169500Y98000
X169500Y3000
X226772Y59000
X235500Y16000
X252750Y98000
X252750Y3000
X336000Y16000
X336000Y98000
X336000Y50500
X336000Y3000
T5
X7289Y88450
X9670Y12250
X12052Y69400
X16815Y50350
X17449Y88450
X19830Y12250
X22212Y69400
X23959Y31300
X26339Y88450
X26975Y50350
X33483Y12250
X34119Y31300
X35864Y69400
X36499Y88450
X40627Y50350
X43643Y12250
X45389Y88450
X46024Y69400
X50152Y31300
X50787Y50350
X54914Y69400
X55549Y88450
X57295Y12250
X59677Y50350
X60312Y31300
X64439Y88450
X65074Y69400
X67455Y12250
X69202Y31300
X69837Y50350
X73964Y69400
X74599Y88450
X78727Y50350
X79362Y31300
X81108Y12250
X83489Y88450
X84124Y69400
X88252Y31300
X88887Y50350
X91268Y12250
X93014Y69400
X93649Y88450
X97777Y50350
X98412Y31300
X102539Y88450
X103174Y69400
X107302Y31300
X107937Y50350
X109683Y12250
X112064Y69400
X112699Y88450
X116827Y50350
X117462Y31300
X119843Y12250
X121589Y88450
X122224Y69400
X126352Y31300
X126987Y50350
X131114Y69400
X131749Y88450
X135877Y50350
X136512Y31300
X140639Y88450
X141274Y69400
X143021Y12250
X145402Y31300
X146037Y50350
X150164Y69400
X150799Y88450
X153181Y12250
X154927Y50350
X155562Y31300
X159689Y88450
X160324Y69400
X164452Y31300
X165087Y50350
X169214Y69400
X169849Y88450
X171595Y12250
X173977Y50350
X174612Y31300
X178739Y88450
X179374Y69400
X181755Y12250
X183502Y31300
X184137Y50350
X188264Y69400
X188899Y88450
X193027Y50350
X193662Y31300
X195408Y12250
X197789Y88450
X198424Y69400
X202552Y31300
X203187Y50350
X205568Y12250
X207314Y69400
X207949Y88450
X212077Y50350
X212712Y31300
X216839Y88450
X217474Y69400
X219220Y12250
X221602Y31300
X222237Y50350
X226364Y69400
X226999Y88450
X229380Y12250
X231127Y50350
X231762Y31300
X235889Y88450
X236524Y69400
X241287Y50350
X243031Y12250
X245414Y69400
X246049Y88450
X247794Y31300
X253191Y12250
X254940Y50350
X255574Y69400
X257954Y31300
X259702Y88450
X264462Y12250
X264464Y69400
X265100Y50350
X269862Y88450
X274622Y12250
X274624Y69400
X283514Y69400
X283514Y50350
X283514Y31300
X283514Y12250
X288277Y88450
X293674Y69400
X293674Y50350
X293674Y31300
X293674Y12250
X298437Y88450
X302564Y69400
X302564Y50350
X302564Y31300
X302564Y12250
X312724Y69400
X312724Y50350
X312724Y31300
X312724Y12250
X316852Y88450
X321614Y69400
X321614Y50350
X321614Y31300
X321614Y12250
X327012Y88450
X331774Y69400
X331774Y50350
X331774Y31300
X331774Y12250
T6
X12369Y88450
X14750Y12250
X17132Y69400
X21895Y50350
X29039Y31300
X31419Y88450
X38563Y12250
X40944Y69400
X45707Y50350
X50469Y88450
X55232Y31300
X59994Y69400
X62375Y12250
X64757Y50350
X69519Y88450
X74282Y31300
X79044Y69400
X83807Y50350
X86188Y12250
X88569Y88450
X93332Y31300
X98094Y69400
X102857Y50350
X107619Y88450
X112382Y31300
X114763Y12250
X117144Y69400
X121907Y50350
X126669Y88450
X131432Y31300
X136194Y69400
X140957Y50350
X145719Y88450
X148101Y12250
X150482Y31300
X155244Y69400
X160007Y50350
X164769Y88450
X169532Y31300
X174294Y69400
X176675Y12250
X179057Y50350
X183819Y88450
X188582Y31300
X193344Y69400
X198107Y50350
X200488Y12250
X202869Y88450
X207632Y31300
X212394Y69400
X217157Y50350
X221919Y88450
X224300Y12250
X226682Y31300
X231444Y69400
X236207Y50350
X240969Y88450
X248111Y12250
X250494Y69400
X252874Y31300
X260020Y50350
X264782Y88450
X269542Y12250
X269544Y69400
X288594Y69400
X288594Y50350
X288594Y31300
X288594Y12250
X293357Y88450
X307644Y69400
X307644Y50350
X307644Y31300
X307644Y12250
X321932Y88450
X326694Y69400
X326694Y50350
X326694Y31300
X326694Y12250
T0
M30
