G04 #@! TF.GenerationSoftware,KiCad,Pcbnew,(6.0.7)*
G04 #@! TF.CreationDate,2022-08-30T19:15:33+09:00*
G04 #@! TF.ProjectId,keyboard-layouter-playground,6b657962-6f61-4726-942d-6c61796f7574,rev?*
G04 #@! TF.SameCoordinates,PX17eef3cPY7a5a53a*
G04 #@! TF.FileFunction,Soldermask,Top*
G04 #@! TF.FilePolarity,Negative*
%FSLAX46Y46*%
G04 Gerber Fmt 4.6, Leading zero omitted, Abs format (unit mm)*
G04 Created by KiCad (PCBNEW (6.0.7)) date 2022-08-30 19:15:33*
%MOMM*%
%LPD*%
G01*
G04 APERTURE LIST*
%ADD10R,1.300000X1.400000*%
%ADD11C,1.700000*%
%ADD12C,4.000000*%
%ADD13C,2.200000*%
%ADD14C,4.200000*%
%ADD15R,1.524000X1.524000*%
%ADD16C,1.524000*%
%ADD17C,2.300000*%
%ADD18C,0.800000*%
G04 APERTURE END LIST*
D10*
X4080904Y88558660D03*
X4080904Y85008660D03*
X23130904Y88558660D03*
X23130904Y85008660D03*
X42180904Y88558660D03*
X42180904Y85008660D03*
X61230904Y88558660D03*
X61230904Y85008660D03*
X80280904Y88558660D03*
X80280904Y85008660D03*
X99330904Y88558660D03*
X99330904Y85008660D03*
X118380904Y88558660D03*
X118380904Y85008660D03*
X137430904Y88558660D03*
X137430904Y85008660D03*
X156480904Y88558660D03*
X156480904Y85008660D03*
X175530904Y88558660D03*
X175530904Y85008660D03*
X194580904Y88558660D03*
X194580904Y85008660D03*
X213630904Y88558660D03*
X213630904Y85008660D03*
X232680904Y88558660D03*
X232680904Y85008660D03*
X285068404Y88558660D03*
X285068404Y85008660D03*
X313643404Y88558660D03*
X313643404Y85008660D03*
X32655904Y69508660D03*
X32655904Y65958660D03*
X51705904Y69508660D03*
X51705904Y65958660D03*
X70755904Y69508660D03*
X70755904Y65958660D03*
X89805904Y69508660D03*
X89805904Y65958660D03*
X108855904Y69508660D03*
X108855904Y65958660D03*
X127905904Y69508660D03*
X127905904Y65958660D03*
X146955904Y69508660D03*
X146955904Y65958660D03*
X166005904Y69508660D03*
X166005904Y65958660D03*
X185055904Y69508660D03*
X185055904Y65958660D03*
X204105904Y69508660D03*
X204105904Y65958660D03*
X223155904Y69508660D03*
X223155904Y65958660D03*
X242205904Y69508660D03*
X242205904Y65958660D03*
X261255904Y69508660D03*
X261255904Y65958660D03*
X280305904Y69508660D03*
X280305904Y65958660D03*
X299355904Y69508660D03*
X299355904Y65958660D03*
X37418404Y50458660D03*
X37418404Y46908660D03*
X56468404Y50458660D03*
X56468404Y46908660D03*
X75518404Y50458660D03*
X75518404Y46908660D03*
X94568404Y50458660D03*
X94568404Y46908660D03*
X113664585Y50458660D03*
X113664585Y46908660D03*
X132668404Y50458660D03*
X132668404Y46908660D03*
X151718404Y50458660D03*
X151718404Y46908660D03*
X170768404Y50458660D03*
X170768404Y46908660D03*
X189818404Y50458660D03*
X189818404Y46908660D03*
X208868404Y50458660D03*
X208868404Y46908660D03*
X227918404Y50458660D03*
X227918404Y46908660D03*
X280305904Y50458660D03*
X280305904Y46908660D03*
X299355904Y50458660D03*
X299355904Y46908660D03*
X318405904Y50458660D03*
X318405904Y46908660D03*
X46943404Y31408660D03*
X46943404Y27858660D03*
X65993404Y31408660D03*
X65993404Y27858660D03*
X85043404Y31408660D03*
X85043404Y27858660D03*
X104093404Y31408660D03*
X104093404Y27858660D03*
X123143404Y31408660D03*
X123143404Y27858660D03*
X142193404Y31408660D03*
X142193404Y27858660D03*
X161243404Y31408660D03*
X161243404Y27858660D03*
X180293404Y31408660D03*
X180293404Y27858660D03*
X199343404Y31408660D03*
X199343404Y27858660D03*
X218393404Y31408660D03*
X218393404Y27858660D03*
X280305904Y31408660D03*
X280305904Y27858660D03*
X299355904Y31408660D03*
X299355904Y27858660D03*
X318405904Y31408660D03*
X318405904Y27858660D03*
X239823384Y17221500D03*
X239823384Y20771500D03*
X280305904Y17221500D03*
X280305904Y20771500D03*
X299355904Y17221500D03*
X299355904Y20771500D03*
X318405904Y17221500D03*
X318405904Y20771500D03*
X30274404Y17221500D03*
X30274404Y20771500D03*
X77899404Y17221500D03*
X77899404Y20771500D03*
X168386904Y17221500D03*
X168386904Y20771500D03*
X192199404Y17221500D03*
X192199404Y20771500D03*
X216011904Y17221500D03*
X216011904Y20771500D03*
X261254464Y17220965D03*
X261254464Y20770965D03*
X256493904Y88558660D03*
X256493904Y85008660D03*
X25419944Y69508660D03*
X25419944Y65958660D03*
X13606404Y50458660D03*
X13606404Y46908660D03*
X251731404Y50458660D03*
X251731404Y46908660D03*
X20751424Y31408660D03*
X20751424Y27858660D03*
X244586384Y31408660D03*
X244586384Y27858660D03*
X122365144Y17221500D03*
X122365144Y20771500D03*
X139812404Y17221500D03*
X139812404Y20771500D03*
X54086904Y17221500D03*
X54086904Y20771500D03*
X23037385Y17222510D03*
X23037385Y20772510D03*
D11*
X7289004Y88450000D03*
D12*
X12369004Y88450000D03*
D11*
X17449004Y88450000D03*
D13*
X14909004Y93530000D03*
X8559004Y90990000D03*
D12*
X31419004Y88450000D03*
D11*
X36499004Y88450000D03*
X26339004Y88450000D03*
D13*
X33959004Y93530000D03*
X27609004Y90990000D03*
D11*
X45389004Y88450000D03*
X55549004Y88450000D03*
D12*
X50469004Y88450000D03*
D13*
X53009004Y93530000D03*
X46659004Y90990000D03*
D11*
X74599004Y88450000D03*
X64439004Y88450000D03*
D12*
X69519004Y88450000D03*
D13*
X72059004Y93530000D03*
X65709004Y90990000D03*
D11*
X93649004Y88450000D03*
D12*
X88569004Y88450000D03*
D11*
X83489004Y88450000D03*
D13*
X91109004Y93530000D03*
X84759004Y90990000D03*
D11*
X102539004Y88450000D03*
D12*
X107619004Y88450000D03*
D11*
X112699004Y88450000D03*
D13*
X110159004Y93530000D03*
X103809004Y90990000D03*
D12*
X126669004Y88450000D03*
D11*
X131749004Y88450000D03*
X121589004Y88450000D03*
D13*
X129209004Y93530000D03*
X122859004Y90990000D03*
D12*
X145719004Y88450000D03*
D11*
X150799004Y88450000D03*
X140639004Y88450000D03*
D13*
X148259004Y93530000D03*
X141909004Y90990000D03*
D12*
X164769004Y88450000D03*
D11*
X159689004Y88450000D03*
X169849004Y88450000D03*
D13*
X167309004Y93530000D03*
X160959004Y90990000D03*
D11*
X188899004Y88450000D03*
X178739004Y88450000D03*
D12*
X183819004Y88450000D03*
D13*
X186359004Y93530000D03*
X180009004Y90990000D03*
D11*
X197789004Y88450000D03*
D12*
X202869004Y88450000D03*
D11*
X207949004Y88450000D03*
D13*
X205409004Y93530000D03*
X199059004Y90990000D03*
D11*
X226999004Y88450000D03*
D12*
X221919004Y88450000D03*
D11*
X216839004Y88450000D03*
D13*
X224459004Y93530000D03*
X218109004Y90990000D03*
D12*
X240969004Y88450000D03*
D11*
X246049004Y88450000D03*
X235889004Y88450000D03*
D13*
X243509004Y93530000D03*
X237159004Y90990000D03*
D11*
X298436504Y88450000D03*
X288276504Y88450000D03*
D12*
X293356504Y88450000D03*
D13*
X295896504Y93530000D03*
X289546504Y90990000D03*
D12*
X321931504Y88450000D03*
D11*
X327011504Y88450000D03*
X316851504Y88450000D03*
D13*
X324471504Y93530000D03*
X318121504Y90990000D03*
D11*
X35864004Y69400000D03*
D12*
X40944004Y69400000D03*
D11*
X46024004Y69400000D03*
D13*
X43484004Y74480000D03*
X37134004Y71940000D03*
D11*
X54914004Y69400000D03*
X65074004Y69400000D03*
D12*
X59994004Y69400000D03*
D13*
X62534004Y74480000D03*
X56184004Y71940000D03*
D12*
X79044004Y69400000D03*
D11*
X73964004Y69400000D03*
X84124004Y69400000D03*
D13*
X81584004Y74480000D03*
X75234004Y71940000D03*
D12*
X98094004Y69400000D03*
D11*
X93014004Y69400000D03*
X103174004Y69400000D03*
D13*
X100634004Y74480000D03*
X94284004Y71940000D03*
D11*
X122224004Y69400000D03*
X112064004Y69400000D03*
D12*
X117144004Y69400000D03*
D13*
X119684004Y74480000D03*
X113334004Y71940000D03*
D11*
X131114004Y69400000D03*
D12*
X136194004Y69400000D03*
D11*
X141274004Y69400000D03*
D13*
X138734004Y74480000D03*
X132384004Y71940000D03*
D11*
X150164004Y69400000D03*
D12*
X155244004Y69400000D03*
D11*
X160324004Y69400000D03*
D13*
X157784004Y74480000D03*
X151434004Y71940000D03*
D11*
X179374004Y69400000D03*
X169214004Y69400000D03*
D12*
X174294004Y69400000D03*
D13*
X176834004Y74480000D03*
X170484004Y71940000D03*
D12*
X193344004Y69400000D03*
D11*
X198424004Y69400000D03*
X188264004Y69400000D03*
D13*
X195884004Y74480000D03*
X189534004Y71940000D03*
D11*
X217474004Y69400000D03*
X207314004Y69400000D03*
D12*
X212394004Y69400000D03*
D13*
X214934004Y74480000D03*
X208584004Y71940000D03*
D12*
X231444004Y69400000D03*
D11*
X226364004Y69400000D03*
X236524004Y69400000D03*
D13*
X233984004Y74480000D03*
X227634004Y71940000D03*
D11*
X255574004Y69400000D03*
X245414004Y69400000D03*
D12*
X250494004Y69400000D03*
D13*
X253034004Y74480000D03*
X246684004Y71940000D03*
D12*
X269544004Y69400000D03*
D11*
X264464004Y69400000D03*
X274624004Y69400000D03*
D13*
X272084004Y74480000D03*
X265734004Y71940000D03*
D11*
X293674004Y69400000D03*
D12*
X288594004Y69400000D03*
D11*
X283514004Y69400000D03*
D13*
X291134004Y74480000D03*
X284784004Y71940000D03*
D11*
X312724004Y69400000D03*
X302564004Y69400000D03*
D12*
X307644004Y69400000D03*
D13*
X310184004Y74480000D03*
X303834004Y71940000D03*
D11*
X331774004Y69400000D03*
X321614004Y69400000D03*
D12*
X326694004Y69400000D03*
D13*
X329234004Y74480000D03*
X322884004Y71940000D03*
D11*
X40626504Y50350000D03*
X50786504Y50350000D03*
D12*
X45706504Y50350000D03*
D13*
X48246504Y55430000D03*
X41896504Y52890000D03*
D12*
X64756504Y50350000D03*
D11*
X59676504Y50350000D03*
X69836504Y50350000D03*
D13*
X67296504Y55430000D03*
X60946504Y52890000D03*
D12*
X83806504Y50350000D03*
D11*
X88886504Y50350000D03*
X78726504Y50350000D03*
D13*
X86346504Y55430000D03*
X79996504Y52890000D03*
D11*
X97776504Y50350000D03*
X107936504Y50350000D03*
D12*
X102856504Y50350000D03*
D13*
X105396504Y55430000D03*
X99046504Y52890000D03*
D12*
X121906504Y50350000D03*
D11*
X116826504Y50350000D03*
X126986504Y50350000D03*
D13*
X124446504Y55430000D03*
X118096504Y52890000D03*
D11*
X135876504Y50350000D03*
D12*
X140956504Y50350000D03*
D11*
X146036504Y50350000D03*
D13*
X143496504Y55430000D03*
X137146504Y52890000D03*
D12*
X160006504Y50350000D03*
D11*
X154926504Y50350000D03*
X165086504Y50350000D03*
D13*
X162546504Y55430000D03*
X156196504Y52890000D03*
D11*
X184136504Y50350000D03*
X173976504Y50350000D03*
D12*
X179056504Y50350000D03*
D13*
X181596504Y55430000D03*
X175246504Y52890000D03*
D11*
X203186504Y50350000D03*
D12*
X198106504Y50350000D03*
D11*
X193026504Y50350000D03*
D13*
X200646504Y55430000D03*
X194296504Y52890000D03*
D11*
X222236504Y50350000D03*
D12*
X217156504Y50350000D03*
D11*
X212076504Y50350000D03*
D13*
X219696504Y55430000D03*
X213346504Y52890000D03*
D11*
X231126504Y50350000D03*
D12*
X236206504Y50350000D03*
D11*
X241286504Y50350000D03*
D13*
X238746504Y55430000D03*
X232396504Y52890000D03*
D12*
X288594004Y50350000D03*
D11*
X293674004Y50350000D03*
X283514004Y50350000D03*
D13*
X291134004Y55430000D03*
X284784004Y52890000D03*
D11*
X302564004Y50350000D03*
D12*
X307644004Y50350000D03*
D11*
X312724004Y50350000D03*
D13*
X310184004Y55430000D03*
X303834004Y52890000D03*
D11*
X321614004Y50350000D03*
D12*
X326694004Y50350000D03*
D11*
X331774004Y50350000D03*
D13*
X329234004Y55430000D03*
X322884004Y52890000D03*
D11*
X60311504Y31300000D03*
D12*
X55231504Y31300000D03*
D11*
X50151504Y31300000D03*
D13*
X57771504Y36380000D03*
X51421504Y33840000D03*
D12*
X74281504Y31300000D03*
D11*
X69201504Y31300000D03*
X79361504Y31300000D03*
D13*
X76821504Y36380000D03*
X70471504Y33840000D03*
D11*
X88251504Y31300000D03*
X98411504Y31300000D03*
D12*
X93331504Y31300000D03*
D13*
X95871504Y36380000D03*
X89521504Y33840000D03*
D12*
X112381504Y31300000D03*
D11*
X107301504Y31300000D03*
X117461504Y31300000D03*
D13*
X114921504Y36380000D03*
X108571504Y33840000D03*
D12*
X131431504Y31300000D03*
D11*
X126351504Y31300000D03*
X136511504Y31300000D03*
D13*
X133971504Y36380000D03*
X127621504Y33840000D03*
D11*
X145401504Y31300000D03*
X155561504Y31300000D03*
D12*
X150481504Y31300000D03*
D13*
X153021504Y36380000D03*
X146671504Y33840000D03*
D12*
X169531504Y31300000D03*
D11*
X174611504Y31300000D03*
X164451504Y31300000D03*
D13*
X172071504Y36380000D03*
X165721504Y33840000D03*
D12*
X188581504Y31300000D03*
D11*
X183501504Y31300000D03*
X193661504Y31300000D03*
D13*
X191121504Y36380000D03*
X184771504Y33840000D03*
D12*
X207631504Y31300000D03*
D11*
X212711504Y31300000D03*
X202551504Y31300000D03*
D13*
X210171504Y36380000D03*
X203821504Y33840000D03*
D11*
X231761504Y31300000D03*
X221601504Y31300000D03*
D12*
X226681504Y31300000D03*
D13*
X229221504Y36380000D03*
X222871504Y33840000D03*
D11*
X283514004Y31300000D03*
D12*
X288594004Y31300000D03*
D11*
X293674004Y31300000D03*
D13*
X291134004Y36380000D03*
X284784004Y33840000D03*
D11*
X302564004Y31300000D03*
D12*
X307644004Y31300000D03*
D11*
X312724004Y31300000D03*
D13*
X310184004Y36380000D03*
X303834004Y33840000D03*
D11*
X331774004Y31300000D03*
X321614004Y31300000D03*
D12*
X326694004Y31300000D03*
D13*
X329234004Y36380000D03*
X322884004Y33840000D03*
D12*
X248111484Y12250000D03*
D11*
X253191484Y12250000D03*
X243031484Y12250000D03*
D13*
X250651484Y17330000D03*
X244301484Y14790000D03*
D11*
X293674004Y12250000D03*
X283514004Y12250000D03*
D12*
X288594004Y12250000D03*
D13*
X291134004Y17330000D03*
X284784004Y14790000D03*
D11*
X302564004Y12250000D03*
D12*
X307644004Y12250000D03*
D11*
X312724004Y12250000D03*
D13*
X310184004Y17330000D03*
X303834004Y14790000D03*
D11*
X321614004Y12250000D03*
X331774004Y12250000D03*
D12*
X326694004Y12250000D03*
D13*
X329234004Y17330000D03*
X322884004Y14790000D03*
D11*
X9670000Y12250000D03*
D12*
X14750000Y12250000D03*
D11*
X19830000Y12250000D03*
D13*
X17290000Y17330000D03*
X10940000Y14790000D03*
D12*
X38562500Y12250000D03*
D11*
X43642500Y12250000D03*
X33482500Y12250000D03*
D13*
X41102500Y17330000D03*
X34752500Y14790000D03*
D12*
X62375004Y12250000D03*
D11*
X67455004Y12250000D03*
X57295004Y12250000D03*
D13*
X64915004Y17330000D03*
X58565004Y14790000D03*
D11*
X91267504Y12250000D03*
X81107504Y12250000D03*
D12*
X86187504Y12250000D03*
D13*
X88727504Y17330000D03*
X82377504Y14790000D03*
D11*
X171595004Y12250000D03*
D12*
X176675004Y12250000D03*
D11*
X181755004Y12250000D03*
D13*
X179215004Y17330000D03*
X172865004Y14790000D03*
D12*
X200487504Y12250000D03*
D11*
X195407504Y12250000D03*
X205567504Y12250000D03*
D13*
X203027504Y17330000D03*
X196677504Y14790000D03*
D11*
X219220004Y12250000D03*
X229380004Y12250000D03*
D12*
X224300004Y12250000D03*
D13*
X226840004Y17330000D03*
X220490004Y14790000D03*
D12*
X269542480Y12250000D03*
D11*
X274622480Y12250000D03*
X264462480Y12250000D03*
D13*
X272082480Y17330000D03*
X265732480Y14790000D03*
D11*
X269862004Y88450000D03*
D12*
X264782004Y88450000D03*
D11*
X259702004Y88450000D03*
D13*
X267322004Y93530000D03*
X260972004Y90990000D03*
D11*
X22212004Y69400000D03*
D12*
X17132004Y69400000D03*
D11*
X12052004Y69400000D03*
D13*
X19672004Y74480000D03*
X13322004Y71940000D03*
D12*
X21894504Y50350000D03*
D11*
X16814504Y50350000D03*
X26974504Y50350000D03*
D13*
X24434504Y55430000D03*
X18084504Y52890000D03*
D12*
X260019504Y50350000D03*
D11*
X265099504Y50350000D03*
X254939504Y50350000D03*
D13*
X262559504Y55430000D03*
X256209504Y52890000D03*
D11*
X34119024Y31300000D03*
D12*
X29039024Y31300000D03*
D11*
X23959024Y31300000D03*
D13*
X31579024Y36380000D03*
X25229024Y33840000D03*
D12*
X252874484Y31300000D03*
D11*
X247794484Y31300000D03*
X257954484Y31300000D03*
D13*
X255414484Y36380000D03*
X249064484Y33840000D03*
D11*
X119843004Y12250000D03*
X109683004Y12250000D03*
D12*
X114763004Y12250000D03*
D13*
X117303004Y17330000D03*
X110953004Y14790000D03*
D11*
X143020504Y12250000D03*
X153180504Y12250000D03*
D12*
X148100504Y12250000D03*
D13*
X150640504Y17330000D03*
X144290504Y14790000D03*
D14*
X336000004Y3000000D03*
X86250004Y98000000D03*
X169500004Y98000000D03*
X336000004Y98000000D03*
X86250004Y3000000D03*
X252750004Y3000000D03*
X252750004Y98000000D03*
X336000004Y50500000D03*
D10*
X318358984Y69508280D03*
X318358984Y65958280D03*
D14*
X103500000Y16000000D03*
D15*
X332885000Y77020000D03*
D16*
X330345000Y77020000D03*
X327805000Y77020000D03*
X325265000Y77020000D03*
X322725000Y77020000D03*
X320185000Y77020000D03*
X317645000Y77020000D03*
X315105000Y77020000D03*
X312565000Y77020000D03*
X310025000Y77020000D03*
X307485000Y77020000D03*
X304945000Y77020000D03*
X304945000Y61780000D03*
X307485000Y61780000D03*
X310025000Y61780000D03*
X312565000Y61780000D03*
X315105000Y61780000D03*
X317645000Y61780000D03*
X320185000Y61780000D03*
X322725000Y61780000D03*
X325265000Y61780000D03*
X327805000Y61780000D03*
X330345000Y61780000D03*
X332885000Y61780000D03*
X4324375Y66875000D03*
X4324375Y71875000D03*
D17*
X6814375Y65875000D03*
X6814375Y72885000D03*
D14*
X3000004Y3000000D03*
X3000004Y50500000D03*
X3000004Y98000000D03*
X226771875Y59000000D03*
X336000000Y16000000D03*
X112271875Y59000000D03*
X235500000Y16000000D03*
X3000000Y16000000D03*
X169500004Y3000000D03*
D18*
X273353750Y64733660D03*
X273830000Y20822500D03*
X321693125Y23203750D03*
X282402500Y61780000D03*
X273830000Y46063750D03*
X283831250Y47016250D03*
X283831254Y60351250D03*
X292880000Y27013750D03*
X301452500Y59081250D03*
X273257590Y83783660D03*
X302643125Y27966250D03*
X268115000Y27966250D03*
X302881250Y57684250D03*
X312370379Y21536875D03*
X335028125Y19393750D03*
X7320754Y96546250D03*
X164768750Y96546250D03*
X164768750Y14869375D03*
X262559504Y57970000D03*
X331456250Y96546250D03*
X4034375Y19393750D03*
M02*
