<?xml version="1.0" standalone="no"?>
 <!DOCTYPE svg PUBLIC "-//W3C//DTD SVG 1.1//EN" 
 "http://www.w3.org/Graphics/SVG/1.1/DTD/svg11.dtd"> 
<svg
  xmlns:svg="http://www.w3.org/2000/svg"
  xmlns="http://www.w3.org/2000/svg"
  xmlns:xlink="http://www.w3.org/1999/xlink"
  version="1.1"
  width="35.864800cm" height="10.713720cm" viewBox="0 0 358648000 107137200">
<title>SVG Picture created as keyboard-layouter-playground-F_Courtyard.svg date 2022/08/29 12:02:57 </title>
  <desc>Picture generated by PCBNEW </desc>
<g style="fill:#000000; fill-opacity:1.000000;stroke:#000000; stroke-opacity:1.000000;
stroke-linecap:round; stroke-linejoin:round;"
 transform="translate(0 0) scale(1 1)">
</g>
<g style="fill:#000000; fill-opacity:0.0; 
stroke:#000000; stroke-width:0.000000; stroke-opacity:1; 
stroke-linecap:round; stroke-linejoin:round;">
</g>
<g style="fill:#000000; fill-opacity:0.0; 
stroke:#000000; stroke-width:100000.000000; stroke-opacity:1; 
stroke-linecap:round; stroke-linejoin:round;">
<path d="M353820242 107067500
L20820242 107067500
" />
<path d="M320570238 27817500
L355820242 27817500
" />
<path d="M320570238 27817500
L320570238 47567500
" />
<path d="M353820242.000000 59567549.998333 A3000100.000000 3000100.000000 0.0 0 0 356820241.998333 56567550.000000" />
<path d="M18820242 32317500
L26592113 32317500
" />
<path d="M17820292.001250 31317500.002500 A999950.000000 999950.000000 0.0 0 0 18820242.000000 32317500.000000" />
<path d="M17820242.000150 91067500.000000 A2999970.000000 2999970.000000 0.0 0 0 20820242.000000 94067499.999850" />
<path d="M353820242 94067550
L20820242 94067500
" />
<path d="M17820242.000150 56567500.000000 A2999970.000000 2999970.000000 0.0 0 0 20820242.000000 59567499.999850" />
<path d="M20820242 6067500
L353820242 6067500
" />
<path d="M17820242 104067500
L17820242 9067500
" />
<path d="M20820242.000000 6067500.000000 A3000000.000000 3000000.000000 0.0 0 0 17820242.000000 9067500.000000" />
<path d="M353820242.000000 94067549.998333 A3000100.000000 3000100.000000 0.0 0 0 356820241.998333 91067550.000000" />
<path d="M26592113 32317500
L26592113 42817500
" />
<path d="M356820291.999583 9067499.999167 A3000050.000000 3000050.000000 0.0 0 0 353820242.000000 6067500.000000" />
<path d="M356820242 9067500
L356820242 104067500
" />
<path d="M26592113 42817500
L18820242 42817500
" />
<path d="M353820242.000000 107067450.000000 A3000000.000000 3000000.000000 0.0 0 0 356820241.999583 104067500.000000" />
<path d="M355820242.000000 27817550.000000 A1000000.000000 1000000.000000 0.0 0 0 356820241.998750 26817500.000000" />
<path d="M18820242.000000 42817500.000000 A1000000.000000 1000000.000000 0.0 0 0 17820242.000000 43817500.000000" />
<path d="M320570238 47567500
L355820242 47567500
" />
<path d="M17820242.000150 104067500.000000 A2999970.000000 2999970.000000 0.0 0 0 20820242.000000 107067499.999850" />
<path d="M353820242 59567550
L20820242 59567500
" />
<path d="M356820291.998750 48567499.997500 A1000050.000000 1000050.000000 0.0 0 0 355820242.000000 47567500.000000" />
</g>
<g style="fill:#000000; fill-opacity:0.0; 
stroke:#000000; stroke-width:120000.000000; stroke-opacity:1; 
stroke-linecap:round; stroke-linejoin:round;">
<path d="M23189242 11617500
L23189242 25617500
" />
<path d="M23189242 25617500
L37189242 25617500
" />
<path d="M37189242 11617500
L37189242 25617500
" />
<path d="M37189242 11617500
L23189242 11617500
" />
<path d="M56239242 11617500
L42239242 11617500
" />
<path d="M56239242 11617500
L56239242 25617500
" />
<path d="M42239242 25617500
L56239242 25617500
" />
<path d="M42239242 11617500
L42239242 25617500
" />
<path d="M61289242 11617500
L61289242 25617500
" />
<path d="M75289242 11617500
L61289242 11617500
" />
<path d="M61289242 25617500
L75289242 25617500
" />
<path d="M75289242 11617500
L75289242 25617500
" />
<path d="M80339242 25617500
L94339242 25617500
" />
<path d="M80339242 11617500
L80339242 25617500
" />
<path d="M94339242 11617500
L80339242 11617500
" />
<path d="M94339242 11617500
L94339242 25617500
" />
<path d="M113389242 11617500
L99389242 11617500
" />
<path d="M113389242 11617500
L113389242 25617500
" />
<path d="M99389242 25617500
L113389242 25617500
" />
<path d="M99389242 11617500
L99389242 25617500
" />
<path d="M132439242 11617500
L118439242 11617500
" />
<path d="M132439242 11617500
L132439242 25617500
" />
<path d="M118439242 25617500
L132439242 25617500
" />
<path d="M118439242 11617500
L118439242 25617500
" />
<path d="M137489242 25617500
L151489242 25617500
" />
<path d="M151489242 11617500
L151489242 25617500
" />
<path d="M137489242 11617500
L137489242 25617500
" />
<path d="M151489242 11617500
L137489242 11617500
" />
<path d="M156539242 25617500
L170539242 25617500
" />
<path d="M156539242 11617500
L156539242 25617500
" />
<path d="M170539242 11617500
L156539242 11617500
" />
<path d="M170539242 11617500
L170539242 25617500
" />
<path d="M175589242 25617500
L189589242 25617500
" />
<path d="M189589242 11617500
L175589242 11617500
" />
<path d="M175589242 11617500
L175589242 25617500
" />
<path d="M189589242 11617500
L189589242 25617500
" />
<path d="M194639242 25617500
L208639242 25617500
" />
<path d="M194639242 11617500
L194639242 25617500
" />
<path d="M208639242 11617500
L194639242 11617500
" />
<path d="M208639242 11617500
L208639242 25617500
" />
<path d="M227689242 11617500
L213689242 11617500
" />
<path d="M213689242 11617500
L213689242 25617500
" />
<path d="M227689242 11617500
L227689242 25617500
" />
<path d="M213689242 25617500
L227689242 25617500
" />
<path d="M232739242 11617500
L232739242 25617500
" />
<path d="M232739242 25617500
L246739242 25617500
" />
<path d="M246739242 11617500
L246739242 25617500
" />
<path d="M246739242 11617500
L232739242 11617500
" />
<path d="M265789242 11617500
L265789242 25617500
" />
<path d="M251789242 11617500
L251789242 25617500
" />
<path d="M265789242 11617500
L251789242 11617500
" />
<path d="M251789242 25617500
L265789242 25617500
" />
<path d="M304176742 11617500
L318176742 11617500
" />
<path d="M318176742 11617500
L318176742 25617500
" />
<path d="M304176742 11617500
L304176742 25617500
" />
<path d="M304176742 25617500
L318176742 25617500
" />
<path d="M346751742 11617500
L346751742 25617500
" />
<path d="M332751742 11617500
L332751742 25617500
" />
<path d="M332751742 25617500
L346751742 25617500
" />
<path d="M332751742 11617500
L346751742 11617500
" />
<path d="M65764242 30667500
L65764242 44667500
" />
<path d="M51764242 30667500
L51764242 44667500
" />
<path d="M51764242 44667500
L65764242 44667500
" />
<path d="M65764242 30667500
L51764242 30667500
" />
<path d="M70814242 30667500
L70814242 44667500
" />
<path d="M70814242 44667500
L84814242 44667500
" />
<path d="M84814242 30667500
L70814242 30667500
" />
<path d="M84814242 30667500
L84814242 44667500
" />
<path d="M103864242 30667500
L89864242 30667500
" />
<path d="M89864242 30667500
L89864242 44667500
" />
<path d="M89864242 44667500
L103864242 44667500
" />
<path d="M103864242 30667500
L103864242 44667500
" />
<path d="M108914242 30667500
L108914242 44667500
" />
<path d="M108914242 44667500
L122914242 44667500
" />
<path d="M122914242 30667500
L122914242 44667500
" />
<path d="M122914242 30667500
L108914242 30667500
" />
<path d="M141964242 30667500
L127964242 30667500
" />
<path d="M127964242 44667500
L141964242 44667500
" />
<path d="M141964242 30667500
L141964242 44667500
" />
<path d="M127964242 30667500
L127964242 44667500
" />
<path d="M147014242 44667500
L161014242 44667500
" />
<path d="M161014242 30667500
L147014242 30667500
" />
<path d="M161014242 30667500
L161014242 44667500
" />
<path d="M147014242 30667500
L147014242 44667500
" />
<path d="M166064242 30667500
L166064242 44667500
" />
<path d="M166064242 44667500
L180064242 44667500
" />
<path d="M180064242 30667500
L166064242 30667500
" />
<path d="M180064242 30667500
L180064242 44667500
" />
<path d="M199114242 30667500
L185114242 30667500
" />
<path d="M185114242 30667500
L185114242 44667500
" />
<path d="M185114242 44667500
L199114242 44667500
" />
<path d="M199114242 30667500
L199114242 44667500
" />
<path d="M204164242 30667500
L204164242 44667500
" />
<path d="M204164242 44667500
L218164242 44667500
" />
<path d="M218164242 30667500
L204164242 30667500
" />
<path d="M218164242 30667500
L218164242 44667500
" />
<path d="M237214242 30667500
L223214242 30667500
" />
<path d="M223214242 30667500
L223214242 44667500
" />
<path d="M237214242 30667500
L237214242 44667500
" />
<path d="M223214242 44667500
L237214242 44667500
" />
<path d="M256264242 30667500
L242264242 30667500
" />
<path d="M242264242 44667500
L256264242 44667500
" />
<path d="M256264242 30667500
L256264242 44667500
" />
<path d="M242264242 30667500
L242264242 44667500
" />
<path d="M275314242 30667500
L275314242 44667500
" />
<path d="M261314242 44667500
L275314242 44667500
" />
<path d="M261314242 30667500
L261314242 44667500
" />
<path d="M275314242 30667500
L261314242 30667500
" />
<path d="M294364242 30667500
L280364242 30667500
" />
<path d="M280364242 44667500
L294364242 44667500
" />
<path d="M294364242 30667500
L294364242 44667500
" />
<path d="M280364242 30667500
L280364242 44667500
" />
<path d="M313414242 30667500
L313414242 44667500
" />
<path d="M299414242 44667500
L313414242 44667500
" />
<path d="M299414242 30667500
L299414242 44667500
" />
<path d="M313414242 30667500
L299414242 30667500
" />
<path d="M332464242 30667500
L332464242 44667500
" />
<path d="M332464242 30667500
L318464242 30667500
" />
<path d="M318464242 30667500
L318464242 44667500
" />
<path d="M318464242 44667500
L332464242 44667500
" />
<path d="M351514242 30667500
L351514242 44667500
" />
<path d="M337514242 44667500
L351514242 44667500
" />
<path d="M351514242 30667500
L337514242 30667500
" />
<path d="M337514242 30667500
L337514242 44667500
" />
<path d="M70526742 49717500
L70526742 63717500
" />
<path d="M56526742 49717500
L56526742 63717500
" />
<path d="M56526742 63717500
L70526742 63717500
" />
<path d="M70526742 49717500
L56526742 49717500
" />
<path d="M89576742 49717500
L75576742 49717500
" />
<path d="M75576742 49717500
L75576742 63717500
" />
<path d="M75576742 63717500
L89576742 63717500
" />
<path d="M89576742 49717500
L89576742 63717500
" />
<path d="M108626742 49717500
L94626742 49717500
" />
<path d="M108626742 49717500
L108626742 63717500
" />
<path d="M94626742 63717500
L108626742 63717500
" />
<path d="M94626742 49717500
L94626742 63717500
" />
<path d="M127676742 49717500
L127676742 63717500
" />
<path d="M113676742 49717500
L113676742 63717500
" />
<path d="M113676742 63717500
L127676742 63717500
" />
<path d="M127676742 49717500
L113676742 49717500
" />
<path d="M132726742 49717500
L132726742 63717500
" />
<path d="M146726742 49717500
L146726742 63717500
" />
<path d="M146726742 49717500
L132726742 49717500
" />
<path d="M132726742 63717500
L146726742 63717500
" />
<path d="M151776742 63717500
L165776742 63717500
" />
<path d="M165776742 49717500
L151776742 49717500
" />
<path d="M151776742 49717500
L151776742 63717500
" />
<path d="M165776742 49717500
L165776742 63717500
" />
<path d="M184826742 49717500
L184826742 63717500
" />
<path d="M170826742 63717500
L184826742 63717500
" />
<path d="M184826742 49717500
L170826742 49717500
" />
<path d="M170826742 49717500
L170826742 63717500
" />
<path d="M203876742 49717500
L203876742 63717500
" />
<path d="M189876742 49717500
L189876742 63717500
" />
<path d="M189876742 63717500
L203876742 63717500
" />
<path d="M203876742 49717500
L189876742 49717500
" />
<path d="M208926742 63717500
L222926742 63717500
" />
<path d="M222926742 49717500
L208926742 49717500
" />
<path d="M208926742 49717500
L208926742 63717500
" />
<path d="M222926742 49717500
L222926742 63717500
" />
<path d="M241976742 49717500
L227976742 49717500
" />
<path d="M241976742 49717500
L241976742 63717500
" />
<path d="M227976742 49717500
L227976742 63717500
" />
<path d="M227976742 63717500
L241976742 63717500
" />
<path d="M261026742 49717500
L261026742 63717500
" />
<path d="M247026742 63717500
L261026742 63717500
" />
<path d="M247026742 49717500
L247026742 63717500
" />
<path d="M261026742 49717500
L247026742 49717500
" />
<path d="M299414242 63717500
L313414242 63717500
" />
<path d="M313414242 49717500
L299414242 49717500
" />
<path d="M313414242 49717500
L313414242 63717500
" />
<path d="M299414242 49717500
L299414242 63717500
" />
<path d="M318464242 49717500
L318464242 63717500
" />
<path d="M332464242 49717500
L332464242 63717500
" />
<path d="M318464242 63717500
L332464242 63717500
" />
<path d="M332464242 49717500
L318464242 49717500
" />
<path d="M337514242 49717500
L337514242 63717500
" />
<path d="M351514242 49717500
L351514242 63717500
" />
<path d="M337514242 63717500
L351514242 63717500
" />
<path d="M351514242 49717500
L337514242 49717500
" />
<path d="M66051742 82767500
L80051742 82767500
" />
<path d="M80051742 68767500
L80051742 82767500
" />
<path d="M66051742 68767500
L66051742 82767500
" />
<path d="M80051742 68767500
L66051742 68767500
" />
<path d="M85101742 82767500
L99101742 82767500
" />
<path d="M99101742 68767500
L99101742 82767500
" />
<path d="M85101742 68767500
L85101742 82767500
" />
<path d="M99101742 68767500
L85101742 68767500
" />
<path d="M104151742 82767500
L118151742 82767500
" />
<path d="M118151742 68767500
L118151742 82767500
" />
<path d="M118151742 68767500
L104151742 68767500
" />
<path d="M104151742 68767500
L104151742 82767500
" />
<path d="M137201742 68767500
L123201742 68767500
" />
<path d="M123201742 68767500
L123201742 82767500
" />
<path d="M123201742 82767500
L137201742 82767500
" />
<path d="M137201742 68767500
L137201742 82767500
" />
<path d="M156251742 68767500
L156251742 82767500
" />
<path d="M142251742 68767500
L142251742 82767500
" />
<path d="M156251742 68767500
L142251742 68767500
" />
<path d="M142251742 82767500
L156251742 82767500
" />
<path d="M161301742 68767500
L161301742 82767500
" />
<path d="M175301742 68767500
L175301742 82767500
" />
<path d="M175301742 68767500
L161301742 68767500
" />
<path d="M161301742 82767500
L175301742 82767500
" />
<path d="M194351742 68767500
L180351742 68767500
" />
<path d="M180351742 68767500
L180351742 82767500
" />
<path d="M194351742 68767500
L194351742 82767500
" />
<path d="M180351742 82767500
L194351742 82767500
" />
<path d="M199401742 68767500
L199401742 82767500
" />
<path d="M199401742 82767500
L213401742 82767500
" />
<path d="M213401742 68767500
L213401742 82767500
" />
<path d="M213401742 68767500
L199401742 68767500
" />
<path d="M232451742 68767500
L218451742 68767500
" />
<path d="M232451742 68767500
L232451742 82767500
" />
<path d="M218451742 68767500
L218451742 82767500
" />
<path d="M218451742 82767500
L232451742 82767500
" />
<path d="M237501742 68767500
L237501742 82767500
" />
<path d="M251501742 68767500
L237501742 68767500
" />
<path d="M237501742 82767500
L251501742 82767500
" />
<path d="M251501742 68767500
L251501742 82767500
" />
<path d="M299414242 82767500
L313414242 82767500
" />
<path d="M299414242 68767500
L299414242 82767500
" />
<path d="M313414242 68767500
L299414242 68767500
" />
<path d="M313414242 68767500
L313414242 82767500
" />
<path d="M318464242 82767500
L332464242 82767500
" />
<path d="M332464242 68767500
L332464242 82767500
" />
<path d="M332464242 68767500
L318464242 68767500
" />
<path d="M318464242 68767500
L318464242 82767500
" />
<path d="M351514242 68767500
L337514242 68767500
" />
<path d="M337514242 68767500
L337514242 82767500
" />
<path d="M351514242 68767500
L351514242 82767500
" />
<path d="M337514242 82767500
L351514242 82767500
" />
<path d="M258931722 101817500
L272931722 101817500
" />
<path d="M258931722 87817500
L272931722 87817500
" />
<path d="M258931722 87817500
L258931722 101817500
" />
<path d="M272931722 87817500
L272931722 101817500
" />
<path d="M313414242 87817500
L299414242 87817500
" />
<path d="M299414242 87817500
L299414242 101817500
" />
<path d="M313414242 87817500
L313414242 101817500
" />
<path d="M299414242 101817500
L313414242 101817500
" />
<path d="M332464242 87817500
L332464242 101817500
" />
<path d="M332464242 87817500
L318464242 87817500
" />
<path d="M318464242 101817500
L332464242 101817500
" />
<path d="M318464242 87817500
L318464242 101817500
" />
<path d="M351514242 87817500
L351514242 101817500
" />
<path d="M337514242 101817500
L351514242 101817500
" />
<path d="M337514242 87817500
L337514242 101817500
" />
<path d="M351514242 87817500
L337514242 87817500
" />
<path d="M25570238 101817500
L39570238 101817500
" />
<path d="M25570238 87817500
L25570238 101817500
" />
<path d="M25570238 87817500
L39570238 87817500
" />
<path d="M39570238 87817500
L39570238 101817500
" />
<path d="M49382738 101817500
L63382738 101817500
" />
<path d="M49382738 87817500
L49382738 101817500
" />
<path d="M49382738 87817500
L63382738 87817500
" />
<path d="M63382738 87817500
L63382738 101817500
" />
<path d="M73195242 87817500
L73195242 101817500
" />
<path d="M73195242 87817500
L87195242 87817500
" />
<path d="M73195242 101817500
L87195242 101817500
" />
<path d="M87195242 87817500
L87195242 101817500
" />
<path d="M97007742 101817500
L111007742 101817500
" />
<path d="M111007742 87817500
L111007742 101817500
" />
<path d="M97007742 87817500
L111007742 87817500
" />
<path d="M97007742 87817500
L97007742 101817500
" />
<path d="M187495242 87817500
L187495242 101817500
" />
<path d="M187495242 87817500
L201495242 87817500
" />
<path d="M201495242 87817500
L201495242 101817500
" />
<path d="M187495242 101817500
L201495242 101817500
" />
<path d="M225307742 87817500
L225307742 101817500
" />
<path d="M211307742 87817500
L225307742 87817500
" />
<path d="M211307742 87817500
L211307742 101817500
" />
<path d="M211307742 101817500
L225307742 101817500
" />
<path d="M249120242 87817500
L249120242 101817500
" />
<path d="M235120242 87817500
L249120242 87817500
" />
<path d="M235120242 87817500
L235120242 101817500
" />
<path d="M235120242 101817500
L249120242 101817500
" />
<path d="M294362718 87817500
L294362718 101817500
" />
<path d="M294362718 87817500
L280362718 87817500
" />
<path d="M280362718 87817500
L280362718 101817500
" />
<path d="M280362718 101817500
L294362718 101817500
" />
<path d="M289602242 11617500
L289602242 25617500
" />
<path d="M275602242 11617500
L275602242 25617500
" />
<path d="M275602242 11617500
L289602242 11617500
" />
<path d="M275602242 25617500
L289602242 25617500
" />
<path d="M27952242 30667500
L41952242 30667500
" />
<path d="M27952242 30667500
L27952242 44667500
" />
<path d="M27952242 44667500
L41952242 44667500
" />
<path d="M41952242 30667500
L41952242 44667500
" />
<path d="M32714742 63717500
L46714742 63717500
" />
<path d="M46714742 49717500
L46714742 63717500
" />
<path d="M32714742 49717500
L46714742 49717500
" />
<path d="M32714742 49717500
L32714742 63717500
" />
<path d="M270839742 49717500
L270839742 63717500
" />
<path d="M270839742 63717500
L284839742 63717500
" />
<path d="M284839742 49717500
L284839742 63717500
" />
<path d="M270839742 49717500
L284839742 49717500
" />
<path d="M53859262 68767500
L53859262 82767500
" />
<path d="M39859262 68767500
L39859262 82767500
" />
<path d="M39859262 82767500
L53859262 82767500
" />
<path d="M39859262 68767500
L53859262 68767500
" />
<path d="M263694722 68767500
L277694722 68767500
" />
<path d="M263694722 68767500
L263694722 82767500
" />
<path d="M277694722 68767500
L277694722 82767500
" />
<path d="M263694722 82767500
L277694722 82767500
" />
<path d="M125583242 87817500
L125583242 101817500
" />
<path d="M139583242 87817500
L139583242 101817500
" />
<path d="M125583242 87817500
L139583242 87817500
" />
<path d="M125583242 101817500
L139583242 101817500
" />
<path d="M158920742 101817500
L172920742 101817500
" />
<path d="M158920742 87817500
L158920742 101817500
" />
<path d="M172920742 87817500
L172920742 101817500
" />
<path d="M158920742 87817500
L172920742 87817500
" />
<circle cx="353820242.000000" cy="104067500.000000" r="1150000.000000" /> 
<circle cx="104070242.000000" cy="9067500.000000" r="1150000.000000" /> 
<circle cx="187320242.000000" cy="9067500.000000" r="1150000.000000" /> 
<circle cx="353820242.000000" cy="9067500.000000" r="1150000.000000" /> 
<circle cx="104070242.000000" cy="104067500.000000" r="1150000.000000" /> 
<circle cx="270570242.000000" cy="104067500.000000" r="1150000.000000" /> 
<circle cx="270570242.000000" cy="9067500.000000" r="1150000.000000" /> 
<circle cx="353820242.000000" cy="56567500.000000" r="1150000.000000" /> 
<circle cx="121320238.000000" cy="91067500.000000" r="1150000.000000" /> 
<path d="M355531238 41223500
L354769238 41223500
" />
<path d="M321114238 28396500
L354388238 28396500
" />
<path d="M354769238 33857500
L355531238 33857500
" />
<path d="M354769238 41223500
L354769238 33857500
" />
<path d="M355531238 33857500
L355531238 41223500
" />
<path d="M354388238 46938500
L321114238 46938500
" />
<path d="M321114238 46938500
L321114238 28396500
" />
<path d="M354388238 28396500
L354388238 46938500
" />
</g>
<g style="fill:#000000; fill-opacity:0.0; 
stroke:#000000; stroke-width:50000.000000; stroke-opacity:1; 
stroke-linecap:round; stroke-linejoin:round;">
<path d="M19344613 32892500
L26594613 32892500
" />
<path d="M26594613 42442500
L19344613 42442500
" />
<path d="M26594613 32892500
L26594613 42442500
" />
<path d="M19344613 42442500
L19344613 32892500
" />
</g>
<g style="fill:#000000; fill-opacity:0.0; 
stroke:#000000; stroke-width:120000.000000; stroke-opacity:1; 
stroke-linecap:round; stroke-linejoin:round;">
<circle cx="20820242.000000" cy="104067500.000000" r="1150000.000000" /> 
<circle cx="20820242.000000" cy="56567500.000000" r="1150000.000000" /> 
<circle cx="20820242.000000" cy="9067500.000000" r="1150000.000000" /> 
<circle cx="244592113.000000" cy="48067500.000000" r="1150000.000000" /> 
<circle cx="353820238.000000" cy="91067500.000000" r="1150000.000000" /> 
<circle cx="130092113.000000" cy="48067500.000000" r="1150000.000000" /> 
<circle cx="253320238.000000" cy="91067500.000000" r="1150000.000000" /> 
<circle cx="20820238.000000" cy="91067500.000000" r="1150000.000000" /> 
<circle cx="187320242.000000" cy="104067500.000000" r="1150000.000000" /> 
<g >
</g>
<g >
</g>
<g >
</g>
<g >
</g>
<g >
</g>
<g >
</g>
<g >
</g>
<g >
</g>
<g >
</g>
<g >
</g>
<g >
</g>
<g >
</g>
<g >
</g>
<g >
</g>
<g >
</g>
<g >
</g>
<g >
</g>
<g >
</g>
<g >
</g>
<g >
</g>
<g >
</g>
<g >
</g>
<g >
</g>
<g >
</g>
<g >
</g>
<g >
</g>
<g >
</g>
<g >
</g>
<g >
</g>
<g >
</g>
<g >
</g>
<g >
</g>
<g >
</g>
<g >
</g>
<g >
</g>
<g >
</g>
<g >
</g>
<g >
</g>
<g >
</g>
<g >
</g>
<g >
</g>
<g >
</g>
<g >
</g>
<g >
</g>
<g >
</g>
<g >
</g>
<g >
</g>
<g >
</g>
<g >
</g>
<g >
</g>
<g >
</g>
<g >
</g>
<g >
</g>
<g >
</g>
<g >
</g>
<g >
</g>
<g >
</g>
<g >
</g>
<g >
</g>
<g >
</g>
<g >
</g>
<g >
</g>
<g >
</g>
<g >
</g>
<g >
</g>
<g >
</g>
<g >
</g>
<g >
</g>
<g >
</g>
<g >
</g>
<g >
</g>
<g >
</g>
<g >
</g>
<g >
</g>
<g >
</g>
<g >
</g>
<g >
</g>
<g >
</g>
<g >
</g>
<g >
</g>
<g >
</g>
<g >
</g>
<g >
</g>
<g >
</g>
<g >
</g>
<g >
</g>
<g >
</g>
<g >
</g>
<g >
</g>
<g >
</g>
<g >
</g>
<g >
</g>
<g >
</g>
<g >
</g>
<g >
</g>
<g >
</g>
<g >
</g>
<g >
</g>
<g >
</g>
<g >
</g>
<g >
</g>
<g >
</g>
<g >
</g>
<g >
</g>
<g >
</g>
<g >
</g>
<g >
</g>
<g >
</g>
<g >
</g>
<g >
</g>
<g >
</g>
<g >
</g>
<g >
</g>
<g >
</g>
<g >
</g>
<g >
</g>
<g >
</g>
<g >
</g>
<g >
</g>
<g >
</g>
<g >
</g>
<g >
</g>
<g >
</g>
<g >
</g>
<g >
</g>
<g >
</g>
<g >
</g>
<g >
</g>
<g >
</g>
<g >
</g>
<g >
</g>
<g >
</g>
<g >
</g>
<g >
</g>
<g >
</g>
<g >
</g>
<g >
</g>
<g >
</g>
<g >
</g>
<g >
</g>
<g >
</g>
<g >
</g>
<g >
</g>
<g >
</g>
<g >
</g>
<g >
</g>
<g >
</g>
<g >
</g>
<g >
</g>
<g >
</g>
<g >
</g>
<g >
</g>
<g >
</g>
<g >
</g>
<g >
</g>
<g >
</g>
<g >
</g>
<g >
</g>
<g >
</g>
<g >
</g>
<g >
</g>
<g >
</g>
<g >
</g>
<g >
</g>
<g >
</g>
<g >
</g>
<g >
</g>
<g >
</g>
<g >
</g>
<g >
</g>
<g >
</g>
<g >
</g>
<g >
</g>
<g >
</g>
<g >
</g>
<g >
</g>
<g >
</g>
<g >
</g>
<g >
</g>
</g> 
</svg>
