<?xml version="1.0" encoding="UTF-8" standalone="no"?>
<!DOCTYPE svg PUBLIC "-//W3C//DTD SVG 1.1//EN" "http://www.w3.org/Graphics/SVG/1.1/DTD/svg11.dtd">
<svg width="100%" height="100%" viewBox="0 0 1701 1134" version="1.1" xmlns="http://www.w3.org/2000/svg" xmlns:xlink="http://www.w3.org/1999/xlink" xml:space="preserve" xmlns:serif="http://www.serif.com/" style="fill-rule:evenodd;clip-rule:evenodd;stroke-linecap:round;stroke-linejoin:round;">
    <g transform="matrix(1.33333,0,0,1.33333,0,0)">
        <g id="カット2">
            <path d="M980.787,314.646L36.85,314.646M36.85,28.346L980.787,28.346M28.346,306.142L28.346,36.85M36.85,28.346C32.185,28.346 28.346,32.185 28.346,36.85M989.291,36.85C989.291,32.185 985.453,28.346 980.787,28.346M989.291,36.85L989.291,306.142M980.787,314.646C985.452,314.646 989.291,310.807 989.291,306.142M28.346,306.142C28.346,306.142 28.346,306.142 28.346,306.142C28.346,310.807 32.185,314.646 36.85,314.646C36.85,314.646 36.85,314.646 36.85,314.646" style="fill-opacity:0;fill-rule:nonzero;stroke:rgb(0,0,255);stroke-width:0.5px;"/>
            <path d="M886.535,404.646L986.457,404.646M886.535,404.646L886.535,460.63M31.181,417.402L53.212,417.402M28.347,414.567C28.347,414.567 28.347,414.567 28.347,414.567C28.347,416.122 29.626,417.402 31.181,417.402M28.346,583.937C28.346,583.937 28.346,583.937 28.346,583.937C28.346,588.602 32.185,592.441 36.85,592.441C36.85,592.441 36.85,592.441 36.85,592.441M980.787,592.441L36.85,592.441M36.85,342.992L980.787,342.992M28.346,414.567L28.346,351.496M28.346,583.937L28.346,450M36.85,342.992C32.185,342.992 28.346,346.831 28.346,351.496M980.787,592.441C985.452,592.441 989.291,588.602 989.291,583.937M53.212,417.402L53.212,447.165M989.291,351.496C989.291,346.831 985.453,342.992 980.787,342.992M989.291,351.496L989.291,401.811M989.291,463.465L989.291,583.937M53.212,447.165L31.181,447.165M986.457,404.646C988.012,404.646 989.291,403.366 989.291,401.811C989.291,401.811 989.291,401.811 989.291,401.811M31.181,447.165C29.626,447.165 28.346,448.445 28.346,450M886.535,460.63L986.457,460.63M989.291,463.465C989.291,461.91 988.012,460.63 986.457,460.63" style="fill-opacity:0;fill-rule:nonzero;stroke:rgb(0,0,255);stroke-width:0.5px;"/>
            <path d="M980.787,772.441C985.452,772.441 989.291,768.602 989.291,763.937M28.346,763.937C28.346,763.937 28.346,763.937 28.346,763.937C28.346,768.602 32.185,772.441 36.85,772.441C36.85,772.441 36.85,772.441 36.85,772.441M36.85,620.787L980.787,620.787M28.346,763.937L28.346,629.291M36.85,620.787C32.185,620.787 28.346,624.626 28.346,629.291M989.291,629.291C989.291,624.626 985.453,620.787 980.787,620.787M989.291,629.291L989.291,763.937M980.787,772.441L36.85,772.441" style="fill-opacity:0;fill-rule:nonzero;stroke:rgb(0,0,255);stroke-width:0.5px;"/>
        </g>
        <g id="カット1">
            <path d="M43.566,44.079L43.566,83.764M43.566,83.764L83.251,83.764M83.251,44.079L83.251,83.764M83.251,44.079L43.566,44.079" style="fill-opacity:0;fill-rule:nonzero;stroke:rgb(255,0,0);stroke-width:0.5px;"/>
            <path d="M137.251,44.079L97.566,44.079M137.251,44.079L137.251,83.764M97.566,83.764L137.251,83.764M97.566,44.079L97.566,83.764" style="fill-opacity:0;fill-rule:nonzero;stroke:rgb(255,0,0);stroke-width:0.5px;"/>
            <path d="M151.566,44.079L151.566,83.764M191.251,44.079L151.566,44.079M151.566,83.764L191.251,83.764M191.251,44.079L191.251,83.764" style="fill-opacity:0;fill-rule:nonzero;stroke:rgb(255,0,0);stroke-width:0.5px;"/>
            <path d="M205.566,83.764L245.251,83.764M205.566,44.079L205.566,83.764M245.251,44.079L205.566,44.079M245.251,44.079L245.251,83.764" style="fill-opacity:0;fill-rule:nonzero;stroke:rgb(255,0,0);stroke-width:0.5px;"/>
            <path d="M299.251,44.079L259.566,44.079M299.251,44.079L299.251,83.764M259.566,83.764L299.251,83.764M259.566,44.079L259.566,83.764" style="fill-opacity:0;fill-rule:nonzero;stroke:rgb(255,0,0);stroke-width:0.5px;"/>
            <path d="M353.251,44.079L313.566,44.079M353.251,44.079L353.251,83.764M313.566,83.764L353.251,83.764M313.566,44.079L313.566,83.764" style="fill-opacity:0;fill-rule:nonzero;stroke:rgb(255,0,0);stroke-width:0.5px;"/>
            <path d="M367.566,83.764L407.251,83.764M407.251,44.079L407.251,83.764M367.566,44.079L367.566,83.764M407.251,44.079L367.566,44.079" style="fill-opacity:0;fill-rule:nonzero;stroke:rgb(255,0,0);stroke-width:0.5px;"/>
            <path d="M421.566,83.764L461.251,83.764M421.566,44.079L421.566,83.764M461.251,44.079L421.566,44.079M461.251,44.079L461.251,83.764" style="fill-opacity:0;fill-rule:nonzero;stroke:rgb(255,0,0);stroke-width:0.5px;"/>
            <path d="M475.566,83.764L515.251,83.764M515.251,44.079L475.566,44.079M475.566,44.079L475.566,83.764M515.251,44.079L515.251,83.764" style="fill-opacity:0;fill-rule:nonzero;stroke:rgb(255,0,0);stroke-width:0.5px;"/>
            <path d="M529.566,83.764L569.251,83.764M529.566,44.079L529.566,83.764M569.251,44.079L529.566,44.079M569.251,44.079L569.251,83.764" style="fill-opacity:0;fill-rule:nonzero;stroke:rgb(255,0,0);stroke-width:0.5px;"/>
            <path d="M623.251,44.079L583.566,44.079M583.566,44.079L583.566,83.764M623.251,44.079L623.251,83.764M583.566,83.764L623.251,83.764" style="fill-opacity:0;fill-rule:nonzero;stroke:rgb(255,0,0);stroke-width:0.5px;"/>
            <path d="M637.566,44.079L637.566,83.764M637.566,83.764L677.251,83.764M677.251,44.079L677.251,83.764M677.251,44.079L637.566,44.079" style="fill-opacity:0;fill-rule:nonzero;stroke:rgb(255,0,0);stroke-width:0.5px;"/>
            <path d="M731.251,44.079L731.251,83.764M691.566,44.079L691.566,83.764M731.251,44.079L691.566,44.079M691.566,83.764L731.251,83.764" style="fill-opacity:0;fill-rule:nonzero;stroke:rgb(255,0,0);stroke-width:0.5px;"/>
            <g transform="matrix(1,0,0,1,13.5014,0)">
                <path d="M826.566,44.079L826.566,83.764M826.566,83.764L866.251,83.764M866.251,44.079L826.566,44.079M866.251,44.079L866.251,83.764" style="fill-opacity:0;fill-rule:nonzero;stroke:rgb(255,0,0);stroke-width:0.5px;"/>
            </g>
            <g transform="matrix(1,0,0,1,40.5014,0)">
                <path d="M880.566,44.079L880.566,83.764M920.251,44.079L880.566,44.079M880.566,83.764L920.251,83.764M920.251,44.079L920.251,83.764" style="fill-opacity:0;fill-rule:nonzero;stroke:rgb(255,0,0);stroke-width:0.5px;"/>
            </g>
            <path d="M164.251,98.079L164.251,137.764M124.566,98.079L124.566,137.764M124.566,137.764L164.251,137.764M164.251,98.079L124.566,98.079" style="fill-opacity:0;fill-rule:nonzero;stroke:rgb(255,0,0);stroke-width:0.5px;"/>
            <path d="M178.566,98.079L178.566,137.764M178.566,137.764L218.251,137.764M218.251,98.079L178.566,98.079M218.251,98.079L218.251,137.764" style="fill-opacity:0;fill-rule:nonzero;stroke:rgb(255,0,0);stroke-width:0.5px;"/>
            <path d="M272.251,98.079L232.566,98.079M232.566,98.079L232.566,137.764M232.566,137.764L272.251,137.764M272.251,98.079L272.251,137.764" style="fill-opacity:0;fill-rule:nonzero;stroke:rgb(255,0,0);stroke-width:0.5px;"/>
            <path d="M286.566,98.079L286.566,137.764M286.566,137.764L326.251,137.764M326.251,98.079L326.251,137.764M326.251,98.079L286.566,98.079" style="fill-opacity:0;fill-rule:nonzero;stroke:rgb(255,0,0);stroke-width:0.5px;"/>
            <path d="M380.251,98.079L340.566,98.079M340.566,137.764L380.251,137.764M380.251,98.079L380.251,137.764M340.566,98.079L340.566,137.764" style="fill-opacity:0;fill-rule:nonzero;stroke:rgb(255,0,0);stroke-width:0.5px;"/>
            <path d="M394.566,137.764L434.251,137.764M434.251,98.079L394.566,98.079M434.251,98.079L434.251,137.764M394.566,98.079L394.566,137.764" style="fill-opacity:0;fill-rule:nonzero;stroke:rgb(255,0,0);stroke-width:0.5px;"/>
            <path d="M448.566,98.079L448.566,137.764M448.566,137.764L488.251,137.764M488.251,98.079L448.566,98.079M488.251,98.079L488.251,137.764" style="fill-opacity:0;fill-rule:nonzero;stroke:rgb(255,0,0);stroke-width:0.5px;"/>
            <path d="M542.251,98.079L502.566,98.079M502.566,98.079L502.566,137.764M502.566,137.764L542.251,137.764M542.251,98.079L542.251,137.764" style="fill-opacity:0;fill-rule:nonzero;stroke:rgb(255,0,0);stroke-width:0.5px;"/>
            <path d="M556.566,98.079L556.566,137.764M556.566,137.764L596.251,137.764M596.251,98.079L556.566,98.079M596.251,98.079L596.251,137.764" style="fill-opacity:0;fill-rule:nonzero;stroke:rgb(255,0,0);stroke-width:0.5px;"/>
            <path d="M650.251,98.079L610.566,98.079M610.566,98.079L610.566,137.764M650.251,98.079L650.251,137.764M610.566,137.764L650.251,137.764" style="fill-opacity:0;fill-rule:nonzero;stroke:rgb(255,0,0);stroke-width:0.5px;"/>
            <path d="M704.251,98.079L664.566,98.079M664.566,137.764L704.251,137.764M704.251,98.079L704.251,137.764M664.566,98.079L664.566,137.764" style="fill-opacity:0;fill-rule:nonzero;stroke:rgb(255,0,0);stroke-width:0.5px;"/>
            <path d="M758.251,98.079L758.251,137.764M718.566,137.764L758.251,137.764M718.566,98.079L718.566,137.764M758.251,98.079L718.566,98.079" style="fill-opacity:0;fill-rule:nonzero;stroke:rgb(255,0,0);stroke-width:0.5px;"/>
            <path d="M812.251,98.079L772.566,98.079M772.566,137.764L812.251,137.764M812.251,98.079L812.251,137.764M772.566,98.079L772.566,137.764" style="fill-opacity:0;fill-rule:nonzero;stroke:rgb(255,0,0);stroke-width:0.5px;"/>
            <path d="M866.251,98.079L866.251,137.764M826.566,137.764L866.251,137.764M826.566,98.079L826.566,137.764M866.251,98.079L826.566,98.079" style="fill-opacity:0;fill-rule:nonzero;stroke:rgb(255,0,0);stroke-width:0.5px;"/>
            <path d="M920.251,98.079L920.251,137.764M920.251,98.079L880.566,98.079M880.566,98.079L880.566,137.764M880.566,137.764L920.251,137.764" style="fill-opacity:0;fill-rule:nonzero;stroke:rgb(255,0,0);stroke-width:0.5px;"/>
            <path d="M974.251,98.079L974.251,137.764M934.566,137.764L974.251,137.764M974.251,98.079L934.566,98.079M934.566,98.079L934.566,137.764" style="fill-opacity:0;fill-rule:nonzero;stroke:rgb(255,0,0);stroke-width:0.5px;"/>
            <path d="M177.751,152.079L177.751,191.764M138.066,152.079L138.066,191.764M138.066,191.764L177.751,191.764M177.751,152.079L138.066,152.079" style="fill-opacity:0;fill-rule:nonzero;stroke:rgb(255,0,0);stroke-width:0.5px;"/>
            <path d="M231.751,152.079L192.066,152.079M192.066,152.079L192.066,191.764M192.066,191.764L231.751,191.764M231.751,152.079L231.751,191.764" style="fill-opacity:0;fill-rule:nonzero;stroke:rgb(255,0,0);stroke-width:0.5px;"/>
            <path d="M285.751,152.079L246.066,152.079M285.751,152.079L285.751,191.764M246.066,191.764L285.751,191.764M246.066,152.079L246.066,191.764" style="fill-opacity:0;fill-rule:nonzero;stroke:rgb(255,0,0);stroke-width:0.5px;"/>
            <path d="M339.751,152.079L339.751,191.764M300.066,152.079L300.066,191.764M300.066,191.764L339.751,191.764M339.751,152.079L300.066,152.079" style="fill-opacity:0;fill-rule:nonzero;stroke:rgb(255,0,0);stroke-width:0.5px;"/>
            <path d="M354.066,152.079L354.066,191.764M393.751,152.079L393.751,191.764M393.751,152.079L354.066,152.079M354.066,191.764L393.751,191.764" style="fill-opacity:0;fill-rule:nonzero;stroke:rgb(255,0,0);stroke-width:0.5px;"/>
            <path d="M408.066,191.764L447.751,191.764M447.751,152.079L408.066,152.079M408.066,152.079L408.066,191.764M447.751,152.079L447.751,191.764" style="fill-opacity:0;fill-rule:nonzero;stroke:rgb(255,0,0);stroke-width:0.5px;"/>
            <path d="M501.751,152.079L501.751,191.764M462.066,191.764L501.751,191.764M501.751,152.079L462.066,152.079M462.066,152.079L462.066,191.764" style="fill-opacity:0;fill-rule:nonzero;stroke:rgb(255,0,0);stroke-width:0.5px;"/>
            <path d="M555.751,152.079L555.751,191.764M516.066,152.079L516.066,191.764M516.066,191.764L555.751,191.764M555.751,152.079L516.066,152.079" style="fill-opacity:0;fill-rule:nonzero;stroke:rgb(255,0,0);stroke-width:0.5px;"/>
            <path d="M570.066,191.764L609.751,191.764M609.751,152.079L570.066,152.079M570.066,152.079L570.066,191.764M609.751,152.079L609.751,191.764" style="fill-opacity:0;fill-rule:nonzero;stroke:rgb(255,0,0);stroke-width:0.5px;"/>
            <path d="M663.751,152.079L624.066,152.079M663.751,152.079L663.751,191.764M624.066,152.079L624.066,191.764M624.066,191.764L663.751,191.764" style="fill-opacity:0;fill-rule:nonzero;stroke:rgb(255,0,0);stroke-width:0.5px;"/>
            <path d="M717.751,152.079L717.751,191.764M678.066,191.764L717.751,191.764M678.066,152.079L678.066,191.764M717.751,152.079L678.066,152.079" style="fill-opacity:0;fill-rule:nonzero;stroke:rgb(255,0,0);stroke-width:0.5px;"/>
            <path d="M826.566,191.764L866.251,191.764M866.251,152.079L826.566,152.079M866.251,152.079L866.251,191.764M826.566,152.079L826.566,191.764" style="fill-opacity:0;fill-rule:nonzero;stroke:rgb(255,0,0);stroke-width:0.5px;"/>
            <path d="M880.566,152.079L880.566,191.764M920.251,152.079L920.251,191.764M880.566,191.764L920.251,191.764M920.251,152.079L880.566,152.079" style="fill-opacity:0;fill-rule:nonzero;stroke:rgb(255,0,0);stroke-width:0.5px;"/>
            <path d="M934.566,152.079L934.566,191.764M974.251,152.079L974.251,191.764M934.566,191.764L974.251,191.764M974.251,152.079L934.566,152.079" style="fill-opacity:0;fill-rule:nonzero;stroke:rgb(255,0,0);stroke-width:0.5px;"/>
            <path d="M165.066,245.764L204.751,245.764M204.751,206.079L204.751,245.764M165.066,206.079L165.066,245.764M204.751,206.079L165.066,206.079" style="fill-opacity:0;fill-rule:nonzero;stroke:rgb(255,0,0);stroke-width:0.5px;"/>
            <path d="M219.066,245.764L258.751,245.764M258.751,206.079L258.751,245.764M219.066,206.079L219.066,245.764M258.751,206.079L219.066,206.079" style="fill-opacity:0;fill-rule:nonzero;stroke:rgb(255,0,0);stroke-width:0.5px;"/>
            <path d="M273.066,245.764L312.751,245.764M312.751,206.079L312.751,245.764M312.751,206.079L273.066,206.079M273.066,206.079L273.066,245.764" style="fill-opacity:0;fill-rule:nonzero;stroke:rgb(255,0,0);stroke-width:0.5px;"/>
            <path d="M366.751,206.079L327.066,206.079M327.066,206.079L327.066,245.764M327.066,245.764L366.751,245.764M366.751,206.079L366.751,245.764" style="fill-opacity:0;fill-rule:nonzero;stroke:rgb(255,0,0);stroke-width:0.5px;"/>
            <path d="M420.751,206.079L420.751,245.764M381.066,206.079L381.066,245.764M420.751,206.079L381.066,206.079M381.066,245.764L420.751,245.764" style="fill-opacity:0;fill-rule:nonzero;stroke:rgb(255,0,0);stroke-width:0.5px;"/>
            <path d="M435.066,206.079L435.066,245.764M474.751,206.079L474.751,245.764M474.751,206.079L435.066,206.079M435.066,245.764L474.751,245.764" style="fill-opacity:0;fill-rule:nonzero;stroke:rgb(255,0,0);stroke-width:0.5px;"/>
            <path d="M528.751,206.079L489.066,206.079M489.066,206.079L489.066,245.764M528.751,206.079L528.751,245.764M489.066,245.764L528.751,245.764" style="fill-opacity:0;fill-rule:nonzero;stroke:rgb(255,0,0);stroke-width:0.5px;"/>
            <path d="M543.066,206.079L543.066,245.764M543.066,245.764L582.751,245.764M582.751,206.079L582.751,245.764M582.751,206.079L543.066,206.079" style="fill-opacity:0;fill-rule:nonzero;stroke:rgb(255,0,0);stroke-width:0.5px;"/>
            <path d="M636.751,206.079L597.066,206.079M636.751,206.079L636.751,245.764M597.066,206.079L597.066,245.764M597.066,245.764L636.751,245.764" style="fill-opacity:0;fill-rule:nonzero;stroke:rgb(255,0,0);stroke-width:0.5px;"/>
            <path d="M651.066,206.079L651.066,245.764M690.751,206.079L651.066,206.079M651.066,245.764L690.751,245.764M690.751,206.079L690.751,245.764" style="fill-opacity:0;fill-rule:nonzero;stroke:rgb(255,0,0);stroke-width:0.5px;"/>
            <path d="M826.566,245.764L866.251,245.764M826.566,206.079L826.566,245.764M866.251,206.079L826.566,206.079M866.251,206.079L866.251,245.764" style="fill-opacity:0;fill-rule:nonzero;stroke:rgb(255,0,0);stroke-width:0.5px;"/>
            <path d="M880.566,245.764L920.251,245.764M920.251,206.079L920.251,245.764M920.251,206.079L880.566,206.079M880.566,206.079L880.566,245.764" style="fill-opacity:0;fill-rule:nonzero;stroke:rgb(255,0,0);stroke-width:0.5px;"/>
            <path d="M974.251,206.079L934.566,206.079M934.566,206.079L934.566,245.764M974.251,206.079L974.251,245.764M934.566,245.764L974.251,245.764" style="fill-opacity:0;fill-rule:nonzero;stroke:rgb(255,0,0);stroke-width:0.5px;"/>
            <path d="M711.812,299.764L751.497,299.764M711.812,260.079L751.497,260.079M711.812,260.079L711.812,299.764M751.497,260.079L751.497,299.764" style="fill-opacity:0;fill-rule:nonzero;stroke:rgb(255,0,0);stroke-width:0.5px;"/>
            <path d="M866.251,260.079L826.566,260.079M826.566,260.079L826.566,299.764M866.251,260.079L866.251,299.764M826.566,299.764L866.251,299.764" style="fill-opacity:0;fill-rule:nonzero;stroke:rgb(255,0,0);stroke-width:0.5px;"/>
            <path d="M920.251,260.079L920.251,299.764M920.251,260.079L880.566,260.079M880.566,299.764L920.251,299.764M880.566,260.079L880.566,299.764" style="fill-opacity:0;fill-rule:nonzero;stroke:rgb(255,0,0);stroke-width:0.5px;"/>
            <path d="M974.251,260.079L974.251,299.764M934.566,299.764L974.251,299.764M934.566,260.079L934.566,299.764M974.251,260.079L934.566,260.079" style="fill-opacity:0;fill-rule:nonzero;stroke:rgb(255,0,0);stroke-width:0.5px;"/>
            <path d="M50.315,299.764L90,299.764M50.315,260.079L50.315,299.764M50.315,260.079L90,260.079M90,260.079L90,299.764" style="fill-opacity:0;fill-rule:nonzero;stroke:rgb(255,0,0);stroke-width:0.5px;"/>
            <path d="M117.815,299.764L157.5,299.764M117.815,260.079L117.815,299.764M117.815,260.079L157.5,260.079M157.5,260.079L157.5,299.764" style="fill-opacity:0;fill-rule:nonzero;stroke:rgb(255,0,0);stroke-width:0.5px;"/>
            <path d="M185.315,260.079L185.315,299.764M185.315,260.079L225,260.079M185.315,299.764L225,299.764M225,260.079L225,299.764" style="fill-opacity:0;fill-rule:nonzero;stroke:rgb(255,0,0);stroke-width:0.5px;"/>
            <path d="M252.815,299.764L292.5,299.764M292.5,260.079L292.5,299.764M252.815,260.079L292.5,260.079M252.815,260.079L252.815,299.764" style="fill-opacity:0;fill-rule:nonzero;stroke:rgb(255,0,0);stroke-width:0.5px;"/>
            <path d="M509.315,260.079L509.315,299.764M509.315,260.079L549,260.079M549,260.079L549,299.764M509.315,299.764L549,299.764" style="fill-opacity:0;fill-rule:nonzero;stroke:rgb(255,0,0);stroke-width:0.5px;"/>
            <path d="M616.5,260.079L616.5,299.764M576.815,260.079L616.5,260.079M576.815,260.079L576.815,299.764M576.815,299.764L616.5,299.764" style="fill-opacity:0;fill-rule:nonzero;stroke:rgb(255,0,0);stroke-width:0.5px;"/>
            <path d="M684,260.079L684,299.764M644.315,260.079L684,260.079M644.315,260.079L644.315,299.764M644.315,299.764L684,299.764" style="fill-opacity:0;fill-rule:nonzero;stroke:rgb(255,0,0);stroke-width:0.5px;"/>
            <path d="M812.246,260.079L812.246,299.764M812.246,260.079L772.561,260.079M772.561,260.079L772.561,299.764M772.561,299.764L812.246,299.764" style="fill-opacity:0;fill-rule:nonzero;stroke:rgb(255,0,0);stroke-width:0.5px;"/>
            <path d="M798.752,44.079L798.752,83.764M759.067,44.079L759.067,83.764M759.067,44.079L798.752,44.079M759.067,83.764L798.752,83.764" style="fill-opacity:0;fill-rule:nonzero;stroke:rgb(255,0,0);stroke-width:0.5px;"/>
            <path d="M57.067,98.079L96.752,98.079M57.067,98.079L57.067,137.764M57.067,137.764L96.752,137.764M96.752,98.079L96.752,137.764" style="fill-opacity:0;fill-rule:nonzero;stroke:rgb(255,0,0);stroke-width:0.5px;"/>
            <path d="M70.567,191.764L110.252,191.764M110.252,152.079L110.252,191.764M70.567,152.079L110.252,152.079M70.567,152.079L70.567,191.764" style="fill-opacity:0;fill-rule:nonzero;stroke:rgb(255,0,0);stroke-width:0.5px;"/>
            <path d="M745.567,152.079L745.567,191.764M745.567,191.764L785.252,191.764M785.252,152.079L785.252,191.764M745.567,152.079L785.252,152.079" style="fill-opacity:0;fill-rule:nonzero;stroke:rgb(255,0,0);stroke-width:0.5px;"/>
            <path d="M130.504,206.079L130.504,245.764M90.819,206.079L90.819,245.764M90.819,245.764L130.504,245.764M90.819,206.079L130.504,206.079" style="fill-opacity:0;fill-rule:nonzero;stroke:rgb(255,0,0);stroke-width:0.5px;"/>
            <path d="M725.313,206.079L764.999,206.079M725.313,206.079L725.313,245.764M764.999,206.079L764.999,245.764M725.313,245.764L764.999,245.764" style="fill-opacity:0;fill-rule:nonzero;stroke:rgb(255,0,0);stroke-width:0.5px;"/>
            <path d="M333.816,260.079L333.816,299.764M373.501,260.079L373.501,299.764M333.816,260.079L373.501,260.079M333.816,299.764L373.501,299.764" style="fill-opacity:0;fill-rule:nonzero;stroke:rgb(255,0,0);stroke-width:0.5px;"/>
            <path d="M428.316,299.764L468.001,299.764M428.316,260.079L428.316,299.764M468.001,260.079L468.001,299.764M428.316,260.079L468.001,260.079" style="fill-opacity:0;fill-rule:nonzero;stroke:rgb(255,0,0);stroke-width:0.5px;"/>
            <g transform="matrix(1,0,0,1,-42.7918,-49.0287)">
                <circle cx="1023.58" cy="355.17" r="3.26" style="fill-opacity:0;stroke:rgb(255,0,0);stroke-width:0.5px;"/>
            </g>
            <g transform="matrix(1,0,0,1,-42.7918,-49.0287)">
                <circle cx="315.626" cy="85.879" r="3.26" style="fill-opacity:0;stroke:rgb(255,0,0);stroke-width:0.5px;"/>
            </g>
            <g transform="matrix(1,0,0,1,-42.7918,-49.0287)">
                <circle cx="551.611" cy="85.879" r="3.26" style="fill-opacity:0;stroke:rgb(255,0,0);stroke-width:0.5px;"/>
            </g>
            <g transform="matrix(1,0,0,1,-42.7918,-49.0287)">
                <circle cx="1023.58" cy="85.879" r="3.26" style="fill-opacity:0;stroke:rgb(255,0,0);stroke-width:0.5px;"/>
            </g>
            <g transform="matrix(1,0,0,1,-42.7918,-49.0287)">
                <circle cx="315.626" cy="355.17" r="3.26" style="fill-opacity:0;stroke:rgb(255,0,0);stroke-width:0.5px;"/>
            </g>
            <g transform="matrix(1,0,0,1,-42.7918,-49.0287)">
                <circle cx="787.595" cy="355.17" r="3.26" style="fill-opacity:0;stroke:rgb(255,0,0);stroke-width:0.5px;"/>
            </g>
            <g transform="matrix(1,0,0,1,-42.7918,-49.0287)">
                <circle cx="787.595" cy="85.879" r="3.26" style="fill-opacity:0;stroke:rgb(255,0,0);stroke-width:0.5px;"/>
            </g>
            <g transform="matrix(1,0,0,1,-42.7918,-49.0287)">
                <circle cx="1023.58" cy="220.525" r="3.26" style="fill-opacity:0;stroke:rgb(255,0,0);stroke-width:0.5px;"/>
            </g>
            <g transform="matrix(1,0,0,1,-42.7918,-49.0287)">
                <circle cx="364.524" cy="318.32" r="3.26" style="fill-opacity:0;stroke:rgb(255,0,0);stroke-width:0.5px;"/>
            </g>
            <g transform="matrix(1,0,0,1,-42.7918,-49.0287)">
                <circle cx="79.642" cy="355.17" r="3.26" style="fill-opacity:0;stroke:rgb(255,0,0);stroke-width:0.5px;"/>
            </g>
            <g transform="matrix(1,0,0,1,-42.7918,-49.0287)">
                <circle cx="79.642" cy="220.525" r="3.26" style="fill-opacity:0;stroke:rgb(255,0,0);stroke-width:0.5px;"/>
            </g>
            <g transform="matrix(1,0,0,1,-42.7918,-49.0287)">
                <circle cx="79.642" cy="85.879" r="3.26" style="fill-opacity:0;stroke:rgb(255,0,0);stroke-width:0.5px;"/>
            </g>
            <g transform="matrix(1,0,0,1,-42.7918,-49.0287)">
                <circle cx="713.956" cy="196.43" r="3.26" style="fill-opacity:0;stroke:rgb(255,0,0);stroke-width:0.5px;"/>
            </g>
            <g transform="matrix(1,0,0,1,-42.7918,-49.0287)">
                <circle cx="389.389" cy="196.43" r="3.26" style="fill-opacity:0;stroke:rgb(255,0,0);stroke-width:0.5px;"/>
            </g>
            <g transform="matrix(1,0,0,1,-42.7918,-49.0287)">
                <circle cx="738.697" cy="318.32" r="3.26" style="fill-opacity:0;stroke:rgb(255,0,0);stroke-width:0.5px;"/>
            </g>
            <g transform="matrix(1,0,0,1,-42.7918,-49.0287)">
                <circle cx="551.611" cy="355.17" r="3.26" style="fill-opacity:0;stroke:rgb(255,0,0);stroke-width:0.5px;"/>
            </g>
            <g transform="matrix(1,0,0,1,-42.7918,265.617)">
                <circle cx="315.626" cy="85.879" r="3.26" style="fill-opacity:0;stroke:rgb(255,0,0);stroke-width:0.5px;"/>
            </g>
            <g transform="matrix(1,0,0,1,-42.7918,265.617)">
                <circle cx="551.611" cy="85.879" r="3.26" style="fill-opacity:0;stroke:rgb(255,0,0);stroke-width:0.5px;"/>
            </g>
            <g transform="matrix(1,0,0,1,-42.7918,265.617)">
                <circle cx="1023.58" cy="85.879" r="3.26" style="fill-opacity:0;stroke:rgb(255,0,0);stroke-width:0.5px;"/>
            </g>
            <g transform="matrix(1,0,0,1,-42.7918,265.617)">
                <circle cx="787.595" cy="85.879" r="3.26" style="fill-opacity:0;stroke:rgb(255,0,0);stroke-width:0.5px;"/>
            </g>
            <g transform="matrix(1,0,0,1,-42.7918,265.617)">
                <circle cx="1023.58" cy="220.525" r="3.26" style="fill-opacity:0;stroke:rgb(255,0,0);stroke-width:0.5px;"/>
            </g>
            <g transform="matrix(1,0,0,1,-42.7918,265.617)">
                <circle cx="364.524" cy="318.32" r="3.26" style="fill-opacity:0;stroke:rgb(255,0,0);stroke-width:0.5px;"/>
            </g>
            <g transform="matrix(1,0,0,1,-42.7918,265.617)">
                <circle cx="79.642" cy="220.525" r="3.26" style="fill-opacity:0;stroke:rgb(255,0,0);stroke-width:0.5px;"/>
            </g>
            <g transform="matrix(1,0,0,1,-42.7918,265.617)">
                <circle cx="79.642" cy="85.879" r="3.26" style="fill-opacity:0;stroke:rgb(255,0,0);stroke-width:0.5px;"/>
            </g>
            <g transform="matrix(1,0,0,1,-42.7918,265.617)">
                <circle cx="713.956" cy="196.43" r="3.26" style="fill-opacity:0;stroke:rgb(255,0,0);stroke-width:0.5px;"/>
            </g>
            <g transform="matrix(1,0,0,1,-42.7918,265.617)">
                <circle cx="1023.58" cy="318.32" r="3.26" style="fill-opacity:0;stroke:rgb(255,0,0);stroke-width:0.5px;"/>
            </g>
            <g transform="matrix(1,0,0,1,-42.7918,265.617)">
                <circle cx="389.389" cy="196.43" r="3.26" style="fill-opacity:0;stroke:rgb(255,0,0);stroke-width:0.5px;"/>
            </g>
            <g transform="matrix(1,0,0,1,-42.7918,265.617)">
                <circle cx="738.697" cy="318.32" r="3.26" style="fill-opacity:0;stroke:rgb(255,0,0);stroke-width:0.5px;"/>
            </g>
            <g transform="matrix(1,0,0,1,-42.7918,265.617)">
                <circle cx="79.642" cy="318.32" r="3.26" style="fill-opacity:0;stroke:rgb(255,0,0);stroke-width:0.5px;"/>
            </g>
            <g transform="matrix(1,0,0,1,-42.7918,543.412)">
                <circle cx="315.626" cy="85.879" r="3.26" style="fill-opacity:0;stroke:rgb(255,0,0);stroke-width:0.5px;"/>
            </g>
            <g transform="matrix(1,0,0,1,-42.7918,543.412)">
                <circle cx="551.611" cy="85.879" r="3.26" style="fill-opacity:0;stroke:rgb(255,0,0);stroke-width:0.5px;"/>
            </g>
            <g transform="matrix(1,0,0,1,-42.7918,543.412)">
                <circle cx="1023.58" cy="85.879" r="3.26" style="fill-opacity:0;stroke:rgb(255,0,0);stroke-width:0.5px;"/>
            </g>
            <g transform="matrix(1,0,0,1,-42.7918,543.412)">
                <circle cx="787.595" cy="85.879" r="3.26" style="fill-opacity:0;stroke:rgb(255,0,0);stroke-width:0.5px;"/>
            </g>
            <g transform="matrix(1,0,0,1,-42.7918,543.412)">
                <circle cx="1023.58" cy="220.525" r="3.26" style="fill-opacity:0;stroke:rgb(255,0,0);stroke-width:0.5px;"/>
            </g>
            <g transform="matrix(1,0,0,1,-42.7918,543.412)">
                <circle cx="79.642" cy="220.525" r="3.26" style="fill-opacity:0;stroke:rgb(255,0,0);stroke-width:0.5px;"/>
            </g>
            <g transform="matrix(1,0,0,1,-42.7918,543.412)">
                <circle cx="79.642" cy="85.879" r="3.26" style="fill-opacity:0;stroke:rgb(255,0,0);stroke-width:0.5px;"/>
            </g>
            <g transform="matrix(1,0,0,1,-42.7918,543.412)">
                <circle cx="713.956" cy="196.43" r="3.26" style="fill-opacity:0;stroke:rgb(255,0,0);stroke-width:0.5px;"/>
            </g>
            <g transform="matrix(1,0,0,1,-42.7918,543.412)">
                <circle cx="389.389" cy="196.43" r="3.26" style="fill-opacity:0;stroke:rgb(255,0,0);stroke-width:0.5px;"/>
            </g>
        </g>
    </g>
</svg>
