<?xml version="1.0" encoding="UTF-8" standalone="no"?>
<!-- Created with Inkscape (http://www.inkscape.org/) -->

<svg
   version="1.1"
   id="svg10"
   xml:space="preserve"
   width="450mm"
   height="300mm"
   viewBox="0 0 1700.7875 1133.8583"
   sodipodi:docname="Laser_450x300_template_inkscape.svg"
   inkscape:version="1.2.1 (9c6d41e4, 2022-07-14)"
   xmlns:inkscape="http://www.inkscape.org/namespaces/inkscape"
   xmlns:sodipodi="http://sodipodi.sourceforge.net/DTD/sodipodi-0.dtd"
   xmlns="http://www.w3.org/2000/svg"
   xmlns:svg="http://www.w3.org/2000/svg"
   xmlns:rdf="http://www.w3.org/1999/02/22-rdf-syntax-ns#"
   xmlns:cc="http://creativecommons.org/ns#"
   xmlns:dc="http://purl.org/dc/elements/1.1/"><metadata
     id="metadata16"><rdf:RDF><cc:Work
         rdf:about=""><dc:format>image/svg+xml</dc:format><dc:type
           rdf:resource="http://purl.org/dc/dcmitype/StillImage" /></cc:Work></rdf:RDF></metadata><defs
     id="defs14"><clipPath
   clipPathUnits="userSpaceOnUse"
   id="clipPath26"><path
     d="M 0,867.401 H 1292.598 V 0 H 0 Z"
     id="path24"
     inkscape:connector-curvature="0" /></clipPath>
            
            
            
        
            
            
            
            
            
            
            
            
            
            
            
            
            
            
            
            
            
            
            
            
            
            
            
            
            
            
            
            
            
            
            
            
            
            
            
            
            
            
            
            
            
            
            
            
            
            
            
            
            
            
            
            
            
            
            
            
            
            
            
            
            
            
            
            
            
            
            
            
            
            
            
            
            
            
            
            
            
            
            
            
            
            
            
            
            
            
            
            
            
            
            
            
            
            
            
            
            
            
            
            
            
            
            
            
            
            
            
            
            
            
            
            
            
            
            
            
        
                
            
                
            
                
            
                
            
                
            
                
            
                
            
                
            
                
            
                
            
                
            
                
            
                
            
                
            
                
            
                
            
                
            
                
            
                
            
                
            
                
            
                
            
                
            
                
            
                
            
                
            
                
            
                
            
                
            
                
            
                
            
                
            
                
            
                
            
                
            
                
            
                
            
                
            
                
            
                
            </defs><sodipodi:namedview
     pagecolor="#ffffff"
     bordercolor="#666666"
     borderopacity="1"
     objecttolerance="10"
     gridtolerance="10"
     guidetolerance="10"
     inkscape:pageopacity="0"
     inkscape:pageshadow="2"
     inkscape:window-width="1642"
     inkscape:window-height="997"
     id="namedview12"
     showgrid="false"
     inkscape:zoom="0.43320824"
     inkscape:cx="1038.7614"
     inkscape:cy="545.92683"
     inkscape:window-x="0"
     inkscape:window-y="25"
     inkscape:window-maximized="0"
     inkscape:current-layer="layer3"
     units="mm"
     inkscape:showpageshadow="2"
     inkscape:pagecheckerboard="0"
     inkscape:deskcolor="#d1d1d1"
     inkscape:document-units="mm" /><g
     inkscape:groupmode="layer"
     id="layer3"
     inkscape:label="カット2(R0G0B255)"
     style="display:inline"><path
       d="M 1308.0467,419.86096 H 49.467245 m 0,-381.732353 H 1308.0467 M 38.128607,408.52232 V 49.467245 M 49.467245,38.128607 c -6.219984,0 -11.338638,5.118654 -11.338638,11.338638 m 1281.256693,0 c 0,-6.219984 -5.1173,-11.338638 -11.3386,-11.338638 m 11.3386,11.338638 V 408.52232 m -11.3386,11.33864 c 6.22,0 11.3386,-5.11866 11.3386,-11.33864 m -1281.256693,0 c 0,0 0,0 0,0 0,6.21998 5.118654,11.33864 11.338638,11.33864 0,0 0,0 0,0"
       style="clip-rule:evenodd;fill-opacity:0;fill-rule:nonzero;stroke:#0000ff;stroke-width:0.004;stroke-linecap:round;stroke-linejoin:round;stroke-dasharray:none"
       id="path1697" /><path
       d="m 1182.3777,539.86065 h 133.229 m -133.229,0 v 74.64514 M 41.908598,556.8686 h 29.374591 m -33.153248,-3.77999 c 0,0 0,0 0,0 0,2.07333 1.705329,3.77999 3.778657,3.77999 m -3.779991,222.0461 c 0,0 0,0 0,0 0,6.21998 5.118654,11.33864 11.338638,11.33864 0,0 0,0 0,0 m 1258.579455,0 H 49.467245 m 0,-332.59781 H 1308.0467 M 38.128607,553.08861 v -84.09445 m 0,309.92054 V 600.33249 M 49.467245,457.65553 c -6.219984,0 -11.338638,5.11865 -11.338638,11.33863 M 1308.0467,790.25334 c 6.22,0 11.3386,-5.11866 11.3386,-11.33864 M 71.283189,556.8686 v 39.6839 M 1319.3853,468.99416 c 0,-6.21998 -5.1173,-11.33863 -11.3386,-11.33863 m 11.3386,11.33863 v 67.0865 m 0,82.20512 V 778.9147 M 71.283189,596.5525 H 41.908598 M 1315.6067,539.86065 c 2.0733,0 3.7786,-1.70666 3.7786,-3.77999 0,0 0,0 0,0 M 41.908598,596.5525 c -2.073328,0 -3.779991,1.70666 -3.779991,3.77999 m 1144.249093,14.1733 h 133.229 m 3.7786,3.77999 c 0,-2.07333 -1.7053,-3.77999 -3.7786,-3.77999"
       style="clip-rule:evenodd;fill-opacity:0;fill-rule:nonzero;stroke:#0000ff;stroke-width:0.004;stroke-linecap:round;stroke-linejoin:round;stroke-dasharray:none"
       id="path1699" /><path
       d="m 1308.0467,1030.2527 c 6.22,0 11.3386,-5.1186 11.3386,-11.3386 m -1281.256693,0 c 0,0 0,0 0,0 0,6.22 5.118654,11.3386 11.338638,11.3386 0,0 0,0 0,0 m 0,-202.20479 H 1308.0467 M 38.128607,1018.9141 V 839.38654 m 11.338638,-11.33863 c -6.219984,0 -11.338638,5.11865 -11.338638,11.33863 m 1281.256693,0 c 0,-6.21998 -5.1173,-11.33863 -11.3386,-11.33863 m 11.3386,11.33863 v 179.52756 m -11.3386,11.3386 H 49.467245"
       style="clip-rule:evenodd;fill-opacity:0;fill-rule:nonzero;stroke:#0000ff;stroke-width:0.004;stroke-linecap:round;stroke-linejoin:round;stroke-dasharray:none"
       id="path1701" /></g><g
     inkscape:groupmode="layer"
     id="layer2"
     inkscape:label="カット1(R255G0B0)"
     style="display:inline"><path
       d="m 58.421888,59.105887 v 52.913193 m 0,0 h 52.913202 m 0,-52.913193 v 52.913193 m 0,-52.913193 H 58.421888"
       style="clip-rule:evenodd;fill-opacity:0;fill-rule:nonzero;stroke:#ff0000;stroke-width:0.004;stroke-linecap:round;stroke-linejoin:round;stroke-dasharray:none"
       id="path1704" /><path
       d="m 183.3349,59.105887 h -52.9132 m 52.9132,0 v 52.913193 m -52.9132,0 h 52.9132 M 130.4217,59.105887 v 52.913193"
       style="clip-rule:evenodd;fill-opacity:0;fill-rule:nonzero;stroke:#ff0000;stroke-width:0.004;stroke-linecap:round;stroke-linejoin:round;stroke-dasharray:none"
       id="path1706" /><path
       d="m 202.42152,59.105887 v 52.913193 m 52.91319,-52.913193 h -52.91319 m 0,52.913193 h 52.91319 m 0,-52.913193 v 52.913193"
       style="clip-rule:evenodd;fill-opacity:0;fill-rule:nonzero;stroke:#ff0000;stroke-width:0.004;stroke-linecap:round;stroke-linejoin:round;stroke-dasharray:none"
       id="path1708" /><path
       d="m 274.42133,112.01908 h 52.9132 m -52.9132,-52.913193 v 52.913193 m 52.9132,-52.913193 h -52.9132 m 52.9132,0 v 52.913193"
       style="clip-rule:evenodd;fill-opacity:0;fill-rule:nonzero;stroke:#ff0000;stroke-width:0.004;stroke-linecap:round;stroke-linejoin:round;stroke-dasharray:none"
       id="path1710" /><path
       d="m 399.33434,59.105887 h -52.91319 m 52.91319,0 v 52.913193 m -52.91319,0 h 52.91319 M 346.42115,59.105887 v 52.913193"
       style="clip-rule:evenodd;fill-opacity:0;fill-rule:nonzero;stroke:#ff0000;stroke-width:0.004;stroke-linecap:round;stroke-linejoin:round;stroke-dasharray:none"
       id="path1712" /><path
       d="m 471.33416,59.105887 h -52.9132 m 52.9132,0 v 52.913193 m -52.9132,0 h 52.9132 m -52.9132,-52.913193 v 52.913193"
       style="clip-rule:evenodd;fill-opacity:0;fill-rule:nonzero;stroke:#ff0000;stroke-width:0.004;stroke-linecap:round;stroke-linejoin:round;stroke-dasharray:none"
       id="path1714" /><path
       d="m 490.42078,112.01908 h 52.91319 m 0,-52.913193 V 112.01908 M 490.42078,59.105887 v 52.913193 m 52.91319,-52.913193 h -52.91319"
       style="clip-rule:evenodd;fill-opacity:0;fill-rule:nonzero;stroke:#ff0000;stroke-width:0.004;stroke-linecap:round;stroke-linejoin:round;stroke-dasharray:none"
       id="path1716" /><path
       d="m 562.42059,112.01908 h 52.9132 m -52.9132,-52.913193 v 52.913193 m 52.9132,-52.913193 h -52.9132 m 52.9132,0 v 52.913193"
       style="clip-rule:evenodd;fill-opacity:0;fill-rule:nonzero;stroke:#ff0000;stroke-width:0.004;stroke-linecap:round;stroke-linejoin:round;stroke-dasharray:none"
       id="path1718" /><path
       d="m 634.42041,112.01908 h 52.91319 m 0,-52.913193 h -52.91319 m 0,0 V 112.01908 M 687.3336,59.105887 v 52.913193"
       style="clip-rule:evenodd;fill-opacity:0;fill-rule:nonzero;stroke:#ff0000;stroke-width:0.004;stroke-linecap:round;stroke-linejoin:round;stroke-dasharray:none"
       id="path1720" /><path
       d="m 706.42022,112.01908 h 52.9132 m -52.9132,-52.913193 v 52.913193 m 52.9132,-52.913193 h -52.9132 m 52.9132,0 v 52.913193"
       style="clip-rule:evenodd;fill-opacity:0;fill-rule:nonzero;stroke:#ff0000;stroke-width:0.004;stroke-linecap:round;stroke-linejoin:round;stroke-dasharray:none"
       id="path1722" /><path
       d="m 831.33323,59.105887 h -52.9132 m 0,0 v 52.913193 m 52.9132,-52.913193 v 52.913193 m -52.9132,0 h 52.9132"
       style="clip-rule:evenodd;fill-opacity:0;fill-rule:nonzero;stroke:#ff0000;stroke-width:0.004;stroke-linecap:round;stroke-linejoin:round;stroke-dasharray:none"
       id="path1724" /><path
       d="m 850.41985,59.105887 v 52.913193 m 0,0 h 52.9132 m 0,-52.913193 v 52.913193 m 0,-52.913193 h -52.9132"
       style="clip-rule:evenodd;fill-opacity:0;fill-rule:nonzero;stroke:#ff0000;stroke-width:0.004;stroke-linecap:round;stroke-linejoin:round;stroke-dasharray:none"
       id="path1726" /><path
       d="m 975.33286,59.105887 v 52.913193 m -52.9132,-52.913193 v 52.913193 m 52.9132,-52.913193 h -52.9132 m 0,52.913193 h 52.9132"
       style="clip-rule:evenodd;fill-opacity:0;fill-rule:nonzero;stroke:#ff0000;stroke-width:0.004;stroke-linecap:round;stroke-linejoin:round;stroke-dasharray:none"
       id="path1728" /><path
       d="m 1120.421,59.105887 v 52.913193 m 0,0 h 52.9132 m 0,-52.913193 h -52.9132 m 52.9132,0 v 52.913193"
       style="clip-rule:evenodd;fill-opacity:0;fill-rule:nonzero;stroke:#ff0000;stroke-width:0.004;stroke-linecap:round;stroke-linejoin:round;stroke-dasharray:none"
       id="path1730" /><path
       d="m 1228.4207,59.105887 v 52.913193 m 52.9132,-52.913193 h -52.9132 m 0,52.913193 h 52.9132 m 0,-52.913193 v 52.913193"
       style="clip-rule:evenodd;fill-opacity:0;fill-rule:nonzero;stroke:#ff0000;stroke-width:0.004;stroke-linecap:round;stroke-linejoin:round;stroke-dasharray:none"
       id="path1734" /><path
       d="m 219.33481,131.1057 v 52.9132 m -52.9132,-52.9132 v 52.9132 m 0,0 h 52.9132 m 0,-52.9132 h -52.9132"
       style="clip-rule:evenodd;fill-opacity:0;fill-rule:nonzero;stroke:#ff0000;stroke-width:0.004;stroke-linecap:round;stroke-linejoin:round;stroke-dasharray:none"
       id="path1738" /><path
       d="m 238.42142,131.1057 v 52.9132 m 0,0 h 52.9132 m 0,-52.9132 h -52.9132 m 52.9132,0 v 52.9132"
       style="clip-rule:evenodd;fill-opacity:0;fill-rule:nonzero;stroke:#ff0000;stroke-width:0.004;stroke-linecap:round;stroke-linejoin:round;stroke-dasharray:none"
       id="path1740" /><path
       d="m 363.33444,131.1057 h -52.9132 m 0,0 v 52.9132 m 0,0 h 52.9132 m 0,-52.9132 v 52.9132"
       style="clip-rule:evenodd;fill-opacity:0;fill-rule:nonzero;stroke:#ff0000;stroke-width:0.004;stroke-linecap:round;stroke-linejoin:round;stroke-dasharray:none"
       id="path1742" /><path
       d="m 382.42105,131.1057 v 52.9132 m 0,0 h 52.9132 m 0,-52.9132 v 52.9132 m 0,-52.9132 h -52.9132"
       style="clip-rule:evenodd;fill-opacity:0;fill-rule:nonzero;stroke:#ff0000;stroke-width:0.004;stroke-linecap:round;stroke-linejoin:round;stroke-dasharray:none"
       id="path1744" /><path
       d="m 507.33407,131.1057 h -52.9132 m 0,52.9132 h 52.9132 m 0,-52.9132 v 52.9132 m -52.9132,-52.9132 v 52.9132"
       style="clip-rule:evenodd;fill-opacity:0;fill-rule:nonzero;stroke:#ff0000;stroke-width:0.004;stroke-linecap:round;stroke-linejoin:round;stroke-dasharray:none"
       id="path1746" /><path
       d="m 526.42068,184.0189 h 52.9132 m 0,-52.9132 h -52.9132 m 52.9132,0 v 52.9132 m -52.9132,-52.9132 v 52.9132"
       style="clip-rule:evenodd;fill-opacity:0;fill-rule:nonzero;stroke:#ff0000;stroke-width:0.004;stroke-linecap:round;stroke-linejoin:round;stroke-dasharray:none"
       id="path1748" /><path
       d="m 598.4205,131.1057 v 52.9132 m 0,0 h 52.91319 m 0,-52.9132 H 598.4205 m 52.91319,0 v 52.9132"
       style="clip-rule:evenodd;fill-opacity:0;fill-rule:nonzero;stroke:#ff0000;stroke-width:0.004;stroke-linecap:round;stroke-linejoin:round;stroke-dasharray:none"
       id="path1750" /><path
       d="m 723.33351,131.1057 h -52.9132 m 0,0 v 52.9132 m 0,0 h 52.9132 m 0,-52.9132 v 52.9132"
       style="clip-rule:evenodd;fill-opacity:0;fill-rule:nonzero;stroke:#ff0000;stroke-width:0.004;stroke-linecap:round;stroke-linejoin:round;stroke-dasharray:none"
       id="path1752" /><path
       d="m 742.42013,131.1057 v 52.9132 m 0,0 h 52.91319 m 0,-52.9132 h -52.91319 m 52.91319,0 v 52.9132"
       style="clip-rule:evenodd;fill-opacity:0;fill-rule:nonzero;stroke:#ff0000;stroke-width:0.004;stroke-linecap:round;stroke-linejoin:round;stroke-dasharray:none"
       id="path1754" /><path
       d="m 867.33314,131.1057 h -52.9132 m 0,0 v 52.9132 m 52.9132,-52.9132 v 52.9132 m -52.9132,0 h 52.9132"
       style="clip-rule:evenodd;fill-opacity:0;fill-rule:nonzero;stroke:#ff0000;stroke-width:0.004;stroke-linecap:round;stroke-linejoin:round;stroke-dasharray:none"
       id="path1756" /><path
       d="m 939.33295,131.1057 h -52.91319 m 0,52.9132 h 52.91319 m 0,-52.9132 v 52.9132 m -52.91319,-52.9132 v 52.9132"
       style="clip-rule:evenodd;fill-opacity:0;fill-rule:nonzero;stroke:#ff0000;stroke-width:0.004;stroke-linecap:round;stroke-linejoin:round;stroke-dasharray:none"
       id="path1758" /><path
       d="m 1011.3328,131.1057 v 52.9132 m -52.91323,0 h 52.91323 m -52.91323,-52.9132 v 52.9132 m 52.91323,-52.9132 h -52.91323"
       style="clip-rule:evenodd;fill-opacity:0;fill-rule:nonzero;stroke:#ff0000;stroke-width:0.004;stroke-linecap:round;stroke-linejoin:round;stroke-dasharray:none"
       id="path1760" /><path
       d="m 1083.3326,131.1057 h -52.9132 m 0,52.9132 h 52.9132 m 0,-52.9132 v 52.9132 m -52.9132,-52.9132 v 52.9132"
       style="clip-rule:evenodd;fill-opacity:0;fill-rule:nonzero;stroke:#ff0000;stroke-width:0.004;stroke-linecap:round;stroke-linejoin:round;stroke-dasharray:none"
       id="path1762" /><path
       d="m 1155.3324,131.1057 v 52.9132 m -52.9132,0 h 52.9132 m -52.9132,-52.9132 v 52.9132 m 52.9132,-52.9132 h -52.9132"
       style="clip-rule:evenodd;fill-opacity:0;fill-rule:nonzero;stroke:#ff0000;stroke-width:0.004;stroke-linecap:round;stroke-linejoin:round;stroke-dasharray:none"
       id="path1764" /><path
       d="m 1227.3322,131.1057 v 52.9132 m 0,-52.9132 h -52.9132 m 0,0 v 52.9132 m 0,0 h 52.9132"
       style="clip-rule:evenodd;fill-opacity:0;fill-rule:nonzero;stroke:#ff0000;stroke-width:0.004;stroke-linecap:round;stroke-linejoin:round;stroke-dasharray:none"
       id="path1766" /><path
       d="m 1299.332,131.1057 v 52.9132 m -52.9132,0 h 52.9132 m 0,-52.9132 h -52.9132 m 0,0 v 52.9132"
       style="clip-rule:evenodd;fill-opacity:0;fill-rule:nonzero;stroke:#ff0000;stroke-width:0.004;stroke-linecap:round;stroke-linejoin:round;stroke-dasharray:none"
       id="path1768" /><path
       d="m 237.33476,203.10552 v 52.91319 m -52.9132,-52.91319 v 52.91319 m 0,0 h 52.9132 m 0,-52.91319 h -52.9132"
       style="clip-rule:evenodd;fill-opacity:0;fill-rule:nonzero;stroke:#ff0000;stroke-width:0.004;stroke-linecap:round;stroke-linejoin:round;stroke-dasharray:none"
       id="path1770" /><path
       d="m 309.33458,203.10552 h -52.9132 m 0,0 v 52.91319 m 0,0 h 52.9132 m 0,-52.91319 v 52.91319"
       style="clip-rule:evenodd;fill-opacity:0;fill-rule:nonzero;stroke:#ff0000;stroke-width:0.004;stroke-linecap:round;stroke-linejoin:round;stroke-dasharray:none"
       id="path1772" /><path
       d="m 381.33439,203.10552 h -52.9132 m 52.9132,0 v 52.91319 m -52.9132,0 h 52.9132 m -52.9132,-52.91319 v 52.91319"
       style="clip-rule:evenodd;fill-opacity:0;fill-rule:nonzero;stroke:#ff0000;stroke-width:0.004;stroke-linecap:round;stroke-linejoin:round;stroke-dasharray:none"
       id="path1774" /><path
       d="m 453.3342,203.10552 v 52.91319 m -52.91319,-52.91319 v 52.91319 m 0,0 h 52.91319 m 0,-52.91319 h -52.91319"
       style="clip-rule:evenodd;fill-opacity:0;fill-rule:nonzero;stroke:#ff0000;stroke-width:0.004;stroke-linecap:round;stroke-linejoin:round;stroke-dasharray:none"
       id="path1776" /><path
       d="m 472.42082,203.10552 v 52.91319 m 52.9132,-52.91319 v 52.91319 m 0,-52.91319 h -52.9132 m 0,52.91319 h 52.9132"
       style="clip-rule:evenodd;fill-opacity:0;fill-rule:nonzero;stroke:#ff0000;stroke-width:0.004;stroke-linecap:round;stroke-linejoin:round;stroke-dasharray:none"
       id="path1778" /><path
       d="m 544.42064,256.01871 h 52.91319 m 0,-52.91319 h -52.91319 m 0,0 v 52.91319 m 52.91319,-52.91319 v 52.91319"
       style="clip-rule:evenodd;fill-opacity:0;fill-rule:nonzero;stroke:#ff0000;stroke-width:0.004;stroke-linecap:round;stroke-linejoin:round;stroke-dasharray:none"
       id="path1780" /><path
       d="m 669.33365,203.10552 v 52.91319 m -52.9132,0 h 52.9132 m 0,-52.91319 h -52.9132 m 0,0 v 52.91319"
       style="clip-rule:evenodd;fill-opacity:0;fill-rule:nonzero;stroke:#ff0000;stroke-width:0.004;stroke-linecap:round;stroke-linejoin:round;stroke-dasharray:none"
       id="path1782" /><path
       d="m 741.33346,203.10552 v 52.91319 m -52.91319,-52.91319 v 52.91319 m 0,0 h 52.91319 m 0,-52.91319 h -52.91319"
       style="clip-rule:evenodd;fill-opacity:0;fill-rule:nonzero;stroke:#ff0000;stroke-width:0.004;stroke-linecap:round;stroke-linejoin:round;stroke-dasharray:none"
       id="path1784" /><path
       d="m 760.42008,256.01871 h 52.9132 m 0,-52.91319 h -52.9132 m 0,0 v 52.91319 m 52.9132,-52.91319 v 52.91319"
       style="clip-rule:evenodd;fill-opacity:0;fill-rule:nonzero;stroke:#ff0000;stroke-width:0.004;stroke-linecap:round;stroke-linejoin:round;stroke-dasharray:none"
       id="path1786" /><path
       d="M 885.33309,203.10552 H 832.4199 m 52.91319,0 v 52.91319 M 832.4199,203.10552 v 52.91319 m 0,0 h 52.91319"
       style="clip-rule:evenodd;fill-opacity:0;fill-rule:nonzero;stroke:#ff0000;stroke-width:0.004;stroke-linecap:round;stroke-linejoin:round;stroke-dasharray:none"
       id="path1788" /><path
       d="m 957.33291,203.10552 v 52.91319 m -52.9132,0 h 52.9132 m -52.9132,-52.91319 v 52.91319 m 52.9132,-52.91319 h -52.9132"
       style="clip-rule:evenodd;fill-opacity:0;fill-rule:nonzero;stroke:#ff0000;stroke-width:0.004;stroke-linecap:round;stroke-linejoin:round;stroke-dasharray:none"
       id="path1790" /><path
       d="m 1102.4192,256.01871 h 52.9132 m 0,-52.91319 h -52.9132 m 52.9132,0 v 52.91319 m -52.9132,-52.91319 v 52.91319"
       style="clip-rule:evenodd;fill-opacity:0;fill-rule:nonzero;stroke:#ff0000;stroke-width:0.004;stroke-linecap:round;stroke-linejoin:round;stroke-dasharray:none"
       id="path1792" /><path
       d="m 1174.419,203.10552 v 52.91319 m 52.9132,-52.91319 v 52.91319 m -52.9132,0 h 52.9132 m 0,-52.91319 h -52.9132"
       style="clip-rule:evenodd;fill-opacity:0;fill-rule:nonzero;stroke:#ff0000;stroke-width:0.004;stroke-linecap:round;stroke-linejoin:round;stroke-dasharray:none"
       id="path1794" /><path
       d="m 1246.4188,203.10552 v 52.91319 m 52.9132,-52.91319 v 52.91319 m -52.9132,0 h 52.9132 m 0,-52.91319 h -52.9132"
       style="clip-rule:evenodd;fill-opacity:0;fill-rule:nonzero;stroke:#ff0000;stroke-width:0.004;stroke-linecap:round;stroke-linejoin:round;stroke-dasharray:none"
       id="path1796" /><path
       d="m 220.42147,328.01853 h 52.9132 m 0,-52.9132 v 52.9132 m -52.9132,-52.9132 v 52.9132 m 52.9132,-52.9132 h -52.9132"
       style="clip-rule:evenodd;fill-opacity:0;fill-rule:nonzero;stroke:#ff0000;stroke-width:0.004;stroke-linecap:round;stroke-linejoin:round;stroke-dasharray:none"
       id="path1798" /><path
       d="m 292.42129,328.01853 h 52.91319 m 0,-52.9132 v 52.9132 m -52.91319,-52.9132 v 52.9132 m 52.91319,-52.9132 h -52.91319"
       style="clip-rule:evenodd;fill-opacity:0;fill-rule:nonzero;stroke:#ff0000;stroke-width:0.004;stroke-linecap:round;stroke-linejoin:round;stroke-dasharray:none"
       id="path1800" /><path
       d="m 364.4211,328.01853 h 52.9132 m 0,-52.9132 v 52.9132 m 0,-52.9132 h -52.9132 m 0,0 v 52.9132"
       style="clip-rule:evenodd;fill-opacity:0;fill-rule:nonzero;stroke:#ff0000;stroke-width:0.004;stroke-linecap:round;stroke-linejoin:round;stroke-dasharray:none"
       id="path1802" /><path
       d="m 489.33411,275.10533 h -52.9132 m 0,0 v 52.9132 m 0,0 h 52.9132 m 0,-52.9132 v 52.9132"
       style="clip-rule:evenodd;fill-opacity:0;fill-rule:nonzero;stroke:#ff0000;stroke-width:0.004;stroke-linecap:round;stroke-linejoin:round;stroke-dasharray:none"
       id="path1804" /><path
       d="m 561.33393,275.10533 v 52.9132 m -52.9132,-52.9132 v 52.9132 m 52.9132,-52.9132 h -52.9132 m 0,52.9132 h 52.9132"
       style="clip-rule:evenodd;fill-opacity:0;fill-rule:nonzero;stroke:#ff0000;stroke-width:0.004;stroke-linecap:round;stroke-linejoin:round;stroke-dasharray:none"
       id="path1806" /><path
       d="m 580.42054,275.10533 v 52.9132 m 52.9132,-52.9132 v 52.9132 m 0,-52.9132 h -52.9132 m 0,52.9132 h 52.9132"
       style="clip-rule:evenodd;fill-opacity:0;fill-rule:nonzero;stroke:#ff0000;stroke-width:0.004;stroke-linecap:round;stroke-linejoin:round;stroke-dasharray:none"
       id="path1808" /><path
       d="m 705.33356,275.10533 h -52.9132 m 0,0 v 52.9132 m 52.9132,-52.9132 v 52.9132 m -52.9132,0 h 52.9132"
       style="clip-rule:evenodd;fill-opacity:0;fill-rule:nonzero;stroke:#ff0000;stroke-width:0.004;stroke-linecap:round;stroke-linejoin:round;stroke-dasharray:none"
       id="path1810" /><path
       d="m 724.42017,275.10533 v 52.9132 m 0,0 h 52.9132 m 0,-52.9132 v 52.9132 m 0,-52.9132 h -52.9132"
       style="clip-rule:evenodd;fill-opacity:0;fill-rule:nonzero;stroke:#ff0000;stroke-width:0.004;stroke-linecap:round;stroke-linejoin:round;stroke-dasharray:none"
       id="path1812" /><path
       d="m 849.33319,275.10533 h -52.9132 m 52.9132,0 v 52.9132 m -52.9132,-52.9132 v 52.9132 m 0,0 h 52.9132"
       style="clip-rule:evenodd;fill-opacity:0;fill-rule:nonzero;stroke:#ff0000;stroke-width:0.004;stroke-linecap:round;stroke-linejoin:round;stroke-dasharray:none"
       id="path1814" /><path
       d="m 868.4198,275.10533 v 52.9132 m 52.9132,-52.9132 h -52.9132 m 0,52.9132 h 52.9132 m 0,-52.9132 v 52.9132"
       style="clip-rule:evenodd;fill-opacity:0;fill-rule:nonzero;stroke:#ff0000;stroke-width:0.004;stroke-linecap:round;stroke-linejoin:round;stroke-dasharray:none"
       id="path1816" /><path
       d="m 1102.4192,328.01853 h 52.9132 m -52.9132,-52.9132 v 52.9132 m 52.9132,-52.9132 h -52.9132 m 52.9132,0 v 52.9132"
       style="clip-rule:evenodd;fill-opacity:0;fill-rule:nonzero;stroke:#ff0000;stroke-width:0.004;stroke-linecap:round;stroke-linejoin:round;stroke-dasharray:none"
       id="path1818" /><path
       d="m 1174.419,328.01853 h 52.9132 m 0,-52.9132 v 52.9132 m 0,-52.9132 h -52.9132 m 0,0 v 52.9132"
       style="clip-rule:evenodd;fill-opacity:0;fill-rule:nonzero;stroke:#ff0000;stroke-width:0.004;stroke-linecap:round;stroke-linejoin:round;stroke-dasharray:none"
       id="path1820" /><path
       d="m 1299.332,275.10533 h -52.9132 m 0,0 v 52.9132 m 52.9132,-52.9132 v 52.9132 m -52.9132,0 h 52.9132"
       style="clip-rule:evenodd;fill-opacity:0;fill-rule:nonzero;stroke:#ff0000;stroke-width:0.004;stroke-linecap:round;stroke-linejoin:round;stroke-dasharray:none"
       id="path1822" /><path
       d="m 949.41426,400.01834 h 52.91324 m -52.91324,-52.9132 h 52.91324 m -52.91324,0 v 52.9132 m 52.91324,-52.9132 v 52.9132"
       style="clip-rule:evenodd;fill-opacity:0;fill-rule:nonzero;stroke:#ff0000;stroke-width:0.004;stroke-linecap:round;stroke-linejoin:round;stroke-dasharray:none"
       id="path1824" /><path
       d="m 1155.3324,347.10514 h -52.9132 m 0,0 v 52.9132 m 52.9132,-52.9132 v 52.9132 m -52.9132,0 h 52.9132"
       style="clip-rule:evenodd;fill-opacity:0;fill-rule:nonzero;stroke:#ff0000;stroke-width:0.004;stroke-linecap:round;stroke-linejoin:round;stroke-dasharray:none"
       id="path1826" /><path
       d="m 1227.3322,347.10514 v 52.9132 m 0,-52.9132 h -52.9132 m 0,52.9132 h 52.9132 m -52.9132,-52.9132 v 52.9132"
       style="clip-rule:evenodd;fill-opacity:0;fill-rule:nonzero;stroke:#ff0000;stroke-width:0.004;stroke-linecap:round;stroke-linejoin:round;stroke-dasharray:none"
       id="path1828" /><path
       d="m 1299.332,347.10514 v 52.9132 m -52.9132,0 h 52.9132 m -52.9132,-52.9132 v 52.9132 m 52.9132,-52.9132 h -52.9132"
       style="clip-rule:evenodd;fill-opacity:0;fill-rule:nonzero;stroke:#ff0000;stroke-width:0.004;stroke-linecap:round;stroke-linejoin:round;stroke-dasharray:none"
       id="path1830" /><path
       d="m 67.420532,400.01834 h 52.913198 m -52.913198,-52.9132 v 52.9132 m 0,-52.9132 h 52.913198 m 0,0 v 52.9132"
       style="clip-rule:evenodd;fill-opacity:0;fill-rule:nonzero;stroke:#ff0000;stroke-width:0.004;stroke-linecap:round;stroke-linejoin:round;stroke-dasharray:none"
       id="path1832" /><path
       d="m 157.4203,400.01834 h 52.9132 m -52.9132,-52.9132 v 52.9132 m 0,-52.9132 h 52.9132 m 0,0 v 52.9132"
       style="clip-rule:evenodd;fill-opacity:0;fill-rule:nonzero;stroke:#ff0000;stroke-width:0.004;stroke-linecap:round;stroke-linejoin:round;stroke-dasharray:none"
       id="path1834" /><path
       d="m 247.42007,347.10514 v 52.9132 m 0,-52.9132 h 52.9132 m -52.9132,52.9132 h 52.9132 m 0,-52.9132 v 52.9132"
       style="clip-rule:evenodd;fill-opacity:0;fill-rule:nonzero;stroke:#ff0000;stroke-width:0.004;stroke-linecap:round;stroke-linejoin:round;stroke-dasharray:none"
       id="path1836" /><path
       d="m 337.41984,400.01834 h 52.91319 m 0,-52.9132 v 52.9132 m -52.91319,-52.9132 h 52.91319 m -52.91319,0 v 52.9132"
       style="clip-rule:evenodd;fill-opacity:0;fill-rule:nonzero;stroke:#ff0000;stroke-width:0.004;stroke-linecap:round;stroke-linejoin:round;stroke-dasharray:none"
       id="path1838" /><path
       d="m 679.41896,347.10514 v 52.9132 m 0,-52.9132 h 52.91319 m 0,0 v 52.9132 m -52.91319,0 h 52.91319"
       style="clip-rule:evenodd;fill-opacity:0;fill-rule:nonzero;stroke:#ff0000;stroke-width:0.004;stroke-linecap:round;stroke-linejoin:round;stroke-dasharray:none"
       id="path1840" /><path
       d="m 822.33192,347.10514 v 52.9132 m -52.9132,-52.9132 h 52.9132 m -52.9132,0 v 52.9132 m 0,0 h 52.9132"
       style="clip-rule:evenodd;fill-opacity:0;fill-rule:nonzero;stroke:#ff0000;stroke-width:0.004;stroke-linecap:round;stroke-linejoin:round;stroke-dasharray:none"
       id="path1842" /><path
       d="m 912.33169,347.10514 v 52.9132 m -52.9132,-52.9132 h 52.9132 m -52.9132,0 v 52.9132 m 0,0 h 52.9132"
       style="clip-rule:evenodd;fill-opacity:0;fill-rule:nonzero;stroke:#ff0000;stroke-width:0.004;stroke-linecap:round;stroke-linejoin:round;stroke-dasharray:none"
       id="path1844" /><path
       d="m 1083.3259,347.10514 v 52.9132 m 0,-52.9132 h -52.9132 m 0,0 v 52.9132 m 0,0 h 52.9132"
       style="clip-rule:evenodd;fill-opacity:0;fill-rule:nonzero;stroke:#ff0000;stroke-width:0.004;stroke-linecap:round;stroke-linejoin:round;stroke-dasharray:none"
       id="path1846" /><path
       d="m 1065.334,59.105887 v 52.913193 m -52.9132,-52.913193 v 52.913193 m 0,-52.913193 h 52.9132 m -52.9132,52.913193 h 52.9132"
       style="clip-rule:evenodd;fill-opacity:0;fill-rule:nonzero;stroke:#ff0000;stroke-width:0.004;stroke-linecap:round;stroke-linejoin:round;stroke-dasharray:none"
       id="path1848" /><path
       d="m 76.423175,131.1057 h 52.913195 m -52.913195,0 v 52.9132 m 0,0 h 52.913195 m 0,-52.9132 v 52.9132"
       style="clip-rule:evenodd;fill-opacity:0;fill-rule:nonzero;stroke:#ff0000;stroke-width:0.004;stroke-linecap:round;stroke-linejoin:round;stroke-dasharray:none"
       id="path1850" /><path
       d="m 94.423129,256.01871 h 52.913201 m 0,-52.91319 v 52.91319 M 94.423129,203.10552 h 52.913201 m -52.913201,0 v 52.91319"
       style="clip-rule:evenodd;fill-opacity:0;fill-rule:nonzero;stroke:#ff0000;stroke-width:0.004;stroke-linecap:round;stroke-linejoin:round;stroke-dasharray:none"
       id="path1852" /><path
       d="m 994.42081,203.10552 v 52.91319 m 0,0 h 52.91319 m 0,-52.91319 v 52.91319 m -52.91319,-52.91319 h 52.91319"
       style="clip-rule:evenodd;fill-opacity:0;fill-rule:nonzero;stroke:#ff0000;stroke-width:0.004;stroke-linecap:round;stroke-linejoin:round;stroke-dasharray:none"
       id="path1854" /><path
       d="m 174.33892,275.10533 v 52.9132 m -52.91319,-52.9132 v 52.9132 m 0,0 h 52.91319 m -52.91319,-52.9132 h 52.91319"
       style="clip-rule:evenodd;fill-opacity:0;fill-rule:nonzero;stroke:#ff0000;stroke-width:0.004;stroke-linecap:round;stroke-linejoin:round;stroke-dasharray:none"
       id="path1856" /><path
       d="m 967.41555,275.10533 h 52.91455 m -52.91455,0 v 52.9132 m 52.91455,-52.9132 v 52.9132 m -52.91455,0 h 52.91455"
       style="clip-rule:evenodd;fill-opacity:0;fill-rule:nonzero;stroke:#ff0000;stroke-width:0.004;stroke-linecap:round;stroke-linejoin:round;stroke-dasharray:none"
       id="path1858" /><path
       d="m 445.42089,347.10514 v 52.9132 m 52.9132,-52.9132 v 52.9132 m -52.9132,-52.9132 h 52.9132 m -52.9132,52.9132 h 52.9132"
       style="clip-rule:evenodd;fill-opacity:0;fill-rule:nonzero;stroke:#ff0000;stroke-width:0.004;stroke-linecap:round;stroke-linejoin:round;stroke-dasharray:none"
       id="path1860" /><path
       d="m 571.42057,400.01834 h 52.91319 m -52.91319,-52.9132 v 52.9132 m 52.91319,-52.9132 v 52.9132 m -52.91319,-52.9132 h 52.91319"
       style="clip-rule:evenodd;fill-opacity:0;fill-rule:nonzero;stroke:#ff0000;stroke-width:0.004;stroke-linecap:round;stroke-linejoin:round;stroke-dasharray:none"
       id="path1862" /><circle
       cx="1308.0483"
       cy="408.52139"
       r="4.3466554"
       style="clip-rule:evenodd;fill-opacity:0;fill-rule:evenodd;stroke:#ff0000;stroke-width:0.004;stroke-linecap:round;stroke-linejoin:round;stroke-dasharray:none"
       id="circle1864" /><circle
       cx="364.11203"
       cy="49.46764"
       r="4.3466554"
       style="clip-rule:evenodd;fill-opacity:0;fill-rule:evenodd;stroke:#ff0000;stroke-width:0.004;stroke-linecap:round;stroke-linejoin:round;stroke-dasharray:none"
       id="circle1868" /><circle
       cx="678.75793"
       cy="49.46764"
       r="4.3466554"
       style="clip-rule:evenodd;fill-opacity:0;fill-rule:evenodd;stroke:#ff0000;stroke-width:0.004;stroke-linecap:round;stroke-linejoin:round;stroke-dasharray:none"
       id="circle1872" /><circle
       cx="1308.0483"
       cy="49.46764"
       r="4.3466554"
       style="clip-rule:evenodd;fill-opacity:0;fill-rule:evenodd;stroke:#ff0000;stroke-width:0.004;stroke-linecap:round;stroke-linejoin:round;stroke-dasharray:none"
       id="circle1876" /><circle
       cx="364.11203"
       cy="408.52139"
       r="4.3466554"
       style="clip-rule:evenodd;fill-opacity:0;fill-rule:evenodd;stroke:#ff0000;stroke-width:0.004;stroke-linecap:round;stroke-linejoin:round;stroke-dasharray:none"
       id="circle1880" /><circle
       cx="993.4024"
       cy="408.52139"
       r="4.3466554"
       style="clip-rule:evenodd;fill-opacity:0;fill-rule:evenodd;stroke:#ff0000;stroke-width:0.004;stroke-linecap:round;stroke-linejoin:round;stroke-dasharray:none"
       id="circle1884" /><circle
       cx="993.4024"
       cy="49.46764"
       r="4.3466554"
       style="clip-rule:evenodd;fill-opacity:0;fill-rule:evenodd;stroke:#ff0000;stroke-width:0.004;stroke-linecap:round;stroke-linejoin:round;stroke-dasharray:none"
       id="circle1888" /><circle
       cx="1308.0483"
       cy="228.99518"
       r="4.3466554"
       style="clip-rule:evenodd;fill-opacity:0;fill-rule:evenodd;stroke:#ff0000;stroke-width:0.004;stroke-linecap:round;stroke-linejoin:round;stroke-dasharray:none"
       id="circle1892" /><circle
       cx="429.30917"
       cy="359.38818"
       r="4.3466554"
       style="clip-rule:evenodd;fill-opacity:0;fill-rule:evenodd;stroke:#ff0000;stroke-width:0.004;stroke-linecap:round;stroke-linejoin:round;stroke-dasharray:none"
       id="circle1896" /><circle
       cx="49.46751"
       cy="408.52139"
       r="4.3466554"
       style="clip-rule:evenodd;fill-opacity:0;fill-rule:evenodd;stroke:#ff0000;stroke-width:0.004;stroke-linecap:round;stroke-linejoin:round;stroke-dasharray:none"
       id="circle1900" /><circle
       cx="49.46751"
       cy="228.99518"
       r="4.3466554"
       style="clip-rule:evenodd;fill-opacity:0;fill-rule:evenodd;stroke:#ff0000;stroke-width:0.004;stroke-linecap:round;stroke-linejoin:round;stroke-dasharray:none"
       id="circle1904" /><circle
       cx="49.46751"
       cy="49.46764"
       r="4.3466554"
       style="clip-rule:evenodd;fill-opacity:0;fill-rule:evenodd;stroke:#ff0000;stroke-width:0.004;stroke-linecap:round;stroke-linejoin:round;stroke-dasharray:none"
       id="circle1908" /><circle
       cx="895.21735"
       cy="196.86859"
       r="4.3466554"
       style="clip-rule:evenodd;fill-opacity:0;fill-rule:evenodd;stroke:#ff0000;stroke-width:0.004;stroke-linecap:round;stroke-linejoin:round;stroke-dasharray:none"
       id="circle1912" /><circle
       cx="462.46246"
       cy="196.86859"
       r="4.3466554"
       style="clip-rule:evenodd;fill-opacity:0;fill-rule:evenodd;stroke:#ff0000;stroke-width:0.004;stroke-linecap:round;stroke-linejoin:round;stroke-dasharray:none"
       id="circle1916" /><circle
       cx="928.20526"
       cy="359.38818"
       r="4.3466554"
       style="clip-rule:evenodd;fill-opacity:0;fill-rule:evenodd;stroke:#ff0000;stroke-width:0.004;stroke-linecap:round;stroke-linejoin:round;stroke-dasharray:none"
       id="circle1920" /><circle
       cx="678.75793"
       cy="408.52139"
       r="4.3466554"
       style="clip-rule:evenodd;fill-opacity:0;fill-rule:evenodd;stroke:#ff0000;stroke-width:0.004;stroke-linecap:round;stroke-linejoin:round;stroke-dasharray:none"
       id="circle1924" /><circle
       cx="364.11203"
       cy="468.99417"
       r="4.3466554"
       style="clip-rule:evenodd;fill-opacity:0;fill-rule:evenodd;stroke:#ff0000;stroke-width:0.004;stroke-linecap:round;stroke-linejoin:round;stroke-dasharray:none"
       id="circle1928" /><circle
       cx="678.75793"
       cy="468.99417"
       r="4.3466554"
       style="clip-rule:evenodd;fill-opacity:0;fill-rule:evenodd;stroke:#ff0000;stroke-width:0.004;stroke-linecap:round;stroke-linejoin:round;stroke-dasharray:none"
       id="circle1932" /><circle
       cx="1308.0483"
       cy="468.99417"
       r="4.3466554"
       style="clip-rule:evenodd;fill-opacity:0;fill-rule:evenodd;stroke:#ff0000;stroke-width:0.004;stroke-linecap:round;stroke-linejoin:round;stroke-dasharray:none"
       id="circle1936" /><circle
       cx="993.4024"
       cy="468.99417"
       r="4.3466554"
       style="clip-rule:evenodd;fill-opacity:0;fill-rule:evenodd;stroke:#ff0000;stroke-width:0.004;stroke-linecap:round;stroke-linejoin:round;stroke-dasharray:none"
       id="circle1940" /><circle
       cx="1308.0483"
       cy="648.52173"
       r="4.3466554"
       style="clip-rule:evenodd;fill-opacity:0;fill-rule:evenodd;stroke:#ff0000;stroke-width:0.004;stroke-linecap:round;stroke-linejoin:round;stroke-dasharray:none"
       id="circle1944" /><circle
       cx="429.30917"
       cy="778.91473"
       r="4.3466554"
       style="clip-rule:evenodd;fill-opacity:0;fill-rule:evenodd;stroke:#ff0000;stroke-width:0.004;stroke-linecap:round;stroke-linejoin:round;stroke-dasharray:none"
       id="circle1948" /><circle
       cx="49.46751"
       cy="648.52173"
       r="4.3466554"
       style="clip-rule:evenodd;fill-opacity:0;fill-rule:evenodd;stroke:#ff0000;stroke-width:0.004;stroke-linecap:round;stroke-linejoin:round;stroke-dasharray:none"
       id="circle1952" /><circle
       cx="49.46751"
       cy="468.99417"
       r="4.3466554"
       style="clip-rule:evenodd;fill-opacity:0;fill-rule:evenodd;stroke:#ff0000;stroke-width:0.004;stroke-linecap:round;stroke-linejoin:round;stroke-dasharray:none"
       id="circle1956" /><circle
       cx="895.21735"
       cy="616.39514"
       r="4.3466554"
       style="clip-rule:evenodd;fill-opacity:0;fill-rule:evenodd;stroke:#ff0000;stroke-width:0.004;stroke-linecap:round;stroke-linejoin:round;stroke-dasharray:none"
       id="circle1960" /><circle
       cx="1308.0483"
       cy="778.91473"
       r="4.3466554"
       style="clip-rule:evenodd;fill-opacity:0;fill-rule:evenodd;stroke:#ff0000;stroke-width:0.004;stroke-linecap:round;stroke-linejoin:round;stroke-dasharray:none"
       id="circle1964" /><circle
       cx="462.46246"
       cy="616.39514"
       r="4.3466554"
       style="clip-rule:evenodd;fill-opacity:0;fill-rule:evenodd;stroke:#ff0000;stroke-width:0.004;stroke-linecap:round;stroke-linejoin:round;stroke-dasharray:none"
       id="circle1968" /><circle
       cx="928.20526"
       cy="778.91473"
       r="4.3466554"
       style="clip-rule:evenodd;fill-opacity:0;fill-rule:evenodd;stroke:#ff0000;stroke-width:0.004;stroke-linecap:round;stroke-linejoin:round;stroke-dasharray:none"
       id="circle1972" /><circle
       cx="49.46751"
       cy="778.91473"
       r="4.3466554"
       style="clip-rule:evenodd;fill-opacity:0;fill-rule:evenodd;stroke:#ff0000;stroke-width:0.004;stroke-linecap:round;stroke-linejoin:round;stroke-dasharray:none"
       id="circle1976" /><circle
       cx="364.11203"
       cy="839.38654"
       r="4.3466554"
       style="clip-rule:evenodd;fill-opacity:0;fill-rule:evenodd;stroke:#ff0000;stroke-width:0.004;stroke-linecap:round;stroke-linejoin:round;stroke-dasharray:none"
       id="circle1980" /><circle
       cx="678.75793"
       cy="839.38654"
       r="4.3466554"
       style="clip-rule:evenodd;fill-opacity:0;fill-rule:evenodd;stroke:#ff0000;stroke-width:0.004;stroke-linecap:round;stroke-linejoin:round;stroke-dasharray:none"
       id="circle1984" /><circle
       cx="1308.0483"
       cy="839.38654"
       r="4.3466554"
       style="clip-rule:evenodd;fill-opacity:0;fill-rule:evenodd;stroke:#ff0000;stroke-width:0.004;stroke-linecap:round;stroke-linejoin:round;stroke-dasharray:none"
       id="circle1988" /><circle
       cx="993.4024"
       cy="839.38654"
       r="4.3466554"
       style="clip-rule:evenodd;fill-opacity:0;fill-rule:evenodd;stroke:#ff0000;stroke-width:0.004;stroke-linecap:round;stroke-linejoin:round;stroke-dasharray:none"
       id="circle1992" /><circle
       cx="1308.0483"
       cy="1018.9141"
       r="4.3466554"
       style="clip-rule:evenodd;fill-opacity:0;fill-rule:evenodd;stroke:#ff0000;stroke-width:0.004;stroke-linecap:round;stroke-linejoin:round;stroke-dasharray:none"
       id="circle1996" /><circle
       cx="49.46751"
       cy="1018.9141"
       r="4.3466554"
       style="clip-rule:evenodd;fill-opacity:0;fill-rule:evenodd;stroke:#ff0000;stroke-width:0.004;stroke-linecap:round;stroke-linejoin:round;stroke-dasharray:none"
       id="circle2000" /><circle
       cx="49.46751"
       cy="839.38654"
       r="4.3466554"
       style="clip-rule:evenodd;fill-opacity:0;fill-rule:evenodd;stroke:#ff0000;stroke-width:0.004;stroke-linecap:round;stroke-linejoin:round;stroke-dasharray:none"
       id="circle2004" /><circle
       cx="895.21735"
       cy="986.78748"
       r="4.3466554"
       style="clip-rule:evenodd;fill-opacity:0;fill-rule:evenodd;stroke:#ff0000;stroke-width:0.004;stroke-linecap:round;stroke-linejoin:round;stroke-dasharray:none"
       id="circle2008" /><circle
       cx="462.46246"
       cy="986.78748"
       r="4.3466554"
       style="clip-rule:evenodd;fill-opacity:0;fill-rule:evenodd;stroke:#ff0000;stroke-width:0.004;stroke-linecap:round;stroke-linejoin:round;stroke-dasharray:none"
       id="circle2012" /></g><g
     inkscape:groupmode="layer"
     id="layer1"
     inkscape:label="彫刻" /></svg>
